<?xml version="1.0" encoding="utf-8"?>
<!-- Generator: Adobe Illustrator 16.0.0, SVG Export Plug-In . SVG Version: 6.00 Build 0)  -->
<!DOCTYPE svg PUBLIC "-//W3C//DTD SVG 1.1//EN" "http://www.w3.org/Graphics/SVG/1.1/DTD/svg11.dtd">
<svg version="1.1" id="Layer_1" xmlns="http://www.w3.org/2000/svg" xmlns:xlink="http://www.w3.org/1999/xlink" x="0px" y="0px"
	 width="592.417px" height="513.371px" viewBox="-156.502 -139.371 592.417 513.371"
	 enable-background="new -156.502 -139.371 592.417 513.371" xml:space="preserve">
<g>
	<g>
		<path d="M109.749,363.56c0,0,1.708-0.982,4.692-2.691c2.994-1.691,7.271-4.104,12.411-7.004c2.556-1.453,5.326-3.029,8.259-4.695
			c2.938-1.652,5.941-3.568,9.141-5.373c3.178-1.855,6.486-3.719,9.738-5.797c3.278-2.031,6.607-4.1,9.936-6.168
			c3.286-2.131,6.579-4.264,9.811-6.355c3.275-2.045,6.348-4.262,9.342-6.395c2.957-2.172,5.969-4.074,8.656-6.104
			c2.677-2.037,5.214-3.965,7.551-5.744c1.172-0.885,2.297-1.732,3.365-2.545c1.037-0.852,2.02-1.66,2.936-2.418
			c1.844-1.531,3.445-2.859,4.77-3.959c2.674-2.174,4.201-3.416,4.201-3.416s-1.398,1.383-3.846,3.805
			c-1.232,1.199-2.736,2.658-4.457,4.328c-0.869,0.838-1.787,1.723-2.758,2.66c-1.029,0.865-2.111,1.779-3.242,2.729
			c-2.27,1.898-4.725,3.955-7.323,6.129c-2.6,2.17-5.506,4.256-8.482,6.447c-2.979,2.189-6.046,4.471-9.303,6.584
			c-3.224,2.156-6.499,4.35-9.773,6.541c-3.379,2.025-6.758,4.053-10.086,6.047c-3.299,2.035-6.654,3.855-9.869,5.666
			c-3.221,1.811-6.338,3.541-9.361,5.066c-3.02,1.533-5.869,2.979-8.501,4.314c-2.619,1.369-5.063,2.527-7.247,3.516
			c-2.172,1.008-4.068,1.889-5.631,2.611C111.542,362.75,109.749,363.56,109.749,363.56z"/>
	</g>
	<g>
		<path d="M192.87,332.242c0,0,1.071-0.186,2.942-0.443c0.949-0.066,2.039-0.422,3.297-0.711c1.258-0.252,2.631-0.801,4.141-1.287
			c1.523-0.451,3.061-1.277,4.754-1.922c1.611-0.852,3.369-1.611,5.074-2.645c0.861-0.496,1.734-1.002,2.619-1.512
			c0.857-0.561,1.729-1.123,2.602-1.688c1.764-1.117,3.471-2.389,5.178-3.648c1.691-1.289,3.393-2.566,4.973-3.938
			c1.629-1.328,3.164-2.703,4.668-4.027c1.453-1.375,2.9-2.658,4.205-3.949c1.291-1.307,2.566-2.496,3.664-3.67
			c2.242-2.303,4.084-4.268,5.318-5.691c1.238-1.422,1.977-2.215,1.977-2.215s-0.539,0.932-1.555,2.535
			c-0.5,0.809-1.17,1.74-1.924,2.83c-0.734,1.102-1.627,2.299-2.648,3.564c-1.988,2.584-4.525,5.424-7.396,8.33
			c-1.484,1.398-2.947,2.924-4.613,4.281c-1.604,1.432-3.328,2.77-5.049,4.111c-1.775,1.275-3.551,2.555-5.389,3.684
			c-0.916,0.559-1.836,1.107-2.74,1.656c-0.941,0.488-1.863,0.971-2.775,1.445c-1.793,1.002-3.699,1.65-5.418,2.406
			c-1.807,0.566-3.455,1.232-5.084,1.541c-1.604,0.369-3.064,0.713-4.422,0.795c-1.338,0.115-2.484,0.314-3.427,0.246
			C193.954,332.291,192.87,332.242,192.87,332.242z"/>
	</g>
	<g>
		<g>
			<g>
				<path d="M79.643-33.584c-0.125,0.36-0.248,0.723-0.32,1.095l-0.146,0.557c-0.045,0.189-0.18,0.353-0.273,0.533l-0.105,0.215
					l-0.029-0.266c-0.381-3.49-1.052-6.934-2.399-10.153l-0.983-2.414c-0.377-0.781-0.826-1.531-1.232-2.296
					c-0.436-0.754-0.79-1.547-1.287-2.258l-1.486-2.13c-1.977-2.849-4.434-5.298-6.984-7.59c-0.646-0.563-1.369-1.028-2.049-1.547
					c-0.672-0.454-1.414-1.125-2.025-1.404l-2.362-1.171c-0.784-0.415-1.575-0.794-2.379-0.993c-1.608-0.486-3.132-1.1-4.86-1.373
					c-1.676-0.363-3.357-0.716-5.09-0.895c-3.421-0.52-6.913-0.721-10.42-1.023c-3.508-0.262-7.063-0.621-10.625-1.253l-5.188-1.039
					c-1.729-0.395-3.494-0.968-5.243-1.447c-1.739-0.528-3.392-1.242-5.092-1.854c-1.671-0.677-3.281-1.515-4.916-2.281
					c-1.594-0.855-3.128-1.821-4.69-2.727c-1.482-1.042-2.973-2.071-4.42-3.154c-1.367-1.179-2.813-2.282-4.115-3.53
					c-1.265-1.292-2.646-2.476-3.803-3.858c-2.419-2.678-4.669-5.511-6.627-8.526c-1-1.493-1.979-2.998-2.838-4.574
					c-0.916-1.545-1.779-3.114-2.555-4.724c-0.832-1.589-1.596-3.202-2.294-4.843c-0.749-1.623-1.433-3.271-2.062-4.938
					c-0.672-1.651-1.29-3.321-1.838-5.013c-0.586-1.659-1.156-3.407-1.623-5.086c-1.002-3.371-1.896-6.734-3.53-9.424l2.771-0.235
					l-1.756,4.379l-1.439,4.496l-1.104,4.599l-0.745,4.672l-0.387,4.722c-0.004,1.582-0.058,3.163-0.021,4.745
					c0.117,1.578,0.17,3.163,0.34,4.737c0.236,1.565,0.398,3.146,0.699,4.706c0.354,1.549,0.623,3.119,1.047,4.649
					c0.477,1.515,0.842,3.068,1.364,4.571c0.563,1.488,1.037,3.02,1.676,4.478c0.671,1.447,1.259,2.941,1.998,4.359
					c0.772,1.398,1.471,2.842,2.304,4.212c0.867,1.344,1.684,2.731,2.595,4.05l2.849,3.893l3.099,3.711l-3.358-3.495
					c-1.064-1.215-2.088-2.472-3.115-3.726c-0.99-1.279-1.885-2.635-2.834-3.953c-0.916-1.342-1.703-2.766-2.559-4.146
					c-0.828-1.402-1.505-2.885-2.267-4.33c-0.728-1.456-1.295-2.99-1.954-4.485c-0.623-1.511-1.078-3.083-1.6-4.634
					c-0.488-1.563-0.817-3.167-1.233-4.752c-0.36-1.597-0.579-3.224-0.874-4.835c-0.229-1.626-0.338-3.264-0.51-4.898
					c-0.092-1.642-0.09-3.282-0.137-4.928c0.05-1.641,0.162-3.285,0.243-4.931l0.624-4.902l1-4.847l1.393-4.753l1.766-4.632
					l1.107-2.898l1.664,2.659c2.086,3.332,3.006,6.85,4.077,10.177c0.505,1.7,1.052,3.286,1.664,4.935
					c0.567,1.644,1.179,3.269,1.841,4.869c0.62,1.623,1.291,3.219,2.029,4.783c0.684,1.592,1.433,3.146,2.246,4.671
					c0.756,1.553,1.595,3.058,2.484,4.536c0.832,1.513,1.777,2.948,2.742,4.368c1.898,2.862,4.018,5.567,6.293,8.116
					c1.091,1.324,2.393,2.439,3.575,3.669c1.228,1.188,2.585,2.229,3.867,3.354c1.359,1.028,2.763,2.004,4.149,2.992
					c1.473,0.859,2.91,1.78,4.408,2.594c1.547,0.724,3.041,1.559,4.614,2.22c1.595,0.604,3.171,1.316,4.784,1.829
					c1.635,0.475,3.208,1.031,4.898,1.447l5.135,1.119c3.357,0.63,6.789,1.072,10.287,1.458c3.48,0.414,7.012,0.729,10.529,1.376
					c1.764,0.239,3.514,0.661,5.258,1.096c1.747,0.333,3.493,1.069,5.223,1.677c0.9,0.277,1.681,0.686,2.439,1.116l2.323,1.248
					c0.96,0.517,1.494,1.1,2.261,1.647c0.698,0.568,1.445,1.085,2.104,1.699c2.608,2.481,4.976,5.204,6.874,8.228l1.413,2.273
					c0.469,0.756,0.797,1.595,1.205,2.387c0.377,0.806,0.791,1.597,1.135,2.412l0.881,2.52c0.672,1.648,0.936,3.424,1.322,5.15
					c0.372,1.73,0.302,3.53,0.471,5.275l-0.137-0.052c0.085-0.155,0.219-0.283,0.273-0.466l0.184-0.534
					C79.342-32.88,79.491-33.232,79.643-33.584z"/>
			</g>
			<g>
				<path d="M-29.148-70.376c-2.072-1.276-4.113-2.584-6.148-3.923c-1.028-0.648-1.998-1.399-2.971-2.158l-1.468-1.132
					c-0.511-0.353-0.897-0.854-1.354-1.278l-1.322-1.327c-0.435-0.479-0.895-0.811-1.311-1.417
					c-0.736-0.907-1.468-2.105-2.089-3.074c-0.647-0.995-1.282-1.97-2.01-2.754c-0.346-0.42-0.729-0.759-1.126-1.06
					c-0.368-0.357-0.84-0.475-1.225-0.752l2.169-1.177c-0.003,1.418-0.205,2.801-0.064,4.229c0.159,1.423,0.152,2.842,0.495,4.26
					c0.285,1.411,0.447,2.844,0.876,4.238c0.387,1.401,0.687,2.817,1.208,4.184c0.497,1.371,0.893,2.771,1.477,4.114
					c0.566,1.351,1.043,2.732,1.676,4.052l1.897,3.967l2.081,3.874l2.281,3.762c0.758,1.259,1.661,2.41,2.461,3.646
					c0.788,1.245,1.762,2.337,2.648,3.51c0.873,1.187,1.896,2.231,2.861,3.338c0.939,1.137,2.025,2.111,3.096,3.113
					c1.031,1.065,2.203,1.925,3.369,2.829c1.123,0.977,2.441,1.611,3.695,2.412c1.267,0.771,2.69,1.202,4.067,1.835l-2.198-0.507
					c-0.737-0.173-1.5-0.311-2.178-0.655c-1.375-0.618-2.869-1.093-4.121-1.961c-1.305-0.79-2.659-1.537-3.824-2.521
					c-1.209-0.932-2.438-1.854-3.521-2.933c-1.115-1.039-2.264-2.063-3.244-3.232c-0.996-1.15-2.094-2.23-2.992-3.462
					c-0.93-1.207-1.91-2.388-2.752-3.657l-2.527-3.813l-2.287-3.967l-2.031-4.105c-0.679-1.367-1.205-2.809-1.813-4.215
					c-0.637-1.393-1.011-2.896-1.518-4.341c-0.527-1.442-0.836-2.96-1.221-4.45c-0.417-1.48-0.619-3.031-0.851-4.559
					c-0.298-1.52-0.246-3.111-0.352-4.663c-0.083-1.561,0.188-3.161,0.272-4.733l0.144-2.531l2.028,1.355
					c0.607,0.405,1.306,0.733,1.792,1.246c0.54,0.474,1.025,0.978,1.418,1.52c0.85,1.06,1.462,2.174,2.063,3.246
					c0.623,1.1,1.063,2.034,1.748,3.089c0.22,0.433,0.705,0.894,1.04,1.341l1.122,1.359c0.391,0.438,0.713,0.941,1.163,1.335
					l1.276,1.245c0.846,0.842,1.7,1.678,2.641,2.443L-29.148-70.376z"/>
			</g>
			<g>
				<path d="M-17.27-33.411c-2.276,0.098-4.532,0.414-6.81,0.515c-1.139,0.048-2.287,0.077-3.426-0.076
					c-0.576-0.036-1.137-0.176-1.697-0.322c-0.596-0.114-1.07-0.41-1.609-0.608c-0.537-0.188-1.023-0.517-1.529-0.796
					c-0.514-0.273-0.982-0.603-1.449-0.932c-0.955-0.633-1.831-1.365-2.733-2.063c-0.891-0.71-1.784-1.408-2.698-2.075l-1.406-0.94
					l-1.479-0.8l0.317-0.208c0.121,1.427,0.371,2.859,0.971,4.187c0.525,1.348,1.275,2.598,2.078,3.808
					c0.844,1.185,1.742,2.332,2.738,3.396c0.985,1.074,2.025,2.099,3.135,3.045c1.086,0.973,2.245,1.862,3.422,2.721
					c1.174,0.861,2.396,1.661,3.656,2.394c1.278,0.728,2.539,1.361,3.938,1.853c1.375,0.51,2.73,1.093,4.121,1.537l4.197,1.255
					l4.281,0.965c1.428,0.33,2.891,0.477,4.332,0.723c1.441,0.263,2.908,0.351,4.362,0.506c1.456,0.167,2.918,0.26,4.386,0.317
					c1.467,0.077,2.927,0.184,4.395,0.193c2.933,0.099,5.868,0.082,8.807,0.072c-2.936,0.085-5.871,0.176-8.81,0.152
					c-2.936-0.009-5.882-0.088-8.808-0.374c-1.464-0.142-2.934-0.219-4.389-0.47c-1.452-0.233-2.918-0.373-4.361-0.688l-4.316-0.936
					l-4.253-1.23c-1.407-0.434-2.76-1.005-4.143-1.503c-1.38-0.471-2.759-1.14-4.032-1.859c-2.584-1.445-4.975-3.213-7.18-5.177
					c-1.115-0.972-2.16-2.02-3.15-3.116c-1.002-1.089-1.908-2.266-2.758-3.48c-0.81-1.24-1.564-2.529-2.096-3.922
					c-0.602-1.367-0.857-2.865-0.965-4.356l-0.031-0.401l0.346,0.191l1.514,0.843l1.42,0.971c0.92,0.682,1.816,1.391,2.697,2.11
					c0.895,0.702,1.764,1.437,2.699,2.072c0.461,0.331,0.92,0.658,1.41,0.925c0.487,0.276,0.944,0.597,1.488,0.797
					c0.523,0.197,1.041,0.51,1.57,0.614c0.537,0.156,1.076,0.307,1.642,0.354c1.113,0.178,2.255,0.177,3.387,0.16
					C-21.817-33.11-19.547-33.37-17.27-33.411z"/>
			</g>
			<g>
				<path d="M76.034-25.876c-0.132,0.094-0.177-0.218-0.233-0.322l-0.15-0.467l-0.264-0.946l-0.483-1.896l-0.481-1.9l-0.263-0.942
					l-0.146-0.469c-0.053-0.129-0.12-0.353-0.199-0.385l-0.035-0.009c-1.043-5.907-4.371-11.157-8.454-15.425
					c-2.047-2.15-4.32-4.084-6.785-5.738c-2.447-1.658-5.128-3.061-7.998-3.722c-5.767-1.443-11.795-1.168-17.736-0.971
					C26.836-58.805,20.804-58.915,14.886-60c-5.903-1.116-11.625-3.235-16.781-6.319c-5.157-3.092-9.721-7.098-13.642-11.625
					c-3.925-4.531-7.232-9.56-10.083-14.813c-1.401-2.644-2.729-5.321-3.899-8.073c-1.175-2.733-2.26-5.554-4.146-7.893
					c1.934,2.298,3.086,5.113,4.313,7.819c1.222,2.718,2.603,5.365,4.055,7.968c2.889,5.207,6.211,10.192,10.138,14.661
					c3.92,4.464,8.469,8.396,13.582,11.408c5.117,3.009,10.774,5.056,16.602,6.117c5.832,1.099,11.813,1.267,17.76,1.041
					c5.945-0.15,12.025-0.396,17.889,1.113c2.967,0.713,5.646,2.146,8.121,3.845c2.48,1.69,4.766,3.658,6.814,5.846
					c4.052,4.372,7.28,9.747,8.211,15.687l-0.035-0.012c0.209,0.035,0.186,0.269,0.266,0.398l0.145,0.471l0.256,0.943l0.473,1.903
					l0.473,1.899l0.254,0.947l0.148,0.47C75.86-26.093,75.903-25.782,76.034-25.876z"/>
			</g>
		</g>
		<g>
			<path d="M9.864-10.821L8.989-9.789C8.69-9.451,8.424-9.084,8.096-8.772C7.434-8.16,6.778-7.533,6.102-6.929L3.91-5.309
				C3.115-4.869,2.3-4.457,1.494-4.027l0.045-0.307l2.683,1.755c0.976,0.436,1.944,0.898,2.925,1.307
				c1.031,0.281,2.049,0.621,3.088,0.853c1.061,0.138,2.109,0.354,3.175,0.423c1.069,0.013,2.139,0.106,3.205,0.05
				c1.066-0.095,2.138-0.118,3.198-0.271c1.055-0.188,2.117-0.302,3.172-0.511l3.137-0.719l3.094-0.907l3.044-1.073
				c2.004-0.781,3.989-1.612,5.94-2.53c3.889-1.85,7.701-3.879,11.42-6.069c-3.626,2.341-7.355,4.547-11.254,6.419
				c-1.947,0.946-3.928,1.811-5.937,2.624l-3.048,1.122l-3.109,0.958c-2.096,0.557-4.219,1.039-6.381,1.304
				c-1.078,0.139-2.17,0.148-3.258,0.229c-1.085,0.042-2.176-0.066-3.264-0.094c-1.085-0.089-2.156-0.324-3.232-0.476
				C9.076-0.193,8.043-0.556,6.996-0.854c-1-0.431-1.978-0.916-2.968-1.373L1.321-4.054L1.084-4.212l0.283-0.144
				c0.789-0.41,1.592-0.8,2.379-1.224l2.222-1.516C6.659-7.663,7.332-8.257,8.02-8.841c0.34-0.299,0.617-0.657,0.93-0.982
				L9.864-10.821z"/>
		</g>
	</g>
	<g>
		<g>
			<g>
				<path d="M248.856-13.167c-0.018,0.381-0.033,0.762-0.104,1.14l-0.063,0.564c-0.027,0.186,0.039,0.36,0.049,0.536l-0.152-0.012
					c0.902-1.504,1.609-3.16,2.686-4.564c1.092-1.394,2.09-2.885,3.402-4.087l1.873-1.902c0.662-0.593,1.375-1.125,2.061-1.69
					c0.703-0.543,1.361-1.161,2.107-1.641l2.25-1.451c3.02-1.92,6.324-3.367,9.738-4.491c0.859-0.272,1.754-0.419,2.629-0.631
					c0.928-0.168,1.66-0.468,2.75-0.523l2.635-0.134c0.873-0.064,1.752-0.101,2.684,0.034c1.824,0.196,3.715,0.278,5.436,0.723
					c1.762,0.351,3.525,0.719,5.221,1.258c3.455,0.924,6.781,2.149,10.105,3.267c3.324,1.148,6.615,2.219,9.916,3.09l5.119,1.186
					c1.705,0.35,3.365,0.52,5.045,0.795c1.682,0.224,3.408,0.252,5.109,0.393c1.707,0.079,3.414-0.038,5.119-0.031
					c1.707-0.094,3.398-0.311,5.098-0.454c1.678-0.305,3.361-0.583,5.029-0.93c1.641-0.468,3.316-0.827,4.93-1.374
					c1.598-0.608,3.25-1.055,4.805-1.783c3.148-1.334,6.223-2.865,9.162-4.644c1.477-0.874,2.949-1.764,4.35-2.772
					c1.434-0.953,2.84-1.953,4.186-3.035c1.387-1.031,2.73-2.115,4.033-3.26c1.332-1.1,2.625-2.254,3.877-3.454
					c1.283-1.166,2.531-2.371,3.748-3.61c1.262-1.229,2.436-2.429,3.619-3.747c2.393-2.549,4.725-5.337,8.039-7.453l2.645-1.688
					l-0.24,3.088l-0.387,4.942l-0.781,4.892l-1.172,4.81l-1.535,4.699c-0.633,1.521-1.234,3.053-1.893,4.559
					c-0.748,1.465-1.453,2.955-2.234,4.395c-0.854,1.402-1.654,2.837-2.557,4.204c-0.959,1.334-1.854,2.711-2.861,3.998
					c-1.055,1.255-2.039,2.563-3.146,3.767c-1.139,1.174-2.225,2.403-3.434,3.501c-1.234,1.073-2.404,2.214-3.686,3.219
					c-1.307,0.978-2.555,2.028-3.902,2.94c-1.367,0.883-2.688,1.833-4.09,2.653c-1.424,0.784-2.813,1.624-4.256,2.357
					c-1.467,0.691-2.928,1.393-4.41,2.031l-4.529,1.719l4.389-2.025l4.242-2.299c1.389-0.798,2.719-1.703,4.078-2.549
					c1.342-0.879,2.592-1.885,3.889-2.819c1.275-0.963,2.447-2.062,3.67-3.079c1.203-1.049,2.289-2.229,3.432-3.332
					c1.115-1.132,2.111-2.382,3.189-3.547c1.037-1.2,1.957-2.506,2.939-3.75c0.938-1.28,1.76-2.644,2.646-3.954
					c0.828-1.352,1.551-2.764,2.338-4.14c0.709-1.413,1.338-2.866,2.014-4.297l1.676-4.431l1.326-4.544l0.971-4.629l0.625-4.679
					l0.289-4.711l2.4,1.4c-2.629,1.731-4.879,4.388-7.227,7.005c-1.143,1.318-2.402,2.653-3.641,3.9
					c-1.219,1.293-2.492,2.538-3.807,3.741c-1.281,1.24-2.605,2.435-3.977,3.58c-1.336,1.187-2.719,2.318-4.15,3.396
					c-1.391,1.125-2.844,2.172-4.332,3.174c-1.451,1.057-2.98,1.998-4.527,2.92c-3.059,1.886-6.307,3.48-9.635,4.865
					c-1.641,0.756-3.398,1.231-5.092,1.856c-1.715,0.57-3.488,0.948-5.232,1.427c-1.77,0.363-3.561,0.651-5.346,0.958
					c-1.803,0.15-3.602,0.365-5.406,0.456c-1.809-0.008-3.615,0.061-5.42-0.044c-1.799-0.172-3.596-0.234-5.395-0.508
					c-1.783-0.312-3.623-0.55-5.357-0.937l-5.133-1.279c-3.492-0.956-6.855-2.153-10.133-3.422c-3.301-1.228-6.547-2.54-9.857-3.536
					c-1.641-0.579-3.313-0.981-4.982-1.369c-1.684-0.494-3.322-0.59-4.982-0.842c-0.809-0.16-1.688-0.156-2.574-0.12l-2.639,0.047
					c-0.668-0.008-1.627,0.279-2.432,0.403c-0.834,0.177-1.688,0.285-2.512,0.518c-3.281,0.979-6.557,2.14-9.559,3.867l-2.256,1.288
					c-0.756,0.431-1.418,0.996-2.133,1.488c-0.697,0.514-1.418,1.002-2.096,1.546l-1.922,1.762
					c-2.598,2.329-4.676,5.157-6.516,8.145l-0.143,0.229l-0.01-0.238c-0.004-0.201-0.053-0.409-0.014-0.597l0.104-0.565
					C248.768-12.408,248.811-12.789,248.856-13.167z"/>
			</g>
			<g>
				<path d="M362.923,0.176l6.984-2.018c1.178-0.29,2.311-0.683,3.436-1.078l1.684-0.579c0.576-0.161,1.084-0.478,1.623-0.709
					l1.594-0.745c0.502-0.261,1.135-0.469,1.518-0.768c1.072-0.657,1.867-1.313,2.9-2.04c1.002-0.711,2.033-1.455,3.252-2.053
					c0.594-0.322,1.242-0.566,1.934-0.765c0.66-0.252,1.434-0.252,2.154-0.356l2.416-0.354l-0.963,2.348
					c-0.594,1.457-1.035,3.02-1.779,4.393c-0.76,1.356-1.395,2.819-2.313,4.064c-0.865,1.282-1.715,2.599-2.725,3.756
					c-0.984,1.18-1.918,2.421-3.006,3.5c-1.08,1.085-2.061,2.286-3.232,3.271c-1.148,1.009-2.242,2.087-3.439,3.035l-3.594,2.839
					l-3.77,2.602l-3.912,2.366c-1.307,0.79-2.697,1.436-4.055,2.126c-1.342,0.725-2.791,1.236-4.188,1.845
					c-1.385,0.639-2.861,1.072-4.316,1.531c-1.436,0.513-2.943,0.818-4.438,1.146c-1.473,0.388-3.02,0.484-4.533,0.64
					c-1.506,0.246-3.059,0.037-4.564,0.008c-0.762,0.021-1.508-0.182-2.25-0.343l-2.203-0.483c1.518,0.018,2.986,0.238,4.463,0.086
					c1.475-0.188,2.938-0.197,4.371-0.598c1.438-0.319,2.867-0.597,4.258-1.114c1.395-0.444,2.791-0.862,4.133-1.486
					c1.348-0.585,2.717-1.092,4.012-1.792c1.305-0.68,2.652-1.249,3.896-2.036c1.254-0.772,2.564-1.43,3.785-2.237l3.67-2.426
					l3.541-2.607l3.41-2.77c1.135-0.924,2.16-1.969,3.246-2.943c1.107-0.965,2.066-2.061,3.098-3.089
					c1.057-1.013,1.934-2.163,2.883-3.267c0.986-1.076,1.742-2.296,2.609-3.452c0.914-1.136,1.518-2.419,2.273-3.637
					c0.732-1.228,1.148-2.567,1.748-3.847l1.457,1.993c-0.471,0.083-0.945-0.015-1.43,0.156c-0.486,0.101-0.979,0.238-1.471,0.471
					c-0.992,0.396-1.98,1.007-2.994,1.631c-0.979,0.61-2.15,1.379-3.207,1.886c-0.631,0.369-1.191,0.469-1.789,0.715l-1.762,0.637
					c-0.594,0.186-1.158,0.474-1.771,0.574l-1.811,0.395c-1.203,0.271-2.4,0.531-3.611,0.68
					C367.745-0.399,365.337-0.092,362.923,0.176z"/>
			</g>
			<g>
				<path d="M336.36,28.484c2.039,1.018,3.979,2.223,6.012,3.236c1.016,0.502,2.049,0.99,3.131,1.304
					c0.531,0.197,1.084,0.291,1.639,0.382c0.523,0.129,1.125,0.067,1.682,0.114c0.576,0.054,1.125-0.042,1.684-0.081
					c0.559-0.03,1.117-0.129,1.674-0.23c1.117-0.172,2.215-0.467,3.324-0.718c1.105-0.272,2.219-0.529,3.344-0.75l1.701-0.27
					l1.727-0.107l0.396-0.029l-0.197,0.347c-0.738,1.3-1.609,2.545-2.738,3.523c-1.078,1.03-2.313,1.871-3.574,2.647
					c-1.287,0.736-2.609,1.408-3.98,1.967c-1.367,0.563-2.764,1.066-4.184,1.464c-2.834,0.834-5.752,1.405-8.705,1.603
					c-1.463,0.107-2.992,0.121-4.443-0.046c-1.461-0.143-2.928-0.206-4.387-0.415l-4.369-0.707l-4.303-1.006
					c-1.434-0.33-2.822-0.836-4.234-1.247c-1.418-0.396-2.781-0.956-4.166-1.454c-2.766-0.993-5.461-2.187-8.115-3.433
					c-2.666-1.236-5.281-2.579-7.898-3.908c2.65,1.269,5.297,2.539,7.99,3.704c1.33,0.619,2.697,1.15,4.055,1.709
					c1.35,0.574,2.709,1.119,4.096,1.592c1.379,0.485,2.744,1.031,4.162,1.411c1.406,0.396,2.789,0.888,4.221,1.202l4.281,0.963
					l4.33,0.663c1.449,0.197,2.922,0.246,4.383,0.377c1.471,0.153,2.885,0.121,4.354,0.009c1.453-0.121,2.895-0.319,4.328-0.595
					c1.432-0.272,2.857-0.581,4.258-0.99c1.408-0.384,2.787-0.866,4.135-1.41c1.359-0.535,2.664-1.185,3.93-1.897
					c1.244-0.747,2.457-1.559,3.512-2.551c1.107-0.943,1.949-2.133,2.668-3.368l0.201,0.322l-1.68,0.095l-1.672,0.247
					c-1.111,0.21-2.219,0.457-3.326,0.719c-1.115,0.24-2.221,0.526-3.357,0.691c-0.563,0.099-1.125,0.193-1.707,0.222
					c-0.576,0.036-1.158,0.125-1.721,0.064c-0.572-0.051-1.131,0.011-1.717-0.141c-0.57-0.108-1.137-0.219-1.668-0.432
					c-1.098-0.348-2.123-0.87-3.133-1.398C340.274,30.804,338.374,29.555,336.36,28.484z"/>
			</g>
			<g>
				<path d="M248.813-4.659c0.078,0.14,0.254-0.123,0.348-0.193l0.334-0.358l0.637-0.743l1.242-1.513l1.244-1.515l0.633-0.744
					l0.334-0.36c0.127-0.084,0.211-0.303,0.41-0.243l-0.037-0.008c3.379-4.969,8.6-8.44,14.133-10.66
					c2.791-1.094,5.699-1.899,8.666-2.363c2.961-0.477,5.998-0.624,8.982,0.003c5.945,1.149,11.338,3.974,16.643,6.653
					c5.277,2.753,10.756,5.163,16.494,6.666c5.723,1.541,11.711,2.11,17.623,1.584c5.91-0.53,11.707-2.142,17.158-4.496
					c5.467-2.354,10.6-5.437,15.441-8.904c2.424-1.733,4.809-3.531,7.08-5.465c2.268-1.917,4.514-3.972,7.242-5.22
					c-2.703,1.307-4.889,3.396-7.123,5.36c-2.232,1.986-4.582,3.836-6.979,5.622c-4.826,3.528-9.971,6.654-15.457,9.067
					c-5.479,2.412-11.32,4.08-17.305,4.662c-5.98,0.579-12.059,0.042-17.873-1.475c-5.811-1.552-11.311-4.041-16.596-6.835
					c-5.285-2.721-10.613-5.552-16.443-6.719c-2.875-0.634-5.898-0.513-8.82-0.059c-2.936,0.439-5.818,1.214-8.592,2.282
					c-5.516,2.108-10.771,5.425-14.242,10.319l-0.035-0.007c-0.084-0.006-0.242,0.164-0.342,0.262l-0.336,0.359l-0.637,0.737
					l-1.254,1.507l-1.25,1.51l-0.643,0.739l-0.336,0.355C249.067-4.779,248.891-4.519,248.813-4.659z"/>
			</g>
		</g>
		<g>
			<path d="M302.165,37.282l0.398,1.294c0.141,0.425,0.24,0.87,0.422,1.281c0.369,0.823,0.723,1.646,1.102,2.458l1.359,2.32
				c0.531,0.718,1.088,1.414,1.629,2.121l0.193,0.25l-0.281,0.045l-3.234,0.49c-1.09-0.013-2.18,0.012-3.27-0.031
				c-1.074-0.175-2.162-0.291-3.227-0.519c-1.041-0.323-2.109-0.567-3.127-0.953c-0.994-0.44-2.027-0.809-2.992-1.311
				c-0.945-0.536-1.928-1.016-2.842-1.604c-1.844-1.162-3.551-2.508-5.209-3.906l-2.396-2.198l-2.279-2.319
				c-1.461-1.595-2.889-3.227-4.24-4.914c-2.721-3.362-5.143-6.955-7.418-10.623c2.422,3.577,4.996,7.038,7.717,10.378
				c1.371,1.663,2.809,3.266,4.287,4.83l2.291,2.271l2.402,2.145l2.529,1.995c0.861,0.638,1.775,1.195,2.646,1.821
				c0.893,0.591,1.854,1.071,2.773,1.612c0.943,0.51,1.947,0.879,2.918,1.327c0.992,0.394,2.035,0.648,3.049,0.978
				c1.037,0.235,2.104,0.362,3.156,0.552c1.063,0.051,2.131,0.043,3.205,0.069l3.176-0.437l-0.092,0.293
				c-0.545-0.729-1.107-1.453-1.637-2.191l-1.283-2.398c-0.354-0.838-0.678-1.683-1.014-2.521c-0.162-0.421-0.244-0.866-0.369-1.299
				L302.165,37.282z"/>
		</g>
	</g>
	<path d="M14.951,275.226h-33.629V374H-50.48v-98.773h-106.021v-33.434L-40.377,56.187h21.7v190.598h33.628V275.226z
		 M-50.48,246.783V104.519l-89.65,142.264H-50.48z"/>
	<path d="M251.071-4.243c11.408,13.729,19.924,29.816,25.545,48.27c5.613,18.45,8.422,37.755,8.422,57.9
		c0,24.246-3.477,45.952-10.43,65.114c-6.955,19.166-16.494,35.078-28.617,47.734c-12.48,13.014-27.275,22.822-44.395,29.416
		c-17.108,6.594-36.19,9.895-57.225,9.895c-23,0-43.5-3.838-61.508-11.498c-18.01-7.664-32.627-18.188-43.857-31.559
		c-11.766-13.906-20.549-30.17-26.341-48.802c-5.795-18.626-8.689-38.729-8.689-60.3c0-21.219,2.808-40.738,8.421-58.571
		c5.617-17.822,14.396-33.961,26.34-48.401c11.406-13.907,26.117-24.87,44.127-32.896c18.008-8.021,38.594-12.034,61.775-12.034
		c24.422,0,45.369,4.104,62.846,12.303C224.958-29.468,239.487-18.329,251.071-4.243z M225.934,101.929
		c0-42.43-7.266-75.328-21.793-98.683c-14.534-23.354-34.278-35.031-59.239-35.031c-25.315,0-45.283,11.675-59.9,35.031
		c-14.621,23.356-21.928,56.253-21.928,98.683c0,40.286,6.994,72.692,20.992,97.208c13.993,24.516,34.094,36.771,60.305,36.771
		c26.207,0,46.352-12.256,60.438-36.771C218.889,174.621,225.934,142.215,225.934,101.929z"/>
	<path d="M435.915,275.226H402.29V374h-31.811v-98.773H264.46v-33.434L380.587,56.188h21.703v190.596h33.625V275.226z
		 M370.479,246.783V104.519l-89.648,142.264H370.479z"/>
</g>
</svg>
