<?xml version="1.0" encoding="utf-8"?>
<!-- Generator: Adobe Illustrator 16.0.0, SVG Export Plug-In . SVG Version: 6.00 Build 0)  -->
<!DOCTYPE svg PUBLIC "-//W3C//DTD SVG 1.1//EN" "http://www.w3.org/Graphics/SVG/1.1/DTD/svg11.dtd">
<svg version="1.1" id="Layer_1" xmlns="http://www.w3.org/2000/svg" xmlns:xlink="http://www.w3.org/1999/xlink" x="0px" y="0px"
	 width="588.895px" height="513.366px" viewBox="-155.948 -139.469 588.895 513.366"
	 enable-background="new -155.948 -139.469 588.895 513.366" xml:space="preserve">
<g>
	<path d="M16.24,275.267h-33.771v97.942h-31.941v-97.942h-106.475V242.12L-39.324,58.073h21.794v189.001h33.773v28.192H16.24z
		 M-49.472,247.074V105.997l-90.036,141.077H-49.472z"/>
	<path d="M343.276,373.209c-10.426,0-19.965-1.688-28.612-5.057c-8.651-3.372-16.085-7.931-22.294-13.667
		c-6.213-5.745-11.012-12.344-14.391-19.808c-3.385-7.462-5.072-15.144-5.072-23.03c0-7.031,1.328-13.383,3.99-19.052
		s6.929-8.502,12.811-8.502c6.652,0,11.727,2.121,15.221,6.349c3.494,4.23,5.241,9.079,5.241,14.531
		c0,4.596-0.586,10.404-1.747,17.438c-1.165,7.025-2.079,12.053-2.744,15.062c0.781,1.298,2.194,3.021,4.246,5.168
		c2.062,2.153,4.584,4.093,7.586,5.815c3.555,2.147,7.278,3.87,11.166,5.168c3.891,1.286,9.391,1.937,16.502,1.937
		c6.666,0,13.082-1.436,19.252-4.307c6.166-2.871,11.58-7.462,16.251-13.781c4.887-6.598,8.689-14.309,11.42-23.134
		c2.718-8.828,4.079-20.413,4.079-34.768c0-7.746-0.64-15.422-1.917-23.031c-1.28-7.605-3.642-14.205-7.091-19.805
		c-3.445-5.594-8.144-9.935-14.096-13.023c-5.945-3.082-13.477-4.633-22.595-4.633h-21.845v-24.75h14.514
		c15.347,0,26.412-5.455,33.201-16.358c6.781-10.909,10.18-27.341,10.18-49.301c0-17.937-3.283-31.455-9.841-40.574
		c-6.562-9.111-15.845-13.669-27.847-13.669c-5.781,0-10.533,0.902-14.256,2.691c-3.725,1.796-6.754,3.554-9.09,5.273
		c-2.779,2.019-5.063,4.235-6.838,6.676c-1.781,2.44-3.115,4.229-3.998,5.379c0.777,4.599,1.718,10.226,2.825,16.902
		c1.104,6.67,1.665,13.022,1.665,19.053c0,5.309-1.748,10.084-5.239,14.311c-3.495,4.236-8.625,6.352-15.393,6.352
		c-5.877,0-10.173-2.721-12.891-8.18c-2.719-5.455-4.078-11.769-4.078-18.945c0-7.454,1.606-15.065,4.829-22.813
		c3.215-7.75,7.98-14.997,14.303-21.747c6.321-6.738,14.031-12.195,23.121-16.358c9.098-4.159,19.574-6.242,31.447-6.242
		c13.643,0,24.926,2.617,33.854,7.854c8.932,5.241,15.941,11.594,21.048,19.053c4.993,7.32,8.429,15.002,10.313,23.031
		c1.886,8.036,2.828,14.926,2.828,20.67c0,7.175-0.779,14.389-2.326,21.633c-1.552,7.248-4.105,13.958-7.652,20.127
		c-3.885,6.744-9.017,12.883-15.392,18.402c-6.38,5.529-14.391,10.015-24.041,13.457v3.445c6.212,0.715,12.838,2.508,19.886,5.379
		c7.038,2.868,13.387,7.104,19.045,12.7c5.879,5.889,10.705,13.456,14.472,22.714c3.771,9.255,5.659,20.985,5.659,35.191
		c0,27.557-8.542,49.906-25.619,67.058C390.244,364.637,368.897,373.209,343.276,373.209z"/>
	<g>
		<path d="M99.055,363.462c0,0,1.705-0.984,4.689-2.695c2.994-1.69,7.275-4.104,12.409-7.002c2.561-1.453,5.331-3.029,8.262-4.696
			c2.938-1.649,5.94-3.568,9.142-5.373c3.175-1.854,6.488-3.718,9.737-5.795c3.278-2.036,6.608-4.102,9.938-6.17
			c3.287-2.133,6.575-4.26,9.81-6.354c3.274-2.047,6.35-4.266,9.339-6.396c2.96-2.171,5.971-4.072,8.654-6.101
			c2.681-2.039,5.216-3.966,7.559-5.742c1.169-0.893,2.294-1.738,3.366-2.549c1.031-0.854,2.013-1.657,2.936-2.419
			c1.838-1.53,3.445-2.859,4.768-3.956c2.672-2.173,4.197-3.418,4.197-3.418s-1.397,1.386-3.842,3.806
			c-1.238,1.195-2.74,2.655-4.461,4.327c-0.865,0.835-1.787,1.725-2.76,2.658c-1.028,0.867-2.109,1.777-3.238,2.73
			c-2.268,1.898-4.727,3.955-7.322,6.129c-2.603,2.17-5.509,4.254-8.485,6.443c-2.974,2.193-6.041,4.472-9.299,6.587
			c-3.224,2.157-6.504,4.353-9.778,6.54c-3.379,2.026-6.758,4.055-10.082,6.049c-3.302,2.036-6.654,3.858-9.875,5.666
			c-3.219,1.808-6.336,3.542-9.358,5.065c-3.018,1.532-5.868,2.979-8.502,4.315c-2.614,1.368-5.06,2.523-7.243,3.518
			c-2.174,1.008-4.071,1.887-5.63,2.608C100.848,362.653,99.055,363.462,99.055,363.462z"/>
	</g>
	<g>
		<path d="M182.177,332.138c0,0,1.067-0.185,2.943-0.439c0.949-0.064,2.039-0.422,3.297-0.712c1.258-0.255,2.627-0.8,4.139-1.286
			c1.522-0.451,3.063-1.274,4.756-1.922c1.612-0.853,3.37-1.614,5.075-2.646c0.856-0.495,1.731-1.002,2.614-1.512
			c0.861-0.554,1.73-1.119,2.604-1.688c1.761-1.116,3.469-2.391,5.176-3.649c1.691-1.287,3.393-2.566,4.977-3.938
			c1.622-1.326,3.16-2.703,4.663-4.025c1.45-1.371,2.9-2.662,4.208-3.95c1.293-1.306,2.568-2.496,3.662-3.669
			c2.244-2.303,4.088-4.268,5.32-5.689c1.236-1.422,1.979-2.217,1.979-2.217s-0.545,0.932-1.56,2.534
			c-0.497,0.809-1.166,1.74-1.921,2.83c-0.737,1.099-1.626,2.297-2.649,3.568c-1.986,2.578-4.528,5.42-7.398,8.323
			c-1.483,1.398-2.951,2.927-4.613,4.286c-1.599,1.427-3.324,2.769-5.044,4.113c-1.776,1.269-3.551,2.552-5.391,3.683
			c-0.92,0.557-1.835,1.107-2.739,1.655c-0.939,0.486-1.865,0.973-2.779,1.447c-1.793,1.002-3.698,1.647-5.412,2.403
			c-1.807,0.566-3.46,1.232-5.09,1.543c-1.604,0.369-3.063,0.713-4.422,0.791c-1.336,0.117-2.48,0.316-3.426,0.249
			C183.261,332.193,182.177,332.138,182.177,332.138z"/>
	</g>
	<g>
		<g>
			<g>
				<path d="M68.946-33.683c-0.124,0.36-0.247,0.722-0.318,1.094l-0.146,0.557c-0.046,0.188-0.181,0.354-0.273,0.532l-0.106,0.214
					l-0.03-0.265c-0.385-3.491-1.053-6.932-2.4-10.155l-0.985-2.41c-0.378-0.781-0.821-1.533-1.23-2.299
					c-0.433-0.748-0.792-1.544-1.286-2.257l-1.488-2.13c-1.973-2.849-4.436-5.299-6.981-7.59c-0.646-0.563-1.37-1.026-2.05-1.546
					c-0.672-0.455-1.414-1.125-2.025-1.405l-2.361-1.171c-0.785-0.411-1.576-0.792-2.379-0.99c-1.607-0.484-3.132-1.099-4.859-1.371
					c-1.678-0.366-3.358-0.719-5.093-0.896c-3.419-0.519-6.911-0.72-10.423-1.024c-3.505-0.26-7.059-0.619-10.624-1.252l-5.188-1.04
					c-1.729-0.394-3.495-0.97-5.238-1.448c-1.738-0.526-3.395-1.242-5.095-1.853c-1.671-0.678-3.278-1.519-4.915-2.282
					c-1.594-0.855-3.129-1.821-4.694-2.728c-1.477-1.043-2.968-2.071-4.418-3.153c-1.368-1.179-2.813-2.282-4.118-3.53
					c-1.261-1.292-2.644-2.476-3.799-3.861c-2.42-2.675-4.669-5.508-6.626-8.523c-0.999-1.493-1.98-3-2.839-4.575
					c-0.914-1.544-1.779-3.112-2.555-4.725c-0.832-1.586-1.597-3.201-2.295-4.844c-0.749-1.619-1.436-3.27-2.062-4.935
					c-0.674-1.65-1.292-3.321-1.837-5.015c-0.586-1.658-1.154-3.405-1.623-5.085c-1.002-3.37-1.898-6.733-3.529-9.423l2.77-0.238
					l-1.756,4.381l-1.439,4.499l-1.104,4.596l-0.74,4.671l-0.385,4.725c-0.004,1.578-0.059,3.163-0.023,4.743
					c0.116,1.577,0.168,3.163,0.339,4.74c0.239,1.563,0.398,3.146,0.7,4.704c0.352,1.548,0.621,3.118,1.046,4.646
					c0.474,1.518,0.839,3.07,1.36,4.574c0.563,1.486,1.037,3.018,1.678,4.478c0.668,1.447,1.256,2.941,1.996,4.357
					c0.772,1.397,1.471,2.844,2.303,4.214c0.869,1.345,1.686,2.73,2.595,4.051l2.851,3.89l3.097,3.716l-3.357-3.495
					c-1.065-1.217-2.085-2.472-3.114-3.726c-0.99-1.281-1.887-2.636-2.836-3.954c-0.916-1.341-1.703-2.765-2.561-4.146
					c-0.828-1.402-1.504-2.886-2.266-4.331c-0.729-1.455-1.295-2.988-1.951-4.484c-0.625-1.511-1.078-3.084-1.604-4.634
					c-0.488-1.562-0.816-3.168-1.234-4.752c-0.359-1.598-0.58-3.224-0.873-4.835c-0.23-1.625-0.337-3.264-0.512-4.899
					c-0.092-1.64-0.089-3.282-0.136-4.927c0.047-1.641,0.161-3.285,0.24-4.93l0.622-4.903l1-4.847l1.391-4.754l1.768-4.631
					l1.107-2.899l1.66,2.66c2.091,3.333,3.006,6.851,4.077,10.179c0.509,1.699,1.055,3.283,1.665,4.934
					c0.567,1.645,1.178,3.268,1.84,4.869c0.617,1.623,1.289,3.217,2.025,4.783c0.687,1.592,1.437,3.146,2.245,4.669
					c0.756,1.553,1.597,3.059,2.484,4.537c0.831,1.512,1.78,2.947,2.741,4.368c1.9,2.863,4.018,5.566,6.295,8.115
					c1.089,1.326,2.393,2.439,3.576,3.672c1.227,1.186,2.584,2.229,3.867,3.354c1.357,1.025,2.762,2.002,4.151,2.991
					c1.47,0.858,2.909,1.782,4.407,2.593c1.546,0.724,3.04,1.561,4.615,2.222c1.598,0.603,3.17,1.314,4.787,1.828
					c1.636,0.474,3.209,1.032,4.896,1.448l5.136,1.117c3.353,0.632,6.79,1.074,10.284,1.459c3.482,0.413,7.014,0.728,10.531,1.373
					c1.764,0.243,3.514,0.663,5.258,1.098c1.746,0.335,3.492,1.069,5.222,1.678c0.897,0.277,1.679,0.687,2.438,1.115l2.322,1.248
					c0.961,0.518,1.494,1.1,2.262,1.648c0.701,0.568,1.447,1.085,2.106,1.7c2.61,2.48,4.976,5.202,6.876,8.228l1.415,2.272
					c0.469,0.756,0.796,1.594,1.201,2.388c0.378,0.806,0.79,1.595,1.137,2.41l0.879,2.521c0.675,1.647,0.937,3.423,1.324,5.149
					c0.37,1.732,0.3,3.53,0.47,5.275l-0.137-0.051c0.086-0.154,0.218-0.282,0.273-0.467l0.184-0.533
					C68.649-32.981,68.796-33.33,68.946-33.683z"/>
			</g>
			<g>
				<path d="M-39.845-70.474c-2.069-1.276-4.109-2.584-6.147-3.923c-1.028-0.648-1.998-1.399-2.968-2.157l-1.468-1.133
					c-0.511-0.353-0.896-0.854-1.354-1.276l-1.323-1.329c-0.434-0.479-0.896-0.811-1.311-1.417
					c-0.735-0.906-1.468-2.104-2.089-3.074c-0.647-0.995-1.28-1.971-2.01-2.755c-0.346-0.422-0.733-0.758-1.126-1.057
					c-0.369-0.359-0.838-0.476-1.227-0.754l2.168-1.178c-0.004,1.419-0.203,2.802-0.064,4.229c0.16,1.423,0.152,2.844,0.496,4.262
					c0.289,1.413,0.447,2.844,0.878,4.238c0.386,1.401,0.688,2.817,1.207,4.183c0.497,1.374,0.892,2.772,1.477,4.115
					c0.563,1.35,1.046,2.73,1.676,4.054l1.897,3.965l2.08,3.874l2.281,3.762c0.758,1.259,1.658,2.411,2.463,3.646
					c0.788,1.246,1.76,2.338,2.65,3.513c0.873,1.185,1.893,2.229,2.859,3.337c0.943,1.136,2.027,2.111,3.1,3.113
					c1.029,1.064,2.203,1.924,3.369,2.83c1.121,0.976,2.439,1.609,3.692,2.411c1.267,0.772,2.69,1.201,4.071,1.834l-2.199-0.507
					c-0.736-0.173-1.502-0.311-2.178-0.652c-1.371-0.623-2.865-1.094-4.123-1.963c-1.302-0.79-2.655-1.538-3.822-2.521
					c-1.207-0.932-2.438-1.855-3.516-2.934c-1.118-1.039-2.27-2.063-3.246-3.234c-0.998-1.148-2.097-2.229-2.994-3.459
					c-0.93-1.208-1.912-2.388-2.752-3.66l-2.525-3.813l-2.291-3.965l-2.034-4.105c-0.673-1.367-1.201-2.811-1.811-4.213
					c-0.634-1.394-1.008-2.895-1.519-4.342c-0.521-1.441-0.832-2.959-1.218-4.449c-0.421-1.48-0.618-3.032-0.855-4.559
					c-0.293-1.52-0.245-3.111-0.347-4.664c-0.084-1.559,0.186-3.162,0.273-4.73l0.143-2.534l2.025,1.356
					c0.607,0.405,1.305,0.731,1.793,1.246c0.543,0.472,1.023,0.977,1.42,1.52c0.846,1.059,1.461,2.174,2.063,3.246
					c0.624,1.1,1.062,2.032,1.749,3.089c0.215,0.431,0.701,0.894,1.037,1.341l1.123,1.357c0.393,0.439,0.713,0.943,1.164,1.336
					l1.275,1.247c0.846,0.839,1.702,1.677,2.643,2.443L-39.845-70.474z"/>
			</g>
			<g>
				<path d="M-27.964-33.51c-2.279,0.099-4.533,0.417-6.813,0.517c-1.138,0.046-2.285,0.077-3.424-0.079
					c-0.576-0.034-1.136-0.175-1.697-0.32c-0.596-0.114-1.07-0.408-1.609-0.608c-0.535-0.188-1.022-0.517-1.529-0.796
					c-0.514-0.271-0.982-0.603-1.45-0.931c-0.956-0.634-1.834-1.366-2.733-2.063c-0.894-0.71-1.784-1.407-2.698-2.074l-1.407-0.94
					l-1.477-0.803l0.317-0.209c0.122,1.427,0.37,2.861,0.972,4.188c0.527,1.347,1.273,2.597,2.08,3.807
					c0.84,1.187,1.738,2.331,2.734,3.396c0.986,1.072,2.029,2.097,3.135,3.046c1.088,0.969,2.246,1.859,3.422,2.72
					c1.175,0.861,2.396,1.66,3.656,2.392c1.277,0.729,2.54,1.364,3.938,1.854c1.373,0.51,2.729,1.095,4.122,1.537l4.195,1.258
					l4.282,0.964c1.426,0.326,2.885,0.476,4.33,0.722c1.442,0.263,2.907,0.35,4.361,0.508c1.457,0.164,2.922,0.256,4.387,0.316
					c1.463,0.076,2.926,0.184,4.396,0.194c2.935,0.098,5.868,0.08,8.802,0.07c-2.934,0.084-5.867,0.176-8.808,0.151
					c-2.936-0.009-5.88-0.087-8.806-0.373c-1.466-0.143-2.937-0.218-4.389-0.47c-1.453-0.232-2.919-0.372-4.359-0.687l-4.316-0.934
					l-4.256-1.234c-1.408-0.434-2.762-1.005-4.144-1.503c-1.38-0.47-2.761-1.139-4.032-1.857c-2.584-1.447-4.975-3.214-7.18-5.177
					c-1.113-0.973-2.16-2.021-3.152-3.117c-1-1.088-1.907-2.266-2.756-3.48c-0.809-1.24-1.564-2.529-2.096-3.923
					c-0.604-1.365-0.858-2.863-0.967-4.356l-0.031-0.399l0.345,0.19l1.517,0.843l1.422,0.972c0.918,0.682,1.813,1.391,2.695,2.109
					c0.895,0.703,1.764,1.438,2.699,2.073c0.459,0.329,0.916,0.658,1.41,0.923c0.487,0.276,0.944,0.6,1.486,0.797
					c0.523,0.198,1.043,0.512,1.568,0.617c0.538,0.154,1.078,0.306,1.643,0.353c1.115,0.179,2.254,0.177,3.39,0.16
					C-32.513-33.211-30.242-33.47-27.964-33.51z"/>
			</g>
			<g>
				<path d="M65.339-25.974c-0.133,0.094-0.178-0.22-0.232-0.326l-0.15-0.466l-0.262-0.94l-0.484-1.9l-0.484-1.899l-0.259-0.945
					l-0.146-0.466c-0.052-0.134-0.122-0.353-0.2-0.385l-0.035-0.011c-1.043-5.907-4.371-11.157-8.454-15.424
					c-2.046-2.151-4.324-4.083-6.786-5.739c-2.449-1.657-5.126-3.061-7.998-3.72c-5.766-1.441-11.794-1.169-17.738-0.97
					c-5.968,0.262-12.002,0.149-17.92-0.934c-5.902-1.117-11.627-3.234-16.782-6.32c-5.159-3.09-9.724-7.096-13.644-11.623
					c-3.923-4.531-7.233-9.561-10.082-14.814c-1.399-2.643-2.73-5.32-3.898-8.07c-1.174-2.734-2.259-5.555-4.146-7.894
					c1.934,2.297,3.085,5.113,4.313,7.817c1.224,2.72,2.604,5.367,4.054,7.969c2.892,5.206,6.212,10.189,10.142,14.661
					c3.92,4.464,8.468,8.396,13.583,11.41c5.114,3.006,10.77,5.054,16.6,6.115c5.831,1.098,11.815,1.267,17.763,1.043
					c5.943-0.151,12.023-0.396,17.887,1.112c2.965,0.711,5.646,2.148,8.117,3.845c2.481,1.688,4.767,3.657,6.816,5.844
					c4.051,4.376,7.279,9.747,8.21,15.688l-0.035-0.011c0.211,0.036,0.188,0.268,0.267,0.398l0.144,0.469l0.257,0.946l0.471,1.901
					l0.475,1.901l0.258,0.945l0.146,0.47C65.161-26.19,65.212-25.883,65.339-25.974z"/>
			</g>
		</g>
		<g>
			<path d="M-0.834-10.919L-1.71-9.887c-0.299,0.338-0.564,0.704-0.891,1.018c-0.664,0.611-1.322,1.238-1.998,1.844l-2.188,1.619
				c-0.797,0.44-1.611,0.853-2.417,1.281l0.044-0.306l2.685,1.755c0.978,0.435,1.939,0.897,2.924,1.307
				c1.033,0.282,2.047,0.622,3.088,0.854c1.06,0.138,2.111,0.351,3.175,0.421c1.072,0.013,2.139,0.105,3.208,0.05
				c1.064-0.095,2.136-0.12,3.196-0.271c1.055-0.188,2.12-0.301,3.173-0.511l3.135-0.719l3.096-0.907l3.041-1.072
				c2.008-0.781,3.988-1.614,5.942-2.531c3.892-1.852,7.704-3.877,11.421-6.07c-3.628,2.342-7.354,4.548-11.254,6.42
				c-1.947,0.946-3.932,1.811-5.938,2.625L18.682-1.96l-3.11,0.958c-2.095,0.555-4.216,1.038-6.381,1.301
				C8.113,0.441,7.022,0.45,5.938,0.532C4.85,0.571,3.76,0.465,2.673,0.437C1.589,0.348,0.514,0.112-0.564-0.04
				c-1.059-0.25-2.092-0.61-3.139-0.911c-1-0.429-1.979-0.917-2.965-1.375L-9.38-4.15L-9.616-4.31l0.283-0.144
				c0.793-0.409,1.594-0.8,2.381-1.222l2.225-1.518c0.691-0.568,1.361-1.162,2.049-1.746c0.336-0.299,0.615-0.657,0.93-0.982
				L-0.834-10.919z"/>
		</g>
	</g>
	<g>
		<g>
			<g>
				<path d="M238.158-13.265c-0.015,0.383-0.032,0.761-0.101,1.139l-0.066,0.566c-0.023,0.185,0.039,0.359,0.05,0.536l-0.146-0.013
					c0.899-1.506,1.606-3.16,2.684-4.564c1.087-1.393,2.085-2.885,3.401-4.084l1.872-1.905c0.661-0.591,1.372-1.125,2.06-1.692
					c0.706-0.539,1.361-1.16,2.112-1.639l2.25-1.45c3.011-1.922,6.316-3.368,9.737-4.491c0.856-0.271,1.748-0.42,2.627-0.631
					c0.928-0.168,1.658-0.469,2.748-0.525l2.637-0.135c0.872-0.063,1.75-0.097,2.68,0.037c1.828,0.193,3.718,0.277,5.436,0.722
					c1.769,0.351,3.529,0.718,5.225,1.258c3.455,0.923,6.777,2.149,10.104,3.268c3.327,1.147,6.619,2.219,9.918,3.089l5.119,1.188
					c1.707,0.347,3.361,0.518,5.042,0.793c1.682,0.226,3.407,0.252,5.109,0.393c1.71,0.079,3.415-0.04,5.124-0.031
					c1.701-0.094,3.396-0.309,5.094-0.452c1.678-0.305,3.361-0.585,5.031-0.931c1.641-0.468,3.313-0.826,4.931-1.374
					c1.595-0.606,3.246-1.056,4.802-1.783c3.148-1.334,6.223-2.865,9.166-4.644c1.478-0.871,2.949-1.763,4.348-2.772
					c1.437-0.954,2.838-1.952,4.188-3.032c1.385-1.032,2.728-2.115,4.029-3.262c1.334-1.1,2.625-2.255,3.881-3.454
					c1.283-1.165,2.533-2.372,3.748-3.611c1.258-1.228,2.436-2.427,3.615-3.747c2.393-2.548,4.727-5.336,8.044-7.454l2.642-1.688
					l-0.242,3.09l-0.385,4.942l-0.781,4.891l-1.172,4.81l-1.538,4.7c-0.632,1.521-1.23,3.052-1.89,4.558
					c-0.747,1.466-1.45,2.954-2.234,4.396c-0.855,1.402-1.654,2.838-2.556,4.206c-0.962,1.331-1.854,2.708-2.864,3.995
					c-1.055,1.256-2.039,2.566-3.147,3.768c-1.138,1.173-2.222,2.402-3.433,3.5c-1.232,1.072-2.398,2.215-3.687,3.22
					c-1.306,0.978-2.554,2.028-3.897,2.939c-1.367,0.883-2.686,1.832-4.089,2.653c-1.427,0.785-2.813,1.627-4.259,2.359
					c-1.463,0.691-2.926,1.39-4.408,2.03l-4.533,1.72l4.391-2.028l4.24-2.297c1.394-0.798,2.721-1.702,4.082-2.548
					c1.338-0.879,2.591-1.888,3.887-2.82c1.275-0.963,2.448-2.061,3.672-3.08c1.202-1.05,2.286-2.227,3.429-3.33
					c1.12-1.133,2.114-2.383,3.19-3.549c1.041-1.2,1.957-2.503,2.939-3.751c0.938-1.278,1.758-2.641,2.647-3.953
					c0.829-1.352,1.556-2.763,2.338-4.138c0.708-1.413,1.341-2.867,2.013-4.295l1.674-4.436l1.328-4.542l0.974-4.628l0.621-4.68
					l0.288-4.713l2.401,1.406c-2.628,1.728-4.875,4.385-7.225,7.002c-1.143,1.318-2.403,2.652-3.642,3.898
					c-1.219,1.294-2.493,2.537-3.807,3.742c-1.279,1.238-2.604,2.434-3.978,3.58c-1.333,1.185-2.719,2.317-4.148,3.396
					c-1.392,1.125-2.843,2.174-4.333,3.175c-1.45,1.058-2.979,1.998-4.523,2.918c-3.061,1.888-6.309,3.485-9.637,4.867
					c-1.641,0.756-3.397,1.23-5.09,1.856c-1.719,0.57-3.493,0.948-5.233,1.427c-1.771,0.36-3.563,0.65-5.344,0.96
					c-1.802,0.147-3.604,0.362-5.407,0.452c-1.809-0.008-3.619,0.063-5.421-0.043c-1.8-0.169-3.598-0.234-5.396-0.507
					c-1.784-0.312-3.621-0.551-5.353-0.935l-5.137-1.281c-3.49-0.955-6.855-2.153-10.135-3.422c-3.3-1.228-6.543-2.539-9.856-3.535
					c-1.64-0.578-3.312-0.98-4.981-1.368c-1.68-0.494-3.322-0.591-4.982-0.843c-0.811-0.16-1.688-0.156-2.572-0.121l-2.639,0.048
					c-0.67-0.007-1.63,0.279-2.433,0.403c-0.837,0.178-1.688,0.285-2.511,0.518c-3.284,0.979-6.555,2.139-9.561,3.867l-2.261,1.288
					c-0.751,0.431-1.413,0.995-2.127,1.488c-0.698,0.515-1.423,1.001-2.095,1.547l-1.922,1.761
					c-2.596,2.332-4.679,5.157-6.516,8.145l-0.145,0.23l-0.006-0.239c-0.005-0.2-0.053-0.409-0.016-0.599l0.105-0.563
					C238.075-12.506,238.114-12.887,238.158-13.265z"/>
			</g>
			<g>
				<path d="M352.227,0.077l6.986-2.02c1.176-0.289,2.308-0.681,3.43-1.078l1.688-0.581c0.574-0.159,1.08-0.476,1.621-0.706
					l1.596-0.746c0.5-0.261,1.133-0.468,1.52-0.767c1.072-0.657,1.863-1.311,2.901-2.04c1.002-0.712,2.03-1.456,3.252-2.053
					c0.589-0.321,1.239-0.566,1.929-0.762c0.662-0.254,1.438-0.254,2.156-0.361l2.413-0.354l-0.962,2.348
					c-0.594,1.457-1.036,3.02-1.779,4.393c-0.758,1.359-1.396,2.822-2.314,4.066c-0.865,1.282-1.712,2.596-2.72,3.754
					c-0.984,1.18-1.919,2.42-3.011,3.5c-1.076,1.088-2.057,2.285-3.229,3.271c-1.151,1.008-2.241,2.086-3.44,3.034l-3.594,2.841
					l-3.766,2.602l-3.916,2.365c-1.305,0.791-2.695,1.434-4.052,2.127c-1.341,0.723-2.794,1.234-4.189,1.846
					c-1.386,0.635-2.859,1.07-4.315,1.531c-1.439,0.514-2.947,0.817-4.438,1.144c-1.473,0.39-3.019,0.485-4.533,0.643
					c-1.504,0.245-3.059,0.034-4.566,0.006c-0.757,0.021-1.508-0.182-2.245-0.342l-2.206-0.484c1.52,0.019,2.986,0.238,4.465,0.087
					c1.471-0.189,2.938-0.198,4.368-0.599c1.441-0.319,2.87-0.595,4.259-1.112c1.396-0.446,2.793-0.865,4.131-1.487
					c1.349-0.587,2.719-1.094,4.016-1.791c1.301-0.683,2.652-1.251,3.895-2.039c1.252-0.771,2.562-1.429,3.787-2.237l3.67-2.426
					l3.536-2.606l3.413-2.769c1.135-0.925,2.162-1.969,3.249-2.945c1.103-0.963,2.062-2.06,3.094-3.089
					c1.06-1.012,1.937-2.163,2.884-3.264c0.988-1.079,1.744-2.3,2.609-3.454c0.914-1.131,1.518-2.418,2.273-3.637
					c0.732-1.229,1.146-2.567,1.75-3.847l1.453,1.993c-0.47,0.085-0.939-0.014-1.428,0.155c-0.484,0.1-0.977,0.239-1.471,0.473
					c-0.988,0.397-1.982,1.006-2.992,1.63c-0.978,0.611-2.15,1.378-3.205,1.885c-0.633,0.369-1.195,0.47-1.792,0.719l-1.763,0.633
					c-0.594,0.186-1.158,0.474-1.771,0.576l-1.811,0.395c-1.205,0.27-2.4,0.531-3.608,0.68C357.051-0.5,354.645-0.192,352.227,0.077
					z"/>
			</g>
			<g>
				<path d="M325.667,28.386c2.035,1.016,3.979,2.224,6.012,3.235c1.015,0.501,2.047,0.99,3.13,1.304
					c0.532,0.196,1.085,0.289,1.638,0.381c0.524,0.129,1.125,0.067,1.684,0.116c0.576,0.054,1.125-0.042,1.683-0.083
					c0.558-0.03,1.116-0.127,1.673-0.23c1.117-0.172,2.217-0.467,3.324-0.716c1.107-0.273,2.219-0.529,3.344-0.751l1.701-0.27
					l1.727-0.109l0.396-0.028l-0.198,0.35c-0.736,1.3-1.607,2.543-2.737,3.521c-1.077,1.032-2.312,1.872-3.577,2.649
					c-1.283,0.734-2.605,1.406-3.979,1.964c-1.365,0.564-2.763,1.066-4.182,1.466c-2.835,0.833-5.753,1.404-8.706,1.603
					c-1.464,0.106-2.993,0.119-4.442-0.045c-1.463-0.143-2.929-0.206-4.387-0.416l-4.369-0.708l-4.304-1.005
					c-1.435-0.332-2.821-0.836-4.233-1.246c-1.42-0.398-2.78-0.957-4.166-1.455c-2.766-0.994-5.463-2.186-8.115-3.434
					c-2.668-1.236-5.282-2.578-7.898-3.907c2.651,1.267,5.295,2.538,7.989,3.704c1.33,0.619,2.698,1.149,4.055,1.708
					c1.349,0.574,2.708,1.119,4.096,1.591c1.382,0.486,2.743,1.032,4.159,1.413c1.408,0.397,2.793,0.887,4.225,1.201l4.279,0.965
					l4.329,0.663c1.452,0.197,2.923,0.244,4.383,0.375c1.471,0.154,2.888,0.121,4.354,0.01c1.45-0.122,2.896-0.32,4.329-0.596
					c1.432-0.271,2.857-0.581,4.258-0.989c1.408-0.385,2.786-0.867,4.137-1.411c1.356-0.534,2.662-1.186,3.928-1.896
					c1.24-0.747,2.457-1.56,3.512-2.551c1.104-0.944,1.949-2.13,2.668-3.371l0.202,0.324l-1.681,0.095l-1.672,0.247
					c-1.112,0.211-2.22,0.458-3.327,0.719c-1.112,0.24-2.22,0.526-3.356,0.693c-0.563,0.097-1.126,0.193-1.706,0.22
					c-0.577,0.036-1.16,0.125-1.723,0.068c-0.573-0.053-1.13,0.009-1.716-0.143c-0.569-0.11-1.138-0.221-1.67-0.434
					c-1.097-0.347-2.121-0.87-3.131-1.397C329.579,30.706,327.678,29.454,325.667,28.386z"/>
			</g>
			<g>
				<path d="M238.118-4.757c0.08,0.141,0.251-0.121,0.348-0.193l0.331-0.357l0.636-0.742l1.245-1.517l1.242-1.513l0.638-0.746
					l0.329-0.359c0.129-0.083,0.212-0.302,0.413-0.242l-0.039-0.007c3.385-4.97,8.603-8.442,14.135-10.659
					c2.791-1.097,5.699-1.9,8.664-2.365c2.967-0.476,5.998-0.624,8.986,0.003c5.944,1.15,11.334,3.97,16.641,6.655
					c5.281,2.748,10.755,5.161,16.494,6.667c5.725,1.538,11.713,2.109,17.622,1.581c5.912-0.532,11.707-2.142,17.161-4.496
					c5.465-2.354,10.6-5.437,15.441-8.907c2.42-1.729,4.809-3.528,7.076-5.464c2.271-1.916,4.513-3.97,7.246-5.22
					c-2.703,1.309-4.891,3.397-7.123,5.363c-2.237,1.985-4.584,3.836-6.98,5.621c-4.828,3.526-9.973,6.654-15.459,9.068
					c-5.479,2.411-11.32,4.079-17.301,4.661c-5.98,0.579-12.062,0.042-17.874-1.476c-5.813-1.551-11.312-4.04-16.593-6.834
					c-5.286-2.721-10.617-5.552-16.443-6.719c-2.881-0.631-5.904-0.513-8.826-0.06c-2.934,0.44-5.818,1.215-8.588,2.283
					c-5.518,2.109-10.773,5.426-14.242,10.32l-0.039-0.007c-0.084-0.007-0.236,0.163-0.342,0.261l-0.33,0.357l-0.644,0.74
					l-1.251,1.508l-1.25,1.508l-0.641,0.74l-0.334,0.354C238.374-4.878,238.198-4.616,238.118-4.757z"/>
			</g>
		</g>
		<g>
			<path d="M291.469,37.185l0.396,1.292c0.145,0.427,0.245,0.873,0.426,1.284c0.369,0.822,0.719,1.645,1.102,2.457l1.357,2.32
				c0.529,0.719,1.087,1.414,1.629,2.121l0.19,0.248l-0.281,0.046l-3.229,0.491c-1.09-0.012-2.185,0.012-3.27-0.03
				c-1.077-0.175-2.167-0.292-3.23-0.52c-1.039-0.322-2.106-0.568-3.126-0.952c-0.991-0.443-2.024-0.807-2.991-1.313
				c-0.945-0.536-1.924-1.015-2.842-1.602c-1.844-1.165-3.551-2.509-5.211-3.908l-2.395-2.197l-2.276-2.32
				c-1.465-1.595-2.888-3.225-4.243-4.912c-2.723-3.365-5.144-6.956-7.418-10.623c2.422,3.575,4.999,7.04,7.719,10.377
				c1.369,1.661,2.809,3.268,4.282,4.83l2.291,2.274l2.405,2.143l2.527,1.994c0.859,0.638,1.775,1.198,2.649,1.821
				c0.89,0.59,1.851,1.071,2.771,1.612c0.944,0.511,1.946,0.881,2.918,1.328c0.991,0.393,2.033,0.645,3.053,0.977
				c1.037,0.235,2.104,0.36,3.15,0.552c1.068,0.051,2.137,0.043,3.205,0.069l3.176-0.437l-0.088,0.293
				c-0.549-0.729-1.107-1.453-1.639-2.191l-1.283-2.399c-0.351-0.835-0.678-1.681-1.016-2.519c-0.156-0.423-0.242-0.868-0.369-1.301
				L291.469,37.185z"/>
		</g>
	</g>
	<path d="M15.505,275.123H-18.12v98.774h-31.805v-98.774h-106.023v-33.431L-39.823,56.087h21.702v190.598h33.625V275.123z
		 M-49.925,246.685V104.421l-89.653,142.264H-49.925z"/>
	<path d="M240.378-4.345c11.408,13.73,19.923,29.817,25.541,48.271c5.615,18.45,8.424,37.755,8.424,57.9
		c0,24.245-3.477,45.952-10.433,65.114c-6.952,19.168-16.493,35.076-28.612,47.737c-12.48,13.013-27.277,22.819-44.395,29.411
		c-17.111,6.598-36.193,9.896-57.227,9.896c-23.001,0-43.502-3.838-61.51-11.499c-18.01-7.663-32.625-18.185-43.857-31.559
		C16.545,197.023,7.76,180.759,1.968,162.13c-5.795-18.631-8.686-38.73-8.686-60.304c0-21.219,2.808-40.739,8.418-58.57
		C7.316,25.434,16.096,9.294,28.042-5.146c11.406-13.906,26.115-24.87,44.125-32.896c18.008-8.021,38.596-12.035,61.777-12.035
		c24.422,0,45.371,4.106,62.846,12.303C214.26-29.565,228.789-18.425,240.378-4.345z M215.241,101.829
		c0-42.431-7.268-75.329-21.796-98.684c-14.536-23.354-34.274-35.031-59.237-35.031c-25.314,0-45.283,11.677-59.901,35.031
		c-14.62,23.357-21.929,56.253-21.929,98.684c0,40.29,6.996,72.691,20.992,97.207c13.992,24.513,34.098,36.768,60.307,36.768
		c26.203,0,46.351-12.255,60.437-36.768C208.196,174.521,215.241,142.117,215.241,101.829z"/>
</g>
</svg>
