<?xml version="1.0" encoding="utf-8"?>
<!-- Generator: Adobe Illustrator 16.0.0, SVG Export Plug-In . SVG Version: 6.00 Build 0)  -->
<!DOCTYPE svg PUBLIC "-//W3C//DTD SVG 1.1//EN" "http://www.w3.org/Graphics/SVG/1.1/DTD/svg11.dtd">
<svg version="1.1" id="Layer_1" xmlns="http://www.w3.org/2000/svg" xmlns:xlink="http://www.w3.org/1999/xlink" x="0px" y="0px"
	 width="768.79px" height="513.366px" viewBox="-206.613 -144.171 768.79 513.366"
	 enable-background="new -206.613 -144.171 768.79 513.366" xml:space="preserve">
<g>
	<path d="M-34.423,270.564h-33.771v97.942h-31.941v-97.942h-106.477v-33.146L-89.987,53.37h21.793v189.002h33.773v28.192H-34.423z
		 M-100.136,242.372V101.294l-90.035,141.077H-100.136z"/>
	<g>
		<path d="M48.388,358.756c0,0,1.707-0.979,4.693-2.692c2.993-1.69,7.273-4.102,12.408-7.002c2.561-1.453,5.33-3.032,8.263-4.693
			c2.938-1.654,5.941-3.568,9.141-5.379c3.176-1.85,6.487-3.715,9.738-5.792c3.278-2.034,6.61-4.101,9.935-6.17
			c3.286-2.132,6.574-4.261,9.814-6.354c3.272-2.045,6.348-4.264,9.344-6.395c2.954-2.169,5.965-4.073,8.648-6.104
			c2.682-2.039,5.214-3.964,7.555-5.742c1.174-0.888,2.299-1.737,3.367-2.546c1.031-0.851,2.016-1.659,2.938-2.42
			c1.84-1.529,3.443-2.859,4.766-3.958c2.674-2.172,4.197-3.416,4.197-3.416s-1.398,1.385-3.842,3.803
			c-1.238,1.201-2.737,2.66-4.459,4.33c-0.867,0.835-1.787,1.723-2.762,2.66c-1.029,0.864-2.109,1.775-3.235,2.728
			c-2.268,1.898-4.727,3.955-7.321,6.132c-2.607,2.17-5.511,4.254-8.487,6.445c-2.974,2.188-6.04,4.469-9.298,6.583
			c-3.226,2.156-6.498,4.351-9.774,6.542c-3.378,2.024-6.759,4.052-10.085,6.05c-3.301,2.033-6.654,3.853-9.876,5.665
			c-3.218,1.807-6.338,3.54-9.359,5.064c-3.016,1.531-5.865,2.979-8.499,4.316c-2.619,1.366-5.063,2.526-7.245,3.517
			c-2.171,1.005-4.069,1.884-5.631,2.606C50.182,357.953,48.388,358.756,48.388,358.756z"/>
	</g>
	<g>
		<path d="M131.514,327.438c0,0,1.066-0.185,2.944-0.442c0.951-0.064,2.038-0.42,3.297-0.712c1.257-0.252,2.628-0.8,4.14-1.286
			c1.521-0.451,3.061-1.275,4.754-1.92c1.614-0.854,3.369-1.615,5.077-2.647c0.856-0.495,1.731-1.002,2.613-1.512
			c0.862-0.557,1.729-1.119,2.604-1.688c1.758-1.119,3.47-2.391,5.173-3.65c1.69-1.283,3.395-2.563,4.98-3.938
			c1.621-1.324,3.157-2.701,4.66-4.022c1.452-1.371,2.901-2.66,4.21-3.952c1.292-1.304,2.569-2.496,3.659-3.668
			c2.246-2.303,4.086-4.269,5.322-5.692c1.232-1.421,1.977-2.215,1.977-2.215s-0.544,0.932-1.562,2.534
			c-0.495,0.809-1.162,1.74-1.918,2.831c-0.735,1.098-1.626,2.296-2.646,3.566c-1.992,2.582-4.529,5.421-7.397,8.326
			c-1.485,1.398-2.955,2.926-4.614,4.284c-1.602,1.427-3.328,2.771-5.047,4.113c-1.776,1.272-3.551,2.552-5.391,3.683
			c-0.924,0.557-1.835,1.105-2.738,1.654c-0.94,0.49-1.867,0.974-2.778,1.448c-1.792,1.002-3.7,1.649-5.415,2.402
			c-1.809,0.568-3.46,1.236-5.088,1.544c-1.604,0.369-3.065,0.712-4.42,0.791c-1.337,0.117-2.482,0.316-3.426,0.25
			C132.599,327.494,131.514,327.438,131.514,327.438z"/>
	</g>
	<g>
		<path d="M401.7,353.922c0,0,1.707-0.984,4.693-2.695c2.994-1.692,7.275-4.104,12.407-7.002c2.563-1.453,5.329-3.032,8.265-4.696
			c2.938-1.652,5.941-3.568,9.141-5.375c3.176-1.853,6.486-3.719,9.738-5.796c3.279-2.033,6.609-4.099,9.935-6.167
			c3.287-2.133,6.574-4.26,9.814-6.355c3.27-2.045,6.346-4.265,9.341-6.395c2.957-2.171,5.97-4.075,8.648-6.102
			c2.684-2.037,5.217-3.968,7.559-5.746c1.172-0.887,2.297-1.731,3.367-2.543c1.032-0.853,2.012-1.661,2.936-2.423
			c1.841-1.529,3.445-2.856,4.766-3.955c2.676-2.174,4.2-3.416,4.2-3.416s-1.399,1.383-3.843,3.803
			c-1.238,1.198-2.738,2.659-4.463,4.33c-0.864,0.835-1.785,1.723-2.76,2.657c-1.028,0.865-2.109,1.778-3.237,2.729
			c-2.268,1.9-4.724,3.957-7.321,6.131c-2.604,2.171-5.508,4.254-8.484,6.443c-2.973,2.193-6.043,4.473-9.297,6.588
			c-3.229,2.156-6.502,4.35-9.778,6.542c-3.378,2.024-6.759,4.052-10.081,6.047c-3.302,2.033-6.653,3.855-9.879,5.666
			c-3.217,1.808-6.334,3.539-9.357,5.065c-3.018,1.532-5.865,2.979-8.499,4.315c-2.619,1.368-5.063,2.524-7.245,3.516
			c-2.174,1.007-4.072,1.89-5.631,2.61C403.493,353.108,401.7,353.922,401.7,353.922z"/>
	</g>
	<g>
		<path d="M484.824,322.598c0,0,1.066-0.185,2.944-0.44c0.951-0.063,2.039-0.421,3.296-0.714c1.26-0.252,2.628-0.798,4.14-1.283
			c1.525-0.451,3.062-1.277,4.755-1.922c1.611-0.853,3.369-1.614,5.075-2.647c0.857-0.496,1.733-1,2.615-1.512
			c0.861-0.553,1.729-1.12,2.604-1.688c1.758-1.115,3.47-2.389,5.174-3.648c1.69-1.286,3.393-2.566,4.978-3.938
			c1.626-1.327,3.161-2.703,4.664-4.025c1.45-1.371,2.9-2.66,4.21-3.951c1.292-1.305,2.566-2.492,3.657-3.669
			c2.248-2.303,4.089-4.265,5.325-5.69c1.231-1.42,1.976-2.217,1.976-2.217s-0.543,0.935-1.561,2.535
			c-0.496,0.809-1.162,1.74-1.918,2.832c-0.735,1.099-1.629,2.297-2.65,3.565c-1.988,2.583-4.527,5.423-7.396,8.326
			c-1.483,1.399-2.953,2.927-4.612,4.283c-1.605,1.43-3.33,2.771-5.051,4.113c-1.774,1.271-3.547,2.554-5.389,3.683
			c-0.922,0.559-1.838,1.107-2.736,1.655c-0.939,0.489-1.869,0.972-2.778,1.447c-1.792,1.002-3.7,1.647-5.419,2.403
			c-1.805,0.567-3.458,1.235-5.084,1.543c-1.604,0.369-3.067,0.712-4.42,0.791c-1.337,0.12-2.486,0.319-3.428,0.249
			C485.908,322.651,484.824,322.598,484.824,322.598z"/>
	</g>
	<g>
		<g>
			<g>
				<path d="M18.284-38.385c-0.123,0.359-0.244,0.721-0.322,1.095l-0.144,0.557c-0.044,0.188-0.182,0.354-0.273,0.532l-0.111,0.215
					l-0.026-0.268c-0.382-3.489-1.055-6.932-2.4-10.154l-0.982-2.409c-0.378-0.783-0.826-1.532-1.23-2.297
					c-0.434-0.75-0.791-1.546-1.285-2.258l-1.491-2.131c-1.977-2.847-4.433-5.299-6.98-7.591c-0.648-0.563-1.371-1.027-2.048-1.544
					c-0.675-0.455-1.414-1.124-2.028-1.405l-2.363-1.172c-0.783-0.413-1.574-0.791-2.38-0.991c-1.609-0.483-3.13-1.099-4.857-1.371
					c-1.68-0.363-3.357-0.716-5.093-0.896c-3.419-0.519-6.911-0.719-10.419-1.025c-3.508-0.258-7.063-0.618-10.626-1.248
					l-5.186-1.042c-1.733-0.396-3.499-0.968-5.243-1.451c-1.74-0.524-3.396-1.238-5.094-1.851c-1.67-0.678-3.279-1.518-4.918-2.283
					c-1.592-0.854-3.127-1.82-4.688-2.727c-1.482-1.038-2.977-2.066-4.421-3.151c-1.371-1.181-2.813-2.282-4.119-3.531
					c-1.263-1.288-2.647-2.474-3.799-3.857c-2.423-2.678-4.673-5.512-6.626-8.524c-0.997-1.496-1.984-3-2.841-4.574
					c-0.913-1.547-1.782-3.117-2.555-4.727c-0.83-1.587-1.599-3.202-2.295-4.844c-0.751-1.623-1.437-3.27-2.058-4.935
					c-0.676-1.651-1.292-3.324-1.838-5.015c-0.587-1.656-1.156-3.402-1.623-5.086c-1.005-3.368-1.9-6.732-3.528-9.425l2.77-0.235
					l-1.755,4.38l-1.443,4.498l-1.1,4.597l-0.747,4.672l-0.387,4.726c0,1.576-0.059,3.16-0.025,4.74
					c0.121,1.576,0.171,3.163,0.343,4.739c0.236,1.564,0.396,3.147,0.695,4.709c0.355,1.545,0.623,3.115,1.053,4.644
					c0.474,1.519,0.839,3.072,1.358,4.575c0.563,1.486,1.037,3.017,1.675,4.476c0.672,1.447,1.257,2.941,1.999,4.356
					c0.771,1.399,1.472,2.846,2.303,4.215c0.87,1.345,1.684,2.73,2.597,4.052l2.847,3.892l3.098,3.711l-3.356-3.492
					c-1.063-1.217-2.084-2.476-3.116-3.726c-0.988-1.28-1.885-2.635-2.835-3.952c-0.913-1.344-1.701-2.766-2.561-4.148
					c-0.828-1.403-1.506-2.887-2.268-4.329c-0.729-1.457-1.295-2.988-1.952-4.487c-0.621-1.51-1.075-3.084-1.602-4.633
					c-0.489-1.559-0.815-3.168-1.229-4.752c-0.36-1.596-0.581-3.224-0.88-4.836c-0.227-1.625-0.334-3.264-0.509-4.899
					c-0.093-1.638-0.093-3.283-0.136-4.927c0.046-1.641,0.162-3.284,0.239-4.93l0.624-4.906l1.003-4.844l1.389-4.755l1.764-4.63
					l1.107-2.901l1.665,2.664c2.083,3.333,3.001,6.851,4.077,10.176c0.504,1.699,1.054,3.286,1.662,4.936
					c0.566,1.642,1.177,3.267,1.838,4.868c0.615,1.62,1.291,3.218,2.022,4.782c0.688,1.591,1.44,3.148,2.247,4.671
					c0.763,1.555,1.599,3.061,2.487,4.537c0.829,1.512,1.779,2.945,2.742,4.369c1.898,2.858,4.017,5.564,6.292,8.114
					c1.091,1.325,2.395,2.438,3.577,3.669c1.228,1.189,2.585,2.228,3.869,3.353c1.357,1.027,2.761,2.004,4.149,2.995
					c1.471,0.858,2.908,1.778,4.406,2.594c1.55,0.722,3.041,1.559,4.619,2.221c1.594,0.6,3.168,1.314,4.781,1.83
					c1.643,0.474,3.217,1.03,4.904,1.445l5.13,1.119c3.356,0.629,6.796,1.074,10.286,1.458c3.485,0.416,7.015,0.728,10.53,1.372
					c1.768,0.24,3.519,0.664,5.261,1.104c1.744,0.331,3.492,1.069,5.22,1.672c0.901,0.277,1.679,0.688,2.438,1.116l2.326,1.249
					c0.959,0.515,1.494,1.1,2.259,1.647c0.706,0.571,1.445,1.084,2.104,1.698c2.609,2.482,4.981,5.203,6.881,8.229l1.416,2.278
					c0.469,0.756,0.793,1.595,1.197,2.388c0.379,0.805,0.797,1.596,1.141,2.413l0.879,2.52c0.67,1.649,0.935,3.422,1.321,5.147
					c0.369,1.732,0.302,3.531,0.472,5.277l-0.139-0.051c0.086-0.156,0.218-0.282,0.273-0.467l0.184-0.537
					C17.985-37.684,18.135-38.034,18.284-38.385z"/>
			</g>
			<g>
				<path d="M-90.507-75.176c-2.07-1.277-4.112-2.581-6.148-3.922c-1.029-0.651-1.998-1.398-2.969-2.157l-1.469-1.131
					c-0.514-0.354-0.897-0.857-1.356-1.276l-1.321-1.33c-0.434-0.479-0.896-0.812-1.31-1.418c-0.738-0.906-1.467-2.101-2.09-3.072
					c-0.651-0.996-1.282-1.973-2.007-2.756c-0.348-0.422-0.735-0.762-1.131-1.057c-0.363-0.363-0.836-0.479-1.221-0.754l2.167-1.178
					c-0.006,1.418-0.202,2.805-0.067,4.228c0.164,1.424,0.156,2.844,0.498,4.263c0.283,1.412,0.448,2.843,0.881,4.237
					c0.382,1.399,0.686,2.817,1.202,4.184c0.498,1.373,0.892,2.772,1.477,4.116c0.565,1.349,1.046,2.73,1.679,4.054l1.893,3.961
					l2.087,3.876l2.277,3.762c0.76,1.258,1.661,2.412,2.461,3.644c0.794,1.248,1.763,2.342,2.65,3.514
					c0.878,1.185,1.897,2.229,2.86,3.337c0.941,1.141,2.025,2.112,3.098,3.117c1.029,1.061,2.205,1.923,3.371,2.824
					c1.119,0.977,2.438,1.614,3.691,2.412c1.27,0.775,2.693,1.2,4.072,1.833l-2.2-0.507c-0.738-0.171-1.499-0.31-2.176-0.651
					c-1.375-0.617-2.869-1.094-4.122-1.964c-1.305-0.789-2.658-1.535-3.823-2.52c-1.208-0.933-2.443-1.851-3.517-2.931
					c-1.121-1.041-2.268-2.064-3.248-3.233c-0.996-1.149-2.093-2.232-2.991-3.461c-0.929-1.208-1.913-2.388-2.751-3.658
					l-2.529-3.814l-2.291-3.965l-2.027-4.104c-0.676-1.369-1.204-2.813-1.813-4.216c-0.636-1.393-1.008-2.895-1.521-4.342
					c-0.522-1.443-0.832-2.958-1.219-4.45c-0.422-1.478-0.616-3.032-0.852-4.561c-0.299-1.518-0.244-3.11-0.352-4.665
					c-0.08-1.557,0.189-3.157,0.273-4.729l0.143-2.533l2.031,1.356c0.605,0.407,1.303,0.734,1.792,1.25
					c0.538,0.471,1.026,0.975,1.421,1.517c0.844,1.063,1.456,2.175,2.059,3.245c0.623,1.104,1.061,2.035,1.748,3.091
					c0.219,0.43,0.702,0.891,1.036,1.342l1.125,1.359c0.396,0.438,0.713,0.94,1.162,1.332l1.277,1.249
					c0.845,0.837,1.702,1.676,2.644,2.444L-90.507-75.176z"/>
			</g>
			<g>
				<path d="M-78.631-38.215c-2.277,0.098-4.531,0.416-6.81,0.516c-1.137,0.047-2.286,0.077-3.428-0.077
					c-0.574-0.034-1.135-0.174-1.697-0.321c-0.592-0.115-1.066-0.409-1.607-0.606c-0.535-0.19-1.023-0.519-1.529-0.797
					c-0.512-0.274-0.981-0.602-1.447-0.934c-0.959-0.633-1.835-1.366-2.738-2.061c-0.888-0.712-1.785-1.41-2.698-2.074l-1.407-0.942
					l-1.475-0.803l0.316-0.206c0.123,1.426,0.375,2.858,0.973,4.187c0.527,1.346,1.275,2.601,2.077,3.807
					c0.845,1.185,1.746,2.331,2.74,3.396c0.983,1.074,2.024,2.097,3.134,3.046c1.09,0.971,2.245,1.863,3.423,2.72
					c1.17,0.864,2.393,1.66,3.657,2.394c1.276,0.729,2.539,1.365,3.938,1.854c1.373,0.509,2.729,1.094,4.122,1.537l4.194,1.258
					l4.28,0.964c1.43,0.326,2.889,0.477,4.334,0.724c1.444,0.258,2.907,0.349,4.364,0.506c1.453,0.165,2.918,0.253,4.379,0.317
					c1.469,0.073,2.934,0.182,4.399,0.193c2.933,0.096,5.866,0.08,8.802,0.069c-2.936,0.084-5.869,0.176-8.807,0.151
					c-2.936-0.009-5.881-0.085-8.811-0.371c-1.463-0.143-2.932-0.22-4.383-0.471c-1.454-0.233-2.926-0.375-4.362-0.691l-4.319-0.932
					l-4.25-1.23c-1.41-0.433-2.763-1.007-4.146-1.504c-1.378-0.468-2.76-1.142-4.033-1.857c-2.582-1.449-4.974-3.215-7.18-5.177
					c-1.11-0.974-2.156-2.02-3.15-3.119c-0.999-1.089-1.906-2.263-2.756-3.478c-0.809-1.242-1.564-2.529-2.099-3.922
					c-0.6-1.369-0.854-2.866-0.968-4.36l-0.029-0.4l0.343,0.193l1.521,0.843l1.424,0.969c0.916,0.684,1.811,1.393,2.691,2.109
					c0.896,0.703,1.762,1.44,2.697,2.074c0.462,0.329,0.918,0.659,1.41,0.925c0.489,0.275,0.953,0.599,1.489,0.796
					c0.524,0.195,1.041,0.509,1.569,0.617c0.535,0.154,1.078,0.306,1.645,0.352c1.109,0.181,2.254,0.18,3.388,0.162
					C-83.177-37.912-80.905-38.17-78.631-38.215z"/>
			</g>
			<g>
				<path d="M14.675-30.677c-0.133,0.095-0.178-0.219-0.236-0.324l-0.146-0.466l-0.26-0.942l-0.488-1.9l-0.486-1.898l-0.256-0.946
					l-0.145-0.466c-0.051-0.134-0.123-0.354-0.203-0.383l-0.035-0.01c-1.04-5.907-4.372-11.157-8.45-15.424
					c-2.048-2.153-4.326-4.085-6.786-5.74c-2.449-1.659-5.131-3.06-7.998-3.72c-5.771-1.445-11.795-1.169-17.742-0.971
					c-5.969,0.258-12,0.148-17.918-0.934c-5.906-1.113-11.629-3.234-16.787-6.319c-5.159-3.088-9.719-7.097-13.641-11.623
					c-3.925-4.534-7.234-9.562-10.082-14.814c-1.402-2.641-2.729-5.318-3.897-8.071c-1.177-2.734-2.259-5.556-4.143-7.895
					c1.93,2.3,3.077,5.115,4.31,7.82c1.227,2.719,2.604,5.366,4.057,7.968c2.887,5.208,6.209,10.19,10.138,14.661
					c3.919,4.464,8.469,8.396,13.586,11.412c5.111,3.006,10.77,5.052,16.596,6.115c5.833,1.094,11.818,1.264,17.763,1.038
					c5.944-0.149,12.027-0.396,17.886,1.116c2.969,0.71,5.649,2.145,8.121,3.844c2.479,1.691,4.765,3.659,6.814,5.846
					c4.055,4.373,7.281,9.747,8.21,15.685l-0.035-0.01c0.212,0.034,0.189,0.269,0.269,0.399l0.143,0.469l0.255,0.943l0.475,1.905
					l0.475,1.899l0.254,0.945l0.148,0.469C14.499-30.896,14.542-30.583,14.675-30.677z"/>
			</g>
		</g>
		<g>
			<path d="M-51.498-15.622l-0.873,1.033c-0.302,0.336-0.563,0.705-0.892,1.016c-0.663,0.61-1.322,1.239-2,1.844l-2.189,1.619
				c-0.79,0.44-1.607,0.852-2.415,1.28l0.044-0.306l2.685,1.758c0.979,0.431,1.939,0.896,2.927,1.305
				c1.029,0.282,2.043,0.62,3.085,0.852c1.06,0.138,2.109,0.353,3.177,0.426c1.068,0.008,2.137,0.103,3.205,0.046
				c1.067-0.095,2.136-0.119,3.199-0.27c1.05-0.189,2.118-0.302,3.168-0.515l3.138-0.716l3.095-0.907l3.042-1.074
				c2.004-0.781,3.988-1.613,5.941-2.527c3.893-1.854,7.7-3.882,11.423-6.073c-3.63,2.341-7.359,4.546-11.256,6.421
				c-1.946,0.945-3.929,1.813-5.936,2.623l-3.05,1.121l-3.108,0.96c-2.102,0.555-4.219,1.038-6.381,1.299
				c-1.081,0.143-2.17,0.153-3.255,0.234c-1.084,0.04-2.179-0.071-3.267-0.096c-1.084-0.089-2.157-0.326-3.234-0.479
				c-1.061-0.244-2.094-0.609-3.14-0.908c-1-0.432-1.977-0.917-2.964-1.375l-2.714-1.824l-0.236-0.159l0.282-0.145
				c0.793-0.409,1.596-0.796,2.385-1.221l2.22-1.517c0.692-0.572,1.362-1.163,2.054-1.747c0.334-0.299,0.614-0.656,0.925-0.98
				L-51.498-15.622z"/>
		</g>
	</g>
	<g>
		<g>
			<g>
				<path d="M187.493-17.967c-0.018,0.381-0.03,0.761-0.099,1.142l-0.067,0.563c-0.027,0.186,0.043,0.359,0.053,0.535l-0.15-0.009
					c0.903-1.507,1.607-3.159,2.687-4.566c1.091-1.394,2.083-2.885,3.402-4.086l1.872-1.898c0.661-0.595,1.37-1.131,2.059-1.698
					c0.707-0.54,1.362-1.158,2.112-1.642l2.25-1.448c3.012-1.922,6.316-3.368,9.738-4.491c0.857-0.273,1.746-0.42,2.628-0.635
					c0.925-0.167,1.657-0.467,2.748-0.521l2.631-0.134c0.876-0.063,1.755-0.099,2.687,0.036c1.822,0.193,3.71,0.277,5.435,0.721
					c1.761,0.353,3.522,0.721,5.219,1.26c3.461,0.924,6.784,2.15,10.106,3.267c3.326,1.146,6.618,2.218,9.92,3.09l5.117,1.185
					c1.706,0.346,3.366,0.518,5.045,0.794c1.679,0.225,3.409,0.252,5.106,0.395c1.711,0.079,3.418-0.041,5.123-0.031
					c1.703-0.097,3.399-0.313,5.098-0.458c1.676-0.301,3.363-0.582,5.027-0.928c1.645-0.466,3.314-0.826,4.932-1.373
					c1.599-0.607,3.252-1.056,4.801-1.784c3.153-1.333,6.225-2.864,9.166-4.642c1.477-0.876,2.951-1.764,4.348-2.773
					c1.438-0.955,2.839-1.954,4.187-3.035c1.386-1.03,2.73-2.115,4.031-3.261c1.337-1.099,2.628-2.255,3.879-3.453
					c1.283-1.165,2.532-2.372,3.75-3.608c1.259-1.232,2.435-2.431,3.615-3.749c2.391-2.549,4.729-5.335,8.042-7.454l2.643-1.688
					l-0.243,3.089l-0.381,4.941l-0.78,4.891l-1.172,4.811l-1.537,4.7c-0.633,1.521-1.23,3.052-1.89,4.556
					c-0.747,1.469-1.454,2.953-2.238,4.396c-0.853,1.403-1.653,2.839-2.552,4.21c-0.964,1.332-1.854,2.708-2.865,3.993
					c-1.055,1.255-2.039,2.567-3.144,3.766c-1.14,1.177-2.224,2.404-3.437,3.501c-1.23,1.071-2.4,2.213-3.683,3.221
					c-1.307,0.979-2.555,2.026-3.903,2.94c-1.364,0.882-2.683,1.833-4.088,2.653c-1.424,0.785-2.813,1.624-4.261,2.358
					c-1.462,0.689-2.925,1.387-4.406,2.031l-4.531,1.719l4.392-2.028l4.24-2.296c1.389-0.8,2.72-1.705,4.078-2.548
					c1.343-0.882,2.594-1.887,3.892-2.821c1.274-0.963,2.443-2.061,3.669-3.081c1.206-1.047,2.284-2.226,3.432-3.33
					c1.114-1.133,2.11-2.384,3.189-3.546c1.042-1.203,1.955-2.506,2.936-3.753c0.941-1.278,1.764-2.642,2.646-3.956
					c0.833-1.35,1.555-2.761,2.339-4.135c0.712-1.416,1.342-2.87,2.016-4.298l1.673-4.433l1.33-4.542l0.97-4.629l0.624-4.678
					l0.289-4.714l2.397,1.403c-2.628,1.73-4.872,4.39-7.225,7.005c-1.143,1.318-2.399,2.652-3.639,3.899
					c-1.222,1.293-2.493,2.537-3.806,3.741c-1.281,1.239-2.602,2.435-3.981,3.58c-1.33,1.186-2.716,2.318-4.148,3.395
					c-1.389,1.125-2.843,2.172-4.327,3.178c-1.455,1.056-2.985,1.996-4.527,2.917c-3.059,1.888-6.305,3.481-9.64,4.864
					c-1.641,0.756-3.396,1.232-5.089,1.859c-1.715,0.568-3.489,0.946-5.232,1.428c-1.773,0.359-3.56,0.65-5.342,0.955
					c-1.805,0.152-3.603,0.363-5.407,0.456c-1.808-0.009-3.621,0.062-5.423-0.044c-1.799-0.17-3.594-0.233-5.391-0.506
					c-1.783-0.314-3.624-0.55-5.355-0.937l-5.133-1.278c-3.494-0.96-6.855-2.155-10.14-3.423c-3.299-1.226-6.542-2.54-9.853-3.536
					c-1.644-0.578-3.316-0.98-4.986-1.37c-1.678-0.492-3.322-0.589-4.982-0.839c-0.806-0.164-1.688-0.157-2.569-0.119l-2.638,0.046
					c-0.673-0.009-1.631,0.277-2.434,0.401c-0.836,0.176-1.688,0.285-2.514,0.519c-3.284,0.978-6.555,2.14-9.561,3.866l-2.258,1.287
					c-0.75,0.429-1.416,0.996-2.127,1.489c-0.698,0.517-1.424,1.001-2.102,1.549l-1.921,1.756c-2.595,2.335-4.676,5.159-6.513,8.148
					l-0.145,0.229l-0.008-0.239c-0.004-0.2-0.053-0.405-0.019-0.595l0.104-0.567C187.411-17.211,187.45-17.59,187.493-17.967z"/>
			</g>
			<g>
				<path d="M301.563-4.626l6.984-2.019c1.178-0.29,2.312-0.682,3.434-1.078l1.688-0.582c0.574-0.16,1.078-0.479,1.62-0.706
					l1.597-0.747c0.498-0.258,1.128-0.469,1.515-0.768c1.075-0.657,1.863-1.312,2.9-2.04c1.002-0.712,2.036-1.453,3.252-2.053
					c0.589-0.32,1.239-0.566,1.934-0.765c0.659-0.252,1.433-0.249,2.153-0.357l2.411-0.355l-0.958,2.35
					c-0.595,1.453-1.034,3.02-1.783,4.393c-0.756,1.358-1.391,2.819-2.307,4.066c-0.867,1.28-1.713,2.595-2.728,3.754
					c-0.984,1.182-1.916,2.421-3.006,3.498c-1.075,1.091-2.06,2.286-3.229,3.276c-1.151,1.005-2.247,2.083-3.442,3.031l-3.595,2.84
					l-3.765,2.601l-3.917,2.369c-1.304,0.787-2.698,1.434-4.052,2.127c-1.342,0.724-2.793,1.233-4.191,1.843
					c-1.383,0.639-2.855,1.069-4.315,1.532c-1.436,0.511-2.944,0.815-4.433,1.143c-1.477,0.393-3.021,0.487-4.537,0.642
					c-1.504,0.245-3.057,0.036-4.564,0.008c-0.756,0.02-1.506-0.184-2.244-0.344l-2.203-0.482c1.514,0.018,2.981,0.236,4.459,0.085
					c1.473-0.189,2.941-0.198,4.371-0.598c1.438-0.318,2.867-0.594,4.256-1.112c1.398-0.446,2.799-0.864,4.135-1.488
					c1.35-0.587,2.717-1.091,4.014-1.789c1.304-0.68,2.655-1.251,3.895-2.038c1.257-0.773,2.566-1.429,3.788-2.238l3.673-2.426
					l3.533-2.607l3.411-2.769c1.14-0.924,2.162-1.967,3.249-2.944c1.104-0.965,2.065-2.06,3.097-3.089
					c1.055-1.009,1.937-2.164,2.88-3.264c0.99-1.079,1.746-2.297,2.61-3.455c0.914-1.134,1.518-2.419,2.273-3.636
					c0.732-1.229,1.148-2.567,1.749-3.848l1.453,1.994c-0.469,0.082-0.94-0.014-1.43,0.156c-0.483,0.1-0.975,0.239-1.469,0.471
					c-0.988,0.399-1.984,1.01-2.992,1.629c-0.977,0.611-2.151,1.38-3.205,1.887c-0.634,0.369-1.19,0.47-1.793,0.719l-1.76,0.634
					c-0.594,0.185-1.156,0.472-1.769,0.573l-1.816,0.396c-1.204,0.27-2.399,0.53-3.608,0.676
					C306.383-5.201,303.98-4.893,301.563-4.626z"/>
			</g>
			<g>
				<path d="M275.004,23.683c2.032,1.015,3.975,2.22,6.006,3.234c1.02,0.501,2.047,0.99,3.135,1.303
					c0.53,0.2,1.081,0.296,1.638,0.383c0.52,0.129,1.125,0.07,1.679,0.115c0.581,0.051,1.125-0.043,1.685-0.079
					c0.557-0.031,1.116-0.134,1.673-0.234c1.115-0.169,2.216-0.467,3.325-0.716c1.106-0.272,2.219-0.531,3.344-0.751l1.703-0.269
					l1.727-0.109l0.397-0.029l-0.2,0.347c-0.737,1.301-1.607,2.548-2.735,3.524c-1.083,1.031-2.313,1.871-3.579,2.648
					c-1.282,0.734-2.606,1.408-3.98,1.962c-1.362,0.567-2.76,1.069-4.181,1.468c-2.837,0.832-5.754,1.403-8.704,1.604
					c-1.465,0.104-2.994,0.118-4.447-0.047c-1.46-0.142-2.928-0.205-4.383-0.415l-4.371-0.706l-4.305-1.009
					c-1.432-0.33-2.82-0.836-4.229-1.241c-1.421-0.401-2.782-0.96-4.165-1.457c-2.77-0.995-5.468-2.188-8.118-3.434
					c-2.669-1.241-5.281-2.58-7.896-3.907c2.649,1.266,5.294,2.536,7.989,3.703c1.327,0.615,2.698,1.15,4.051,1.709
					c1.352,0.574,2.711,1.119,4.1,1.591c1.379,0.483,2.741,1.032,4.156,1.415c1.411,0.393,2.794,0.884,4.224,1.198l4.282,0.964
					l4.327,0.664c1.448,0.197,2.921,0.244,4.38,0.376c1.474,0.153,2.89,0.122,4.356,0.006c1.453-0.118,2.895-0.317,4.324-0.594
					c1.436-0.273,2.859-0.582,4.261-0.993c1.407-0.383,2.785-0.862,4.137-1.41c1.355-0.532,2.662-1.181,3.929-1.894
					c1.241-0.747,2.455-1.561,3.51-2.555c1.107-0.94,1.951-2.129,2.669-3.365l0.202,0.321l-1.682,0.094l-1.67,0.248
					c-1.113,0.21-2.218,0.456-3.328,0.716c-1.109,0.243-2.219,0.526-3.356,0.695c-0.563,0.1-1.125,0.194-1.706,0.22
					c-0.574,0.036-1.159,0.129-1.722,0.067c-0.571-0.051-1.131,0.009-1.715-0.142c-0.571-0.104-1.14-0.22-1.669-0.434
					c-1.099-0.348-2.121-0.869-3.136-1.396C278.911,26.003,277.017,24.75,275.004,23.683z"/>
			</g>
			<g>
				<path d="M187.456-9.461c0.08,0.142,0.249-0.119,0.345-0.19l0.335-0.358l0.636-0.742l1.245-1.515l1.239-1.516l0.636-0.743
					l0.334-0.36c0.129-0.085,0.209-0.307,0.41-0.243l-0.035-0.008c3.379-4.968,8.596-8.441,14.131-10.658
					c2.788-1.096,5.697-1.899,8.668-2.365c2.959-0.477,5.997-0.627,8.982,0.004c5.944,1.146,11.338,3.972,16.638,6.653
					c5.28,2.751,10.755,5.161,16.494,6.665c5.724,1.537,11.71,2.11,17.622,1.582c5.914-0.531,11.707-2.139,17.164-4.494
					c5.461-2.354,10.6-5.438,15.437-8.904c2.426-1.731,4.808-3.53,7.075-5.467c2.273-1.916,4.515-3.971,7.251-5.219
					c-2.704,1.309-4.896,3.395-7.125,5.361c-2.235,1.984-4.582,3.837-6.981,5.623c-4.825,3.525-9.969,6.654-15.46,9.068
					c-5.475,2.41-11.32,4.078-17.296,4.66c-5.982,0.579-12.064,0.044-17.877-1.477c-5.81-1.553-11.312-4.039-16.592-6.829
					c-5.284-2.724-10.617-5.557-16.444-6.72c-2.877-0.633-5.901-0.515-8.828-0.061c-2.929,0.438-5.818,1.214-8.584,2.281
					c-5.521,2.111-10.776,5.428-14.241,10.32l-0.04-0.006c-0.083-0.009-0.237,0.164-0.344,0.262l-0.335,0.356l-0.635,0.741
					l-1.255,1.507l-1.248,1.508l-0.642,0.739l-0.335,0.355C187.705-9.581,187.534-9.32,187.456-9.461z"/>
			</g>
		</g>
		<g>
			<path d="M240.805,32.481l0.396,1.292c0.144,0.426,0.246,0.871,0.425,1.281c0.365,0.823,0.72,1.648,1.098,2.459l1.361,2.32
				c0.531,0.717,1.091,1.414,1.632,2.121l0.188,0.25l-0.282,0.045l-3.228,0.486c-1.091-0.01-2.183,0.015-3.27-0.027
				c-1.075-0.176-2.162-0.289-3.229-0.519c-1.039-0.319-2.108-0.565-3.129-0.952c-0.993-0.439-2.024-0.809-2.987-1.313
				c-0.944-0.538-1.928-1.016-2.843-1.603c-1.843-1.164-3.551-2.508-5.21-3.907l-2.396-2.197l-2.28-2.32
				c-1.463-1.595-2.886-3.227-4.239-4.914c-2.721-3.362-5.147-6.955-7.417-10.622c2.42,3.576,4.995,7.038,7.718,10.377
				c1.371,1.663,2.807,3.266,4.282,4.828l2.29,2.274l2.407,2.144l2.526,1.997c0.858,0.637,1.776,1.193,2.646,1.82
				c0.895,0.59,1.851,1.074,2.775,1.612c0.939,0.509,1.945,0.88,2.917,1.328c0.993,0.393,2.032,0.646,3.053,0.975
				c1.036,0.237,2.1,0.366,3.149,0.552c1.07,0.05,2.137,0.047,3.203,0.072l3.178-0.439l-0.088,0.295
				c-0.548-0.73-1.104-1.45-1.642-2.194l-1.282-2.395c-0.352-0.839-0.676-1.687-1.014-2.522c-0.16-0.422-0.243-0.868-0.369-1.301
				L240.805,32.481z"/>
		</g>
	</g>
	<path d="M-35.159,270.42h-33.629v98.774h-31.799V270.42h-106.026V236.99L-90.488,51.384h21.7v190.601h33.627L-35.159,270.42
		L-35.159,270.42z M-100.587,241.985V99.719l-89.655,142.266H-100.587z"/>
	<path d="M189.715-9.045c11.405,13.729,19.922,29.816,25.541,48.27c5.615,18.452,8.422,37.756,8.422,57.9
		c0,24.247-3.474,45.954-10.433,65.113c-6.952,19.166-16.49,35.08-28.61,47.737c-12.48,13.014-27.278,22.822-44.394,29.413
		c-17.109,6.596-36.193,9.896-57.225,9.896c-23.004,0-43.503-3.84-61.512-11.501c-18.011-7.661-32.625-18.185-43.857-31.558
		c-11.766-13.904-20.548-30.169-26.342-48.8c-5.794-18.629-8.686-38.732-8.686-60.302c0-21.218,2.807-40.739,8.42-58.569
		c5.615-17.824,14.393-33.963,26.341-48.403c11.407-13.906,26.113-24.869,44.124-32.896c18.009-8.021,38.596-12.033,61.779-12.033
		c24.421,0,45.367,4.105,62.843,12.303C163.597-34.271,178.124-23.127,189.715-9.045z M164.578,97.125
		c0-42.43-7.269-75.327-21.795-98.683c-14.537-23.353-34.276-35.029-59.238-35.029c-25.317,0-45.285,11.675-59.902,35.029
		C9.021,21.799,1.714,54.695,1.714,97.125c0,40.288,6.996,72.692,20.992,97.207c13.994,24.516,34.097,36.771,60.31,36.771
		c26.201,0,46.347-12.256,60.435-36.771C157.532,169.817,164.578,137.413,164.578,97.125z"/>
	<g>
		<g>
			<g>
				<path d="M339.245,98.958c-0.023,0.306-0.047,0.608-0.026,0.913c0.012,0.304,0.012,0.614-0.105,0.929l-0.053,0.148l-0.062-0.161
					c-0.996-2.626-2.209-5.158-3.899-7.383l-1.251-1.669c-0.448-0.528-0.946-1.019-1.415-1.531
					c-0.911-1.054-1.969-1.955-3.032-2.844c-2.107-1.81-4.503-3.214-6.938-4.469c-1.227-0.523-2.593-1.103-3.75-1.464l-2.065-0.433
					c-0.694-0.16-1.38-0.297-2.04-0.29c-2.637-0.22-5.42-0.117-8.164,0.243c-2.754,0.286-5.499,0.833-8.281,1.303
					c-2.766,0.51-5.595,0.94-8.484,1.159l-4.227,0.227c-1.417,0.039-2.9-0.055-4.347-0.079c-1.457-0.061-2.874-0.285-4.313-0.424
					c-1.433-0.188-2.844-0.525-4.267-0.787c-1.404-0.334-2.785-0.771-4.18-1.156c-1.356-0.503-2.717-0.993-4.061-1.539
					c-2.641-1.187-5.21-2.524-7.629-4.112c-2.417-1.576-4.734-3.313-6.847-5.264c-1.075-0.959-2.136-1.932-3.11-2.979
					c-1.021-1.015-2.004-2.057-2.924-3.151c-0.961-1.064-1.875-2.161-2.744-3.297c-0.9-1.105-1.762-2.246-2.576-3.414
					c-0.852-1.146-1.66-2.316-2.432-3.513c-0.793-1.165-1.585-2.396-2.291-3.603c-1.462-2.404-2.842-4.828-4.655-6.584l2.074-0.731
					l-0.47,3.75l-0.205,3.772l0.067,3.785l0.363,3.771l0.654,3.734c0.316,1.226,0.593,2.465,0.938,3.681
					c0.409,1.197,0.771,2.415,1.22,3.603c0.498,1.166,0.939,2.359,1.484,3.507c0.586,1.125,1.107,2.29,1.749,3.39
					c0.671,1.076,1.267,2.209,1.974,3.269c0.735,1.039,1.408,2.127,2.201,3.132c0.808,0.985,1.564,2.023,2.422,2.973
					c0.879,0.926,1.715,1.906,2.631,2.798c0.944,0.87,1.854,1.778,2.831,2.614L252,93.222l3.146,2.252l-3.304-2.029
					c-1.073-0.727-2.113-1.497-3.162-2.259c-1.025-0.794-1.994-1.661-2.99-2.492c-0.984-0.853-1.875-1.8-2.822-2.696
					c-0.922-0.918-1.742-1.931-2.621-2.896c-0.858-0.982-1.605-2.055-2.417-3.081c-0.787-1.046-1.456-2.174-2.173-3.268
					c-0.695-1.11-1.27-2.29-1.913-3.431c-0.603-1.165-1.095-2.383-1.649-3.574c-0.508-1.211-0.917-2.459-1.381-3.688
					c-0.401-1.254-0.729-2.528-1.098-3.792l-0.799-3.869l-0.508-3.922l-0.199-3.958l0.126-3.962l0.445-3.943l0.279-2.438
					l1.793,1.708c2.28,2.166,3.691,4.707,5.183,7.074c0.729,1.217,1.473,2.342,2.276,3.496c0.765,1.164,1.567,2.297,2.407,3.405
					c0.806,1.13,1.653,2.228,2.54,3.291c0.854,1.094,1.749,2.148,2.689,3.16c0.903,1.052,1.856,2.044,2.847,3.006
					c0.949,1.002,1.977,1.922,3.012,2.828c2.057,1.827,4.236,3.501,6.507,5.026c2.277,1.528,4.694,2.814,7.175,3.963
					c1.26,0.526,2.543,1.003,3.817,1.497c1.313,0.372,2.613,0.798,3.94,1.134c1.343,0.254,2.672,0.592,4.026,0.785
					c1.359,0.141,2.724,0.373,4.079,0.442c1.361,0.032,2.698,0.142,4.087,0.121l4.204-0.177c2.728-0.201,5.473-0.553,8.26-0.954
					c2.781-0.383,5.582-0.848,8.438-1.053c2.84-0.276,5.714-0.318,8.674,0.038c0.75,0.033,1.441,0.193,2.111,0.374l2.054,0.501
					c1.503,0.507,2.72,1.101,4.052,1.715c2.523,1.395,4.906,3.028,6.984,4.99c1.052,0.973,2.086,1.953,2.965,3.081
					c0.455,0.551,0.932,1.077,1.365,1.642l1.184,1.775c1.62,2.346,2.687,5.016,3.489,7.718l-0.117-0.016
					c0.114-0.261,0.144-0.563,0.152-0.87C339.157,99.562,339.198,99.26,339.245,98.958z"/>
			</g>
			<g>
				<path d="M247.57,92.356c-1.863-0.569-3.704-1.178-5.543-1.824c-0.929-0.292-1.834-0.672-2.739-1.062l-1.371-0.573
					c-0.466-0.17-0.863-0.483-1.303-0.716l-1.289-0.767c-0.434-0.283-0.861-0.445-1.301-0.833c-0.756-0.555-1.559-1.334-2.234-1.96
					c-0.704-0.642-1.393-1.267-2.112-1.729c-0.351-0.254-0.719-0.439-1.085-0.592c-0.354-0.209-0.74-0.203-1.098-0.34l1.441-1.348
					c0.284,1.098,0.406,2.21,0.8,3.287c0.412,1.071,0.694,2.172,1.242,3.199c0.507,1.039,0.919,2.111,1.534,3.109
					c0.58,1.004,1.098,2.041,1.776,2.998c0.658,0.963,1.251,1.97,1.971,2.889c0.71,0.932,1.358,1.906,2.114,2.801l2.266,2.688
					l2.391,2.582l2.523,2.457c0.842,0.82,1.773,1.534,2.644,2.326c0.86,0.809,1.834,1.459,2.757,2.189
					c0.916,0.741,1.915,1.347,2.889,2.01c0.959,0.692,1.995,1.229,3.027,1.789c1.011,0.615,2.092,1.059,3.172,1.529
					c1.064,0.542,2.219,0.756,3.352,1.117c1.141,0.328,2.326,0.383,3.521,0.595c-1.18-0.02-2.426,0.184-3.621-0.025
					c-1.186-0.215-2.434-0.289-3.586-0.7c-1.168-0.342-2.37-0.643-3.471-1.168c-1.125-0.48-2.266-0.947-3.316-1.563
					c-1.079-0.582-2.172-1.143-3.164-1.851c-1.008-0.688-2.072-1.307-3.018-2.077c-0.962-0.75-1.961-1.465-2.869-2.281l-2.724-2.449
					l-2.566-2.609l-2.403-2.77c-0.796-0.924-1.496-1.935-2.25-2.9c-0.773-0.953-1.361-2.039-2.05-3.056
					c-0.694-1.011-1.242-2.124-1.837-3.202c-0.621-1.063-1.091-2.221-1.577-3.358c-0.536-1.115-0.817-2.363-1.214-3.544
					c-0.378-1.19-0.491-2.483-0.737-3.719l-0.405-1.992l1.845,0.645c0.554,0.191,1.159,0.308,1.641,0.604
					c0.517,0.258,0.987,0.549,1.404,0.892c0.87,0.651,1.571,1.391,2.253,2.101c0.707,0.727,1.233,1.361,1.975,2.038
					c0.258,0.293,0.723,0.552,1.078,0.833l1.144,0.824c0.39,0.262,0.74,0.585,1.168,0.799l1.239,0.717
					c0.817,0.482,1.646,0.967,2.532,1.372C244.104,90.593,245.847,91.452,247.57,92.356z"/>
			</g>
			<g>
				<path d="M264.208,118.595c-1.74,0.535-3.422,1.236-5.17,1.774c-0.873,0.264-1.756,0.521-2.672,0.632
					c-0.451,0.088-0.914,0.092-1.377,0.092c-0.486,0.031-0.911-0.101-1.369-0.145c-0.453-0.041-0.893-0.199-1.344-0.313
					c-0.454-0.106-0.882-0.267-1.31-0.429c-0.866-0.302-1.693-0.689-2.533-1.049c-0.829-0.371-1.663-0.73-2.508-1.063
					c-0.845-0.329-1.709-0.578-2.585-0.772l0.206-0.224c0.381,1.081,0.867,2.143,1.596,3.046c0.677,0.938,1.512,1.758,2.376,2.532
					c1.768,1.518,3.766,2.761,5.848,3.807c2.089,1.032,4.266,1.916,6.51,2.535c1.137,0.308,2.244,0.544,3.424,0.643
					c1.166,0.117,2.336,0.303,3.502,0.361l3.504,0.13l3.513-0.116c1.171-0.034,2.332-0.214,3.501-0.313
					c1.168-0.089,2.32-0.314,3.48-0.484c1.162-0.166,2.311-0.393,3.46-0.639c1.152-0.236,2.306-0.447,3.442-0.734
					c2.291-0.518,4.564-1.119,6.836-1.717c-2.256,0.655-4.51,1.318-6.794,1.889c-2.277,0.586-4.57,1.119-6.896,1.486
					c-1.163,0.18-2.314,0.418-3.492,0.516c-1.172,0.112-2.339,0.301-3.517,0.345l-3.532,0.146l-3.541-0.101
					c-1.178-0.05-2.339-0.224-3.513-0.329c-1.163-0.088-2.367-0.326-3.498-0.627c-2.297-0.603-4.5-1.487-6.606-2.566
					c-2.101-1.079-4.11-2.358-5.904-3.919c-0.876-0.797-1.719-1.644-2.41-2.617c-0.741-0.939-1.245-2.044-1.629-3.181l-0.099-0.292
					l0.307,0.07c0.9,0.209,1.784,0.468,2.637,0.809c0.853,0.344,1.688,0.714,2.514,1.092c0.836,0.365,1.653,0.758,2.506,1.063
					c0.424,0.163,0.846,0.328,1.283,0.434c0.43,0.114,0.852,0.272,1.309,0.317c0.449,0.049,0.911,0.185,1.343,0.162
					c0.448,0.011,0.896,0.021,1.347-0.057c0.895-0.084,1.782-0.315,2.655-0.555C260.75,119.748,262.456,119.089,264.208,118.595z"/>
			</g>
			<g>
				<path d="M338.003,105.655c-0.085,0.098-0.182-0.134-0.246-0.202l-0.211-0.332l-0.396-0.68l-0.756-1.372l-0.759-1.373
					l-0.391-0.677l-0.211-0.331c-0.064-0.095-0.164-0.25-0.232-0.256h-0.03c-1.995-4.365-5.631-7.761-9.651-10.247
					c-2.016-1.255-4.168-2.297-6.409-3.082c-2.229-0.792-4.589-1.338-6.943-1.271c-4.758,0.042-9.369,1.469-13.934,2.817
					c-2.288,0.68-4.589,1.363-6.95,1.834c-2.355,0.454-4.699,0.875-7.119,1.035c-2.406,0.156-4.811,0.106-7.205-0.127
					c-1.197-0.104-2.379-0.361-3.568-0.531c-1.174-0.24-2.334-0.564-3.504-0.845c-1.137-0.395-2.287-0.744-3.409-1.172
					c-1.093-0.49-2.226-0.901-3.289-1.453c-2.151-1.074-4.233-2.274-6.196-3.648c-1.978-1.354-3.87-2.837-5.652-4.433
					c-0.906-0.784-1.79-1.594-2.631-2.443c-0.867-0.83-1.709-1.677-2.508-2.57c-1.639-1.743-3.182-3.574-4.658-5.451
					c-1.459-1.881-2.868-3.848-4.798-5.282c1.96,1.393,3.421,3.344,4.918,5.188c1.509,1.843,3.092,3.64,4.755,5.345
					c0.809,0.875,1.65,1.719,2.521,2.534c0.845,0.843,1.728,1.642,2.634,2.413c1.783,1.577,3.677,3.034,5.649,4.363
					c1.958,1.35,4.033,2.525,6.163,3.569c1.061,0.542,2.186,0.941,3.268,1.417c1.112,0.416,2.253,0.754,3.375,1.133
					c1.159,0.271,2.302,0.583,3.467,0.813c1.174,0.158,2.34,0.404,3.521,0.496c2.361,0.218,4.74,0.244,7.102,0.074
					c2.352-0.143,4.718-0.544,7.057-0.98c2.33-0.445,4.623-1.111,6.91-1.773c4.573-1.313,9.234-2.727,14.08-2.736
					c2.44-0.049,4.805,0.525,7.063,1.343c2.263,0.808,4.43,1.874,6.458,3.157c4.018,2.572,7.599,6.083,9.514,10.494h-0.031
					c0.17-0.016,0.201,0.169,0.287,0.252l0.208,0.334l0.388,0.683l0.75,1.377l0.75,1.374l0.393,0.683l0.21,0.329
					C337.821,105.52,337.921,105.753,338.003,105.655z"/>
			</g>
		</g>
		<g>
			<path d="M289.772,130.631c-0.316,0.651-0.605,1.313-0.949,1.947c-0.394,0.605-0.774,1.226-1.178,1.828l-1.368,1.694
				c-0.524,0.504-1.075,0.986-1.614,1.479l-0.029-0.244l2.432,0.82l2.531,0.422c0.853,0.008,1.711,0.066,2.564,0.038
				c0.849-0.109,1.707-0.151,2.545-0.312c0.832-0.207,1.675-0.347,2.489-0.606c0.806-0.286,1.635-0.523,2.423-0.853
				c1.585-0.653,3.135-1.389,4.641-2.22c1.491-0.854,2.941-1.782,4.356-2.767c1.395-1.01,2.766-2.057,4.09-3.156
				c2.642-2.216,5.186-4.555,7.626-7.002c-2.338,2.542-4.781,5.002-7.427,7.238c-1.318,1.125-2.679,2.193-4.072,3.228
				c-1.407,1.014-2.854,1.967-4.349,2.85c-1.517,0.852-3.059,1.656-4.682,2.296c-0.809,0.322-1.654,0.551-2.475,0.833
				c-0.836,0.251-1.703,0.387-2.553,0.585c-0.854,0.149-1.73,0.183-2.595,0.28c-0.876,0.02-1.746-0.051-2.615-0.076
				c-0.861-0.134-1.718-0.311-2.576-0.468l-2.469-0.869l-0.215-0.073l0.188-0.169c0.528-0.478,1.076-0.94,1.599-1.427l1.418-1.62
				c0.418-0.584,0.823-1.177,1.236-1.767C289.112,131.923,289.426,131.269,289.772,130.631z"/>
		</g>
	</g>
	<g>
		<g>
			<g>
				<path d="M450.588,86.908c0.188,0.576,0.095,1.251,0.36,1.759l-0.114,0.021c0.621-2.745,1.511-5.479,2.974-7.923l1.069-1.851
					c0.393-0.592,0.838-1.149,1.257-1.725c0.8-1.185,1.773-2.231,2.757-3.27c1.945-2.098,4.218-3.883,6.638-5.44
					c1.29-0.7,2.467-1.371,3.933-1.978l2.015-0.631c0.66-0.225,1.34-0.43,2.09-0.513c2.932-0.553,5.797-0.701,8.654-0.612
					c2.862,0.02,5.687,0.3,8.484,0.496c2.81,0.219,5.575,0.39,8.306,0.406l4.207-0.096c1.389-0.07,2.713-0.269,4.069-0.391
					c1.354-0.158,2.698-0.479,4.043-0.71c1.342-0.282,2.646-0.705,3.969-1.05c1.301-0.422,2.568-0.932,3.857-1.39
					c1.235-0.576,2.48-1.137,3.703-1.743c2.404-1.308,4.73-2.752,6.901-4.426c2.163-1.671,4.229-3.484,6.159-5.442
					c0.975-0.974,1.934-1.956,2.822-3.021c0.92-1.025,1.811-2.08,2.641-3.186c0.87-1.078,1.696-2.188,2.475-3.331
					c0.816-1.122,1.588-2.274,2.32-3.453c0.764-1.158,1.49-2.344,2.18-3.552c0.721-1.21,1.389-2.379,2.035-3.64
					c1.334-2.462,2.576-5.09,4.705-7.401l1.68-1.819l0.436,2.414l0.703,3.901l0.387,3.944l0.059,3.963l-0.242,3.949l-0.545,3.912
					c-0.283,1.285-0.531,2.579-0.846,3.854c-0.381,1.257-0.712,2.532-1.134,3.772c-0.478,1.224-0.891,2.471-1.415,3.672
					c-0.565,1.185-1.063,2.398-1.679,3.551c-0.645,1.141-1.242,2.309-1.954,3.404c-0.741,1.078-1.415,2.199-2.209,3.235
					c-0.814,1.021-1.567,2.087-2.429,3.061c-0.882,0.962-1.716,1.962-2.634,2.877c-0.946,0.896-1.852,1.825-2.821,2.682
					c-0.999,0.831-1.989,1.666-3.009,2.462l-3.164,2.244l2.994-2.456l2.821-2.631c0.917-0.899,1.767-1.869,2.648-2.794
					c0.861-0.953,1.629-1.983,2.446-2.967c0.794-1.002,1.477-2.092,2.221-3.125c0.719-1.055,1.324-2.188,1.989-3.273
					c0.636-1.099,1.155-2.271,1.755-3.39c0.565-1.14,1.011-2.335,1.521-3.498c0.472-1.177,0.832-2.399,1.257-3.595
					c0.369-1.214,0.648-2.455,0.979-3.676c0.267-1.239,0.46-2.49,0.697-3.732l0.404-3.771l0.114-3.787l-0.182-3.78l-0.451-3.753
					l-0.712-3.708l2.112,0.594c-1.698,1.868-2.912,4.38-4.208,6.875c-0.625,1.251-1.34,2.531-2.047,3.745
					c-0.693,1.244-1.421,2.466-2.195,3.665c-0.74,1.219-1.521,2.41-2.349,3.577c-0.791,1.189-1.632,2.344-2.521,3.469
					c-0.849,1.156-1.757,2.26-2.707,3.337c-0.907,1.113-1.903,2.152-2.908,3.18c-1.98,2.087-4.178,3.969-6.486,5.705
					c-2.306,1.738-4.787,3.244-7.345,4.6c-1.301,0.633-2.628,1.214-3.949,1.809c-1.365,0.474-2.716,0.998-4.096,1.427
					c-1.4,0.352-2.784,0.783-4.201,1.065c-1.427,0.232-2.83,0.548-4.271,0.707c-1.447,0.119-2.918,0.311-4.339,0.361l-4.23,0.054
					c-2.897-0.03-5.748-0.275-8.543-0.599c-2.804-0.286-5.578-0.651-8.344-0.756c-2.766-0.18-5.549-0.098-8.165,0.292
					c-0.662,0.038-1.339,0.22-2.016,0.424l-2.033,0.568c-1.131,0.435-2.452,1.104-3.645,1.708c-2.347,1.419-4.646,2.977-6.627,4.922
					c-1.002,0.955-2.001,1.92-2.842,3.033c-0.434,0.54-0.897,1.064-1.313,1.619l-1.134,1.751c-1.544,2.33-2.588,4.935-3.41,7.622
					l-0.05,0.164l-0.064-0.144c-0.138-0.306-0.155-0.615-0.164-0.92C450.679,87.51,450.635,87.21,450.588,86.908z"/>
			</g>
			<g>
				<path d="M541.64,74.283c1.654-1.018,3.342-1.987,5.014-2.955c0.852-0.464,1.65-1,2.438-1.538l1.188-0.796
					c0.408-0.24,0.74-0.587,1.111-0.875l1.086-0.901c0.334-0.301,0.783-0.59,1.02-0.898c0.697-0.722,1.18-1.391,1.838-2.163
					c0.63-0.754,1.277-1.539,2.102-2.246c0.397-0.366,0.85-0.691,1.348-0.98c0.457-0.328,1.061-0.484,1.596-0.711l1.799-0.764
					l-0.27,2.015c-0.167,1.248-0.196,2.546-0.495,3.76c-0.316,1.207-0.516,2.468-0.976,3.616c-0.412,1.167-0.803,2.355-1.355,3.456
					c-0.525,1.112-0.996,2.262-1.625,3.316c-0.613,1.061-1.139,2.186-1.842,3.183c-0.691,1.014-1.318,2.07-2.057,3.045l-2.215,2.922
					l-2.391,2.775l-2.558,2.62c-0.853,0.873-1.802,1.653-2.712,2.465c-0.893,0.831-1.914,1.52-2.869,2.274
					c-0.947,0.773-2.006,1.403-3.038,2.053c-1.008,0.686-2.115,1.226-3.208,1.779c-1.066,0.598-2.244,0.975-3.391,1.395
					c-1.119,0.482-2.357,0.643-3.532,0.932c-1.177,0.287-2.427,0.169-3.608,0.265c1.177-0.29,2.36-0.423,3.477-0.827
					c1.104-0.432,2.244-0.721,3.271-1.335c1.047-0.54,2.096-1.053,3.064-1.733c0.991-0.629,1.99-1.235,2.904-1.988
					c0.924-0.721,1.884-1.392,2.751-2.194c0.868-0.79,1.8-1.503,2.606-2.365c0.811-0.848,1.695-1.623,2.48-2.494l2.354-2.618
					l2.216-2.732l2.084-2.832c0.697-0.945,1.281-1.959,1.924-2.936c0.662-0.968,1.184-2.012,1.779-3.016
					c0.611-0.997,1.064-2.065,1.58-3.109c0.543-1.031,0.885-2.129,1.324-3.201c0.48-1.063,0.688-2.181,1.028-3.275
					c0.321-1.1,0.372-2.219,0.585-3.332l1.525,1.252c-0.347,0.158-0.732,0.178-1.074,0.407c-0.355,0.176-0.709,0.386-1.049,0.663
					c-0.686,0.508-1.33,1.178-1.99,1.863c-0.633,0.67-1.385,1.503-2.102,2.105c-0.416,0.416-0.83,0.606-1.242,0.919l-1.239,0.845
					c-0.422,0.264-0.8,0.6-1.257,0.799l-1.327,0.661c-0.885,0.449-1.758,0.889-2.669,1.239
					C545.255,72.862,543.46,73.593,541.64,74.283z"/>
			</g>
			<g>
				<path d="M526.763,101.558c1.783,0.375,3.531,0.918,5.306,1.295c0.888,0.183,1.787,0.353,2.687,0.381
					c0.451,0.048,0.899,0.009,1.348-0.033c0.431-0.006,0.885-0.172,1.327-0.248c0.454-0.076,0.861-0.264,1.289-0.405
					c0.422-0.138,0.835-0.326,1.248-0.519c0.829-0.356,1.623-0.804,2.429-1.222c0.799-0.431,1.613-0.854,2.438-1.254
					c0.829-0.401,1.693-0.716,2.581-0.986l0.299-0.09l-0.081,0.302c-0.313,1.156-0.733,2.297-1.413,3.282
					c-0.627,1.015-1.415,1.915-2.235,2.769c-1.682,1.676-3.609,3.082-5.631,4.299c-2.03,1.215-4.175,2.246-6.425,2.997
					c-1.11,0.374-2.294,0.696-3.448,0.858c-1.163,0.184-2.309,0.429-3.483,0.56l-3.527,0.331l-3.533,0.086
					c-1.178,0.033-2.355-0.078-3.533-0.113c-1.173-0.019-2.345-0.181-3.516-0.286c-2.344-0.214-4.669-0.597-6.979-1.028
					c-2.313-0.422-4.611-0.932-6.904-1.439c2.306,0.445,4.611,0.899,6.935,1.264c1.157,0.214,2.317,0.347,3.483,0.509
					c1.163,0.171,2.323,0.322,3.495,0.406c1.169,0.096,2.335,0.247,3.507,0.257c1.175,0.025,2.344,0.124,3.516,0.082l3.513-0.118
					l3.489-0.354c1.16-0.143,2.312-0.398,3.472-0.592c1.169-0.175,2.259-0.488,3.372-0.87c2.2-0.771,4.31-1.792,6.328-2.958
					c2.007-1.184,3.917-2.557,5.581-4.186c0.812-0.828,1.589-1.703,2.202-2.682c0.669-0.951,1.084-2.042,1.395-3.146l0.217,0.212
					c-0.86,0.25-1.709,0.551-2.529,0.938c-0.814,0.387-1.625,0.8-2.432,1.226c-0.811,0.411-1.613,0.854-2.462,1.211
					c-0.415,0.188-0.835,0.379-1.277,0.517c-0.437,0.142-0.87,0.327-1.321,0.397c-0.451,0.075-0.873,0.234-1.356,0.234
					c-0.463,0.031-0.923,0.056-1.38,0c-0.923-0.048-1.819-0.245-2.707-0.453C530.261,102.565,528.535,101.979,526.763,101.558z"/>
			</g>
			<g>
				<path d="M452.272,93.507c0.092,0.09,0.173-0.145,0.234-0.221l0.188-0.343l0.344-0.705l0.658-1.421l0.658-1.422l0.341-0.705
					l0.185-0.345c0.082-0.092,0.102-0.277,0.27-0.271h-0.031c1.617-4.529,4.962-8.269,8.801-11.103
					c1.939-1.411,4.033-2.618,6.233-3.577c2.204-0.966,4.522-1.69,6.96-1.805c4.838-0.313,9.584,0.792,14.228,1.803
					c2.333,0.512,4.664,1.022,7.015,1.314c2.363,0.282,4.756,0.525,7.109,0.516c2.364,0.016,4.737-0.171,7.08-0.538
					c1.173-0.169,2.32-0.492,3.481-0.729c1.147-0.307,2.272-0.693,3.405-1.034c1.095-0.454,2.211-0.867,3.297-1.355
					c1.05-0.546,2.145-1.02,3.162-1.629c2.063-1.184,4.055-2.493,5.921-3.969c1.878-1.456,3.671-3.036,5.347-4.728
					c0.853-0.832,1.682-1.685,2.469-2.582c0.814-0.869,1.595-1.768,2.345-2.692c1.554-1.811,3.013-3.705,4.399-5.646
					c1.371-1.939,2.695-3.983,4.559-5.502c-1.828,1.556-3.104,3.614-4.439,5.588c-1.35,1.974-2.768,3.898-4.287,5.748
					c-0.738,0.94-1.527,1.844-2.334,2.724c-0.786,0.908-1.609,1.773-2.465,2.613c-1.672,1.713-3.463,3.315-5.348,4.794
					c-1.869,1.501-3.871,2.838-5.941,4.049c-1.027,0.62-2.131,1.105-3.191,1.665c-1.094,0.502-2.219,0.929-3.322,1.396
					c-1.152,0.355-2.287,0.754-3.443,1.075c-1.176,0.247-2.338,0.584-3.524,0.764c-2.373,0.393-4.772,0.601-7.181,0.601
					c-2.426,0-4.789-0.268-7.172-0.566c-2.391-0.314-4.727-0.844-7.058-1.371c-4.641-1.047-9.34-2.164-14.089-1.896
					c-2.355,0.089-4.67,0.792-6.844,1.729c-2.186,0.932-4.266,2.11-6.193,3.497c-3.847,2.744-7.254,6.371-8.953,10.86l-0.032,0.002
					c-0.064,0.013-0.152,0.176-0.214,0.273l-0.185,0.344l-0.346,0.701l-0.665,1.421l-0.664,1.417l-0.346,0.705l-0.189,0.343
					C452.445,93.363,452.363,93.599,452.272,93.507z"/>
			</g>
		</g>
		<g>
			<path d="M502.039,115.256c0.387,0.609,0.744,1.239,1.157,1.831l1.346,1.68l1.525,1.525c0.553,0.449,1.125,0.876,1.688,1.315
				l0.196,0.155l-0.212,0.088l-2.401,1.032c-0.844,0.212-1.688,0.448-2.538,0.634c-0.867,0.082-1.73,0.213-2.601,0.249
				c-0.87-0.041-1.749-0.019-2.613-0.108c-0.858-0.143-1.734-0.219-2.581-0.417c-0.84-0.225-1.697-0.397-2.523-0.668
				c-1.66-0.53-3.256-1.227-4.822-1.978c-1.551-0.785-3.059-1.641-4.531-2.56c-1.456-0.94-2.886-1.918-4.271-2.954
				c-2.786-2.057-5.388-4.351-7.887-6.731c2.596,2.281,5.288,4.446,8.068,6.485c1.395,1.012,2.833,1.963,4.292,2.877
				c1.472,0.891,2.978,1.72,4.526,2.476c1.556,0.731,3.146,1.364,4.772,1.913c0.812,0.277,1.651,0.457,2.473,0.693
				c0.832,0.202,1.685,0.289,2.528,0.438c0.847,0.104,1.708,0.091,2.561,0.143c0.853-0.027,1.702-0.143,2.555-0.208l2.493-0.591
				l2.376-0.98l-0.012,0.244c-0.568-0.456-1.151-0.901-1.711-1.366l-1.477-1.599c-0.439-0.577-0.864-1.167-1.292-1.746
				C502.736,116.525,502.407,115.88,502.039,115.256z"/>
		</g>
	</g>
	<path d="M454.109,93.375c11.602,8.337,21.437,19.083,29.499,32.247c8.065,13.165,14.124,27.551,18.182,43.157
		c4.878,18.783,6.557,36.295,5.021,52.54c-1.526,16.248-5.716,30.492-12.554,42.735c-7.052,12.594-16.536,23.165-28.465,31.719
		c-11.933,8.555-26.045,14.953-42.34,19.185c-17.815,4.632-34.471,5.783-49.962,3.472c-15.49-2.312-28.929-7.521-40.32-15.618
		c-11.914-8.403-21.99-19.231-30.228-32.499c-8.242-13.266-14.53-28.254-18.871-44.962c-4.269-16.433-6.026-32.122-5.269-47.063
		c0.763-14.933,4.316-29.202,10.658-42.794c6.041-13.069,15.228-24.521,27.562-34.363c12.335-9.839,27.475-17.091,45.431-21.756
		c18.914-4.917,35.971-5.952,51.158-3.12C428.8,79.091,442.297,84.793,454.109,93.375z M456.008,180.676
		c-8.543-32.868-20.788-56.887-36.747-72.056c-15.961-15.164-33.6-20.238-52.937-15.213c-19.611,5.095-32.726,18.155-39.347,39.196
		c-6.621,21.032-5.659,47.983,2.877,80.854c8.107,31.207,20.046,54.896,35.826,71.071c15.775,16.173,33.813,21.621,54.117,16.345
		c20.293-5.277,33.434-18.823,39.415-40.648C465.184,238.4,464.114,211.882,456.008,180.676z"/>
</g>
</svg>
