<?xml version="1.0" encoding="utf-8"?>
<!-- Generator: Adobe Illustrator 16.0.0, SVG Export Plug-In . SVG Version: 6.00 Build 0)  -->
<!DOCTYPE svg PUBLIC "-//W3C//DTD SVG 1.1//EN" "http://www.w3.org/Graphics/SVG/1.1/DTD/svg11.dtd">
<svg version="1.1" id="Layer_1" xmlns="http://www.w3.org/2000/svg" xmlns:xlink="http://www.w3.org/1999/xlink" x="0px" y="0px"
	 width="253.68px" height="253.681px" viewBox="-69.877 -10.314 253.68 253.681"
	 enable-background="new -69.877 -10.314 253.68 253.681" xml:space="preserve">
<rect x="-69.874" y="-10.038" fill="#FFFFFF" width="252.68" height="252.681"/>
<g>
	<g>
		<path d="M-17.481,134.551l-42.564-0.253c-1.652,15.89,3.051,30.382,18.972,30.394c10.103,0.008,18.641-5.861,22.216-17.587h1.375
			c-1.572,7.102-4.552,12.344-8.936,15.728c-4.386,3.386-9.271,5.077-14.656,5.077c-7.673,0-14.345-2.847-20.017-8.543
			c-5.672-5.696-8.508-12.856-8.508-21.485c0-8.387,2.776-15.44,8.329-21.16s11.999-8.579,19.339-8.579
			c6.385,0,11.974,2.265,16.764,6.791C-20.376,119.462-17.815,126.546-17.481,134.551z M-59.494,130.569l34.916,0.17
			c0.381-3.385-3.179-19.704-18.069-19.379C-58.318,111.7-59.494,130.569-59.494,130.569z"/>
		<path d="M82.805,134.551l-42.564-0.253c-1.652,15.89,3.051,30.382,18.972,30.394c10.104,0.008,18.642-5.861,22.215-17.587h1.377
			c-1.573,7.102-4.553,12.344-8.937,15.728c-4.386,3.386-9.271,5.077-14.655,5.077c-7.674,0-14.346-2.847-20.018-8.543
			c-5.672-5.696-8.508-12.856-8.508-21.484c0-8.388,2.776-15.441,8.328-21.159c5.553-5.722,11.999-8.581,19.339-8.581
			c6.385,0,11.975,2.265,16.764,6.791C79.908,119.462,82.47,126.546,82.805,134.551z M40.792,130.569l34.916,0.17
			c0.38-3.385-3.179-19.704-18.068-19.379C41.967,111.7,40.792,130.569,40.792,130.569z"/>
		<path d="M141.455,92.487l-4.445,14.921l-1.404-0.458c-0.245-10.084-5.417-15.669-14.186-17.514
			c-3.795-0.799-7.168-0.466-10.125,0.994c-2.958,1.462-4.707,3.475-5.245,6.034c-0.457,2.169,0.082,5.145,1.617,6.779
			c1.533,1.635,5.557,3.6,12.071,5.896c14.346,4.924,20.302,13.176,17.866,24.752c-1.212,5.764-4.132,10.167-8.76,13.206
			c-4.626,3.038-9.774,3.964-15.439,2.769c-5.566-1.17-10.48-4.599-14.737-10.278l-6.107,3.347l-2.585-0.543l4.586-21.803
			l1.512,0.546c1.305,14.83,8.03,24.375,18.031,26.48c3.793,0.798,8.571,0.318,12.183-1.444c3.613-1.76,5.76-5.342,6.445-8.591
			c0.57-2.711-0.999-4.949-2.556-6.717c-1.557-1.768-6.275-4.099-14.155-6.995c-13.42-4.931-19.046-12.544-16.88-22.843
			c1.068-5.074,3.821-8.931,8.263-11.572c4.44-2.643,9.345-3.397,14.716-2.268c5.665,1.192,10.026,4.064,13.08,8.616
			c1.204-0.827,2.525-2.091,3.964-3.794L141.455,92.487z"/>
		<g>
			<path fill="#1B0B3D" d="M91.229,173.046c0,0,0.48-0.275,1.32-0.758c0.842-0.476,2.047-1.153,3.492-1.971
				c0.72-0.408,1.5-0.853,2.325-1.321c0.826-0.464,1.671-1.004,2.573-1.511c0.893-0.522,1.825-1.048,2.74-1.633
				c0.922-0.571,1.86-1.153,2.796-1.736c0.926-0.597,1.85-1.197,2.76-1.787c0.921-0.575,1.787-1.2,2.629-1.798
				c0.833-0.612,1.68-1.147,2.435-1.718c0.755-0.574,1.467-1.117,2.126-1.617c0.33-0.25,0.647-0.488,0.948-0.716
				c0.291-0.241,0.567-0.469,0.826-0.681c0.518-0.433,0.971-0.806,1.342-1.114c0.752-0.611,1.181-0.962,1.181-0.962
				s-0.394,0.39-1.082,1.07c-0.348,0.338-0.77,0.749-1.255,1.218c-0.243,0.235-0.502,0.487-0.775,0.75
				c-0.291,0.243-0.594,0.5-0.913,0.768c-0.638,0.533-1.329,1.112-2.06,1.725c-0.733,0.61-1.549,1.196-2.388,1.813
				c-0.837,0.617-1.701,1.259-2.617,1.854c-0.908,0.607-1.83,1.225-2.751,1.839c-0.95,0.572-1.901,1.142-2.836,1.703
				c-0.929,0.572-1.873,1.085-2.779,1.596c-0.906,0.509-1.784,0.996-2.634,1.424c-0.849,0.434-1.651,0.84-2.391,1.215
				c-0.738,0.386-1.426,0.711-2.04,0.988c-0.612,0.283-1.145,0.531-1.584,0.734C91.733,172.82,91.229,173.046,91.229,173.046z"/>
		</g>
		<g>
			<path fill="#1B0B3D" d="M114.619,167.285c0,0,0.301-0.051,0.829-0.124c0.267-0.019,0.574-0.119,0.927-0.2
				c0.354-0.071,0.741-0.226,1.166-0.363c0.429-0.126,0.862-0.356,1.337-0.539c0.455-0.24,0.949-0.455,1.428-0.746
				c0.241-0.139,0.487-0.28,0.736-0.424c0.242-0.157,0.486-0.316,0.733-0.475c0.495-0.315,0.976-0.673,1.456-1.027
				c0.475-0.364,0.955-0.723,1.401-1.108c0.458-0.373,0.889-0.76,1.312-1.132c0.409-0.387,0.816-0.749,1.185-1.112
				c0.363-0.366,0.722-0.702,1.03-1.033c0.631-0.646,1.149-1.198,1.497-1.6c0.348-0.4,0.557-0.623,0.557-0.623
				s-0.152,0.262-0.438,0.71c-0.14,0.23-0.329,0.492-0.54,0.8c-0.208,0.309-0.458,0.646-0.746,1.002
				c-0.56,0.727-1.274,1.526-2.082,2.345c-0.418,0.393-0.83,0.822-1.298,1.205c-0.452,0.401-0.937,0.777-1.42,1.157
				c-0.5,0.358-0.999,0.719-1.516,1.035c-0.26,0.157-0.517,0.313-0.771,0.467c-0.265,0.136-0.526,0.272-0.782,0.406
				c-0.504,0.283-1.04,0.464-1.524,0.677c-0.507,0.159-0.973,0.348-1.431,0.435c-0.452,0.103-0.862,0.201-1.244,0.223
				c-0.376,0.034-0.699,0.089-0.964,0.07C114.924,167.3,114.619,167.285,114.619,167.285z"/>
		</g>
		<g>
			<g>
				<g>
					<path d="M108.151,89.327c-0.036,0.102-0.07,0.203-0.09,0.307l-0.042,0.157c-0.012,0.054-0.05,0.1-0.076,0.15l-0.03,0.06
						l-0.008-0.075c-0.107-0.982-0.297-1.951-0.676-2.856l-0.276-0.679c-0.107-0.219-0.232-0.432-0.348-0.647
						c-0.122-0.211-0.223-0.435-0.362-0.635l-0.419-0.6c-0.556-0.802-1.247-1.491-1.964-2.135c-0.182-0.158-0.385-0.289-0.576-0.436
						c-0.189-0.128-0.399-0.317-0.57-0.395l-0.664-0.329c-0.223-0.117-0.444-0.224-0.67-0.279c-0.453-0.137-0.881-0.309-1.368-0.387
						c-0.471-0.102-0.944-0.2-1.432-0.251c-0.962-0.146-1.946-0.203-2.933-0.288c-0.988-0.074-1.987-0.174-2.99-0.353l-1.46-0.292
						c-0.488-0.111-0.982-0.272-1.475-0.407c-0.489-0.148-0.955-0.349-1.434-0.522c-0.47-0.191-0.922-0.426-1.383-0.642
						c-0.448-0.241-0.881-0.512-1.32-0.768c-0.417-0.292-0.836-0.582-1.243-0.887c-0.386-0.331-0.792-0.642-1.159-0.993
						c-0.354-0.363-0.745-0.697-1.069-1.087c-0.682-0.752-1.313-1.549-1.865-2.399c-0.281-0.419-0.557-0.844-0.8-1.286
						c-0.256-0.435-0.499-0.876-0.718-1.33c-0.234-0.446-0.45-0.901-0.647-1.363c-0.209-0.458-0.403-0.919-0.579-1.389
						c-0.189-0.464-0.363-0.935-0.517-1.411c-0.165-0.466-0.324-0.958-0.457-1.43c-0.282-0.948-0.533-1.896-0.993-2.652l0.78-0.067
						l-0.494,1.232l-0.407,1.266l-0.31,1.294l-0.209,1.314l-0.108,1.329c-0.002,0.445-0.016,0.89-0.006,1.335
						c0.033,0.444,0.049,0.89,0.095,1.333c0.067,0.441,0.112,0.886,0.197,1.325c0.1,0.436,0.175,0.877,0.294,1.308
						c0.133,0.426,0.235,0.864,0.384,1.287c0.159,0.419,0.292,0.849,0.471,1.26c0.188,0.407,0.354,0.828,0.562,1.226
						c0.217,0.394,0.414,0.801,0.648,1.185c0.244,0.379,0.473,0.769,0.73,1.141l0.802,1.095l0.872,1.043l-0.945-0.982
						c-0.3-0.343-0.586-0.696-0.877-1.049c-0.279-0.36-0.53-0.742-0.798-1.113c-0.258-0.377-0.479-0.778-0.72-1.167
						c-0.232-0.395-0.423-0.812-0.637-1.218c-0.206-0.41-0.365-0.842-0.55-1.263c-0.175-0.424-0.303-0.867-0.451-1.304
						c-0.137-0.439-0.23-0.891-0.346-1.336c-0.102-0.45-0.164-0.908-0.248-1.362c-0.064-0.456-0.094-0.917-0.144-1.377
						c-0.026-0.461-0.025-0.923-0.038-1.387c0.013-0.46,0.045-0.924,0.067-1.386l0.175-1.381l0.282-1.363l0.39-1.338l0.499-1.303
						l0.315-0.816l0.469,0.749c0.587,0.938,0.845,1.928,1.146,2.864c0.142,0.478,0.298,0.925,0.469,1.388
						c0.159,0.462,0.331,0.919,0.518,1.371c0.173,0.457,0.363,0.906,0.569,1.346c0.194,0.447,0.405,0.885,0.633,1.314
						c0.212,0.438,0.448,0.861,0.698,1.277c0.235,0.425,0.501,0.829,0.773,1.229c0.534,0.806,1.13,1.567,1.771,2.284
						c0.307,0.373,0.673,0.687,1.007,1.033c0.345,0.334,0.727,0.627,1.089,0.944c0.381,0.29,0.777,0.563,1.167,0.842
						c0.415,0.242,0.82,0.5,1.242,0.73c0.436,0.204,0.855,0.438,1.298,0.625c0.449,0.169,0.892,0.37,1.346,0.515
						c0.461,0.133,0.904,0.289,1.379,0.406l1.444,0.315c0.945,0.178,1.911,0.302,2.896,0.411c0.98,0.116,1.973,0.205,2.962,0.387
						c0.496,0.067,0.989,0.187,1.48,0.309c0.491,0.092,0.983,0.3,1.469,0.471c0.253,0.078,0.474,0.193,0.687,0.314l0.654,0.351
						c0.27,0.145,0.42,0.311,0.636,0.463c0.197,0.162,0.408,0.306,0.593,0.479c0.733,0.698,1.4,1.464,1.935,2.315l0.397,0.64
						c0.132,0.213,0.225,0.45,0.338,0.672c0.106,0.227,0.224,0.448,0.32,0.68l0.247,0.709c0.191,0.462,0.263,0.962,0.373,1.447
						c0.105,0.487,0.085,0.993,0.132,1.484l-0.039-0.015c0.024-0.042,0.062-0.079,0.077-0.13l0.052-0.152
						C108.068,89.523,108.109,89.425,108.151,89.327z"/>
				</g>
				<g>
					<path d="M77.538,78.973c-0.582-0.359-1.157-0.728-1.729-1.104c-0.289-0.182-0.562-0.395-0.836-0.607l-0.412-0.318
						c-0.144-0.1-0.253-0.24-0.381-0.36l-0.373-0.373c-0.122-0.135-0.251-0.229-0.369-0.398c-0.208-0.256-0.413-0.593-0.588-0.866
						c-0.182-0.28-0.362-0.554-0.566-0.774c-0.097-0.119-0.206-0.213-0.317-0.298c-0.103-0.101-0.235-0.134-0.344-0.212l0.609-0.331
						c-0.001,0.4-0.057,0.789-0.018,1.19c0.045,0.4,0.042,0.8,0.139,1.198c0.081,0.398,0.125,0.801,0.247,1.193
						c0.108,0.394,0.194,0.792,0.34,1.177c0.139,0.387,0.25,0.781,0.415,1.158c0.159,0.38,0.295,0.769,0.471,1.141l0.534,1.116
						l0.585,1.09l0.642,1.059c0.214,0.353,0.468,0.679,0.693,1.026c0.222,0.349,0.496,0.657,0.746,0.987
						c0.246,0.333,0.533,0.627,0.804,0.938c0.265,0.32,0.57,0.596,0.873,0.876c0.29,0.301,0.619,0.542,0.948,0.797
						c0.315,0.275,0.687,0.453,1.04,0.68c0.356,0.216,0.756,0.338,1.145,0.516l-0.619-0.143c-0.208-0.048-0.422-0.087-0.613-0.184
						c-0.386-0.173-0.807-0.307-1.16-0.551c-0.367-0.223-0.748-0.433-1.075-0.709c-0.34-0.263-0.687-0.522-0.991-0.826
						c-0.314-0.291-0.638-0.58-0.912-0.909c-0.281-0.324-0.59-0.627-0.844-0.975c-0.261-0.34-0.537-0.67-0.773-1.027l-0.711-1.075
						l-0.646-1.115l-0.571-1.156c-0.191-0.385-0.338-0.79-0.509-1.185c-0.18-0.393-0.284-0.816-0.428-1.222
						c-0.147-0.406-0.234-0.832-0.342-1.252c-0.119-0.417-0.174-0.853-0.241-1.282c-0.083-0.427-0.069-0.876-0.098-1.313
						c-0.024-0.439,0.053-0.89,0.076-1.332l0.041-0.713l0.571,0.382c0.17,0.114,0.367,0.207,0.505,0.351
						c0.152,0.133,0.288,0.275,0.399,0.427c0.238,0.3,0.41,0.613,0.579,0.914c0.176,0.311,0.3,0.573,0.493,0.869
						c0.062,0.122,0.198,0.25,0.293,0.377l0.315,0.382c0.11,0.123,0.2,0.265,0.328,0.375l0.358,0.351
						c0.237,0.236,0.478,0.473,0.743,0.688L77.538,78.973z"/>
				</g>
				<g>
					<path d="M80.88,89.374c-0.64,0.029-1.275,0.117-1.917,0.144c-0.32,0.016-0.643,0.023-0.963-0.02
						c-0.163-0.01-0.32-0.049-0.477-0.091c-0.168-0.031-0.302-0.115-0.454-0.17c-0.15-0.053-0.287-0.146-0.429-0.224
						c-0.145-0.076-0.277-0.168-0.408-0.261c-0.269-0.18-0.516-0.384-0.77-0.582c-0.25-0.2-0.503-0.397-0.759-0.583l-0.396-0.266
						l-0.415-0.225l0.089-0.058c0.035,0.402,0.105,0.805,0.273,1.177c0.148,0.379,0.358,0.732,0.585,1.072
						c0.236,0.334,0.489,0.655,0.771,0.955c0.278,0.302,0.569,0.591,0.881,0.858c0.306,0.273,0.632,0.523,0.963,0.766
						c0.33,0.242,0.674,0.467,1.029,0.672c0.359,0.206,0.715,0.384,1.106,0.523c0.388,0.142,0.77,0.307,1.161,0.432l1.181,0.354
						l1.205,0.271c0.401,0.094,0.813,0.134,1.219,0.204c0.406,0.074,0.818,0.098,1.228,0.142c0.41,0.049,0.822,0.075,1.234,0.091
						c0.411,0.02,0.823,0.051,1.236,0.053c0.825,0.028,1.65,0.023,2.478,0.021c-0.827,0.022-1.653,0.048-2.479,0.043
						c-0.827-0.004-1.655-0.025-2.479-0.105c-0.412-0.041-0.826-0.062-1.235-0.132c-0.408-0.066-0.821-0.104-1.227-0.195
						l-1.215-0.263L80.7,93.629c-0.396-0.123-0.776-0.283-1.165-0.424c-0.389-0.133-0.776-0.32-1.135-0.521
						c-0.727-0.408-1.4-0.905-2.021-1.458c-0.313-0.273-0.607-0.567-0.887-0.877c-0.282-0.306-0.537-0.637-0.775-0.979
						c-0.228-0.35-0.44-0.713-0.59-1.105c-0.17-0.385-0.241-0.806-0.271-1.225l-0.009-0.114l0.098,0.053l0.425,0.238l0.401,0.273
						c0.258,0.193,0.51,0.391,0.758,0.595c0.251,0.199,0.495,0.404,0.759,0.583c0.13,0.093,0.26,0.186,0.397,0.26
						c0.139,0.077,0.268,0.168,0.419,0.224c0.147,0.056,0.293,0.144,0.442,0.174c0.151,0.042,0.303,0.086,0.461,0.099
						c0.315,0.052,0.635,0.05,0.954,0.047C79.6,89.458,80.24,89.386,80.88,89.374z"/>
				</g>
				<g>
					<path d="M107.137,91.494c-0.038,0.027-0.05-0.062-0.066-0.09l-0.042-0.131l-0.074-0.266l-0.137-0.534l-0.136-0.535
						l-0.073-0.266l-0.041-0.132c-0.015-0.036-0.035-0.099-0.056-0.108l-0.01-0.002c-0.294-1.662-1.23-3.139-2.378-4.34
						c-0.576-0.605-1.217-1.15-1.911-1.617c-0.688-0.467-1.442-0.86-2.25-1.046c-1.623-0.407-3.319-0.329-4.991-0.273
						c-1.68,0.074-3.378,0.042-5.043-0.262c-1.661-0.314-3.272-0.911-4.723-1.779c-1.452-0.869-2.736-1.997-3.839-3.271
						c-1.105-1.275-2.036-2.69-2.837-4.168c-0.394-0.744-0.768-1.497-1.097-2.271c-0.331-0.77-0.636-1.563-1.166-2.221
						c0.544,0.646,0.867,1.439,1.214,2.2c0.344,0.765,0.731,1.51,1.141,2.242c0.813,1.465,1.748,2.868,2.854,4.125
						c1.103,1.256,2.382,2.363,3.821,3.211c1.438,0.847,3.031,1.423,4.671,1.721c1.641,0.309,3.324,0.356,4.998,0.293
						c1.673-0.042,3.383-0.111,5.033,0.313c0.835,0.2,1.589,0.604,2.285,1.083c0.698,0.475,1.34,1.028,1.917,1.645
						c1.141,1.229,2.049,2.743,2.311,4.415l-0.01-0.002c0.059,0.009,0.053,0.075,0.074,0.111l0.042,0.131l0.071,0.267l0.134,0.536
						l0.132,0.534l0.074,0.266l0.041,0.131C107.087,91.435,107.099,91.521,107.137,91.494z"/>
				</g>
			</g>
			<g>
				<path d="M88.516,95.731l-0.246,0.29c-0.084,0.097-0.159,0.198-0.251,0.286c-0.187,0.173-0.372,0.351-0.562,0.519l-0.616,0.458
					c-0.223,0.123-0.453,0.238-0.68,0.359l0.012-0.086l0.757,0.494c0.274,0.12,0.545,0.252,0.822,0.367
					c0.291,0.078,0.576,0.174,0.869,0.241c0.298,0.036,0.594,0.097,0.893,0.118c0.301,0.002,0.601,0.029,0.902,0.015
					c0.3-0.028,0.602-0.036,0.9-0.077c0.297-0.054,0.596-0.085,0.893-0.145l0.883-0.201l0.87-0.257l0.856-0.302
					c0.565-0.219,1.123-0.453,1.672-0.711c1.094-0.521,2.168-1.092,3.214-1.708c-1.021,0.658-2.07,1.28-3.167,1.807
					c-0.549,0.268-1.106,0.51-1.671,0.738l-0.857,0.315l-0.875,0.27c-0.59,0.157-1.187,0.293-1.795,0.366
					c-0.304,0.039-0.612,0.042-0.917,0.064c-0.305,0.013-0.612-0.018-0.918-0.025c-0.305-0.025-0.606-0.092-0.91-0.134
					c-0.298-0.071-0.589-0.173-0.883-0.258c-0.282-0.122-0.558-0.258-0.834-0.387l-0.763-0.513l-0.067-0.046l0.079-0.039
					c0.222-0.116,0.448-0.227,0.669-0.345l0.626-0.428c0.195-0.159,0.384-0.327,0.578-0.489c0.094-0.086,0.172-0.187,0.261-0.276
					L88.516,95.731z"/>
			</g>
		</g>
		<g>
			<g>
				<g>
					<path d="M140.564,94.714c-0.004,0.107-0.01,0.215-0.029,0.322l-0.019,0.156c-0.006,0.055,0.012,0.104,0.014,0.153l-0.042-0.005
						c0.252-0.424,0.452-0.889,0.755-1.284c0.306-0.392,0.587-0.812,0.957-1.148l0.527-0.535c0.187-0.169,0.387-0.317,0.58-0.478
						c0.198-0.152,0.383-0.326,0.594-0.461l0.633-0.407c0.848-0.54,1.778-0.948,2.74-1.265c0.242-0.075,0.493-0.118,0.74-0.177
						c0.261-0.047,0.467-0.132,0.773-0.147l0.742-0.038c0.246-0.018,0.493-0.027,0.755,0.01c0.513,0.055,1.044,0.078,1.529,0.203
						c0.497,0.101,0.992,0.203,1.47,0.354c0.972,0.263,1.908,0.606,2.843,0.921c0.936,0.322,1.862,0.624,2.791,0.869l1.44,0.334
						c0.48,0.097,0.947,0.145,1.419,0.222c0.473,0.064,0.96,0.072,1.438,0.111c0.48,0.022,0.961-0.011,1.441-0.008
						c0.479-0.027,0.956-0.088,1.435-0.129c0.472-0.085,0.945-0.163,1.415-0.26c0.462-0.132,0.933-0.233,1.387-0.388
						c0.449-0.172,0.915-0.298,1.352-0.503c0.886-0.374,1.752-0.805,2.579-1.306c0.417-0.246,0.831-0.496,1.224-0.779
						c0.404-0.268,0.8-0.55,1.179-0.856c0.389-0.29,0.769-0.595,1.134-0.917c0.375-0.309,0.739-0.634,1.092-0.971
						c0.361-0.328,0.712-0.667,1.055-1.017c0.354-0.346,0.685-0.684,1.018-1.054c0.672-0.716,1.33-1.502,2.263-2.098l0.743-0.473
						l-0.068,0.868l-0.108,1.391l-0.219,1.376l-0.331,1.354l-0.432,1.323c-0.178,0.428-0.348,0.858-0.533,1.284
						c-0.21,0.412-0.408,0.829-0.627,1.236c-0.241,0.393-0.466,0.798-0.72,1.182c-0.27,0.375-0.522,0.764-0.805,1.125
						c-0.296,0.353-0.574,0.722-0.886,1.06c-0.32,0.331-0.625,0.676-0.966,0.984c-0.348,0.303-0.676,0.624-1.036,0.907
						c-0.367,0.276-0.718,0.569-1.098,0.827c-0.384,0.25-0.757,0.516-1.151,0.747c-0.4,0.222-0.792,0.457-1.197,0.662
						c-0.413,0.195-0.825,0.392-1.241,0.571l-1.275,0.484l1.235-0.568l1.194-0.646c0.391-0.228,0.765-0.481,1.147-0.72
						c0.376-0.247,0.728-0.53,1.094-0.794c0.359-0.27,0.688-0.579,1.033-0.864c0.339-0.297,0.644-0.626,0.965-0.938
						c0.314-0.318,0.595-0.67,0.898-0.998c0.292-0.337,0.549-0.705,0.826-1.056c0.265-0.36,0.496-0.743,0.746-1.112
						c0.232-0.382,0.437-0.777,0.658-1.165c0.199-0.396,0.376-0.806,0.567-1.208l0.47-1.248l0.375-1.279l0.273-1.302l0.175-1.317
						l0.083-1.327l0.674,0.395c-0.74,0.486-1.373,1.235-2.034,1.971c-0.322,0.371-0.676,0.747-1.024,1.097
						c-0.343,0.366-0.702,0.715-1.071,1.054c-0.36,0.348-0.734,0.685-1.12,1.007c-0.375,0.334-0.765,0.652-1.167,0.957
						c-0.392,0.317-0.801,0.61-1.219,0.893c-0.409,0.297-0.839,0.563-1.273,0.821c-0.861,0.531-1.774,0.979-2.712,1.369
						c-0.461,0.213-0.956,0.347-1.432,0.523c-0.483,0.159-0.983,0.266-1.473,0.4c-0.498,0.102-1.002,0.185-1.504,0.269
						c-0.507,0.044-1.014,0.103-1.521,0.129c-0.51-0.003-1.019,0.019-1.525-0.013c-0.506-0.048-1.014-0.065-1.519-0.142
						c-0.502-0.089-1.019-0.156-1.507-0.265l-1.444-0.359c-0.982-0.27-1.929-0.604-2.852-0.963
						c-0.929-0.346-1.842-0.715-2.773-0.996c-0.463-0.163-0.933-0.275-1.403-0.385c-0.474-0.139-0.935-0.165-1.402-0.237
						c-0.228-0.046-0.475-0.044-0.725-0.034l-0.742,0.012c-0.188-0.002-0.458,0.081-0.684,0.114
						c-0.235,0.051-0.476,0.081-0.708,0.147c-0.923,0.274-1.844,0.602-2.688,1.087l-0.636,0.362
						c-0.212,0.122-0.398,0.281-0.599,0.42c-0.196,0.146-0.4,0.28-0.591,0.436l-0.542,0.494c-0.73,0.656-1.315,1.452-1.833,2.292
						l-0.039,0.063l-0.003-0.067c-0.001-0.054-0.015-0.114-0.004-0.167l0.03-0.159C140.54,94.929,140.552,94.821,140.564,94.714z"/>
				</g>
				<g>
					<path d="M172.662,98.471l1.965-0.569c0.331-0.083,0.65-0.192,0.967-0.305l0.473-0.162c0.163-0.047,0.305-0.135,0.458-0.198
						l0.448-0.211c0.141-0.073,0.319-0.132,0.426-0.217c0.303-0.184,0.526-0.368,0.817-0.573c0.284-0.2,0.573-0.409,0.916-0.578
						c0.166-0.091,0.349-0.159,0.544-0.215c0.185-0.071,0.404-0.071,0.606-0.102l0.679-0.099l-0.27,0.659
						c-0.167,0.412-0.292,0.851-0.501,1.237c-0.213,0.382-0.392,0.794-0.65,1.145c-0.244,0.36-0.482,0.73-0.767,1.057
						c-0.278,0.332-0.539,0.682-0.847,0.985c-0.303,0.306-0.579,0.642-0.909,0.92c-0.324,0.282-0.631,0.587-0.968,0.854l-1.012,0.8
						l-1.061,0.729l-1.102,0.669c-0.367,0.221-0.759,0.401-1.14,0.597c-0.377,0.203-0.786,0.346-1.179,0.519
						c-0.389,0.179-0.805,0.302-1.214,0.431c-0.404,0.146-0.829,0.231-1.25,0.322c-0.415,0.11-0.849,0.138-1.275,0.181
						c-0.423,0.069-0.861,0.01-1.285,0.002c-0.212,0.006-0.423-0.052-0.632-0.095l-0.62-0.138c0.427,0.006,0.84,0.067,1.256,0.023
						c0.414-0.052,0.827-0.057,1.229-0.168c0.405-0.09,0.808-0.167,1.198-0.313c0.394-0.124,0.787-0.243,1.164-0.418
						c0.38-0.166,0.764-0.309,1.13-0.504c0.365-0.191,0.745-0.354,1.095-0.574c0.353-0.217,0.721-0.402,1.066-0.629l1.032-0.683
						l0.996-0.734l0.96-0.778c0.32-0.261,0.609-0.556,0.914-0.83c0.31-0.27,0.58-0.579,0.872-0.868
						c0.296-0.285,0.544-0.609,0.811-0.919c0.277-0.303,0.49-0.646,0.734-0.972c0.258-0.32,0.427-0.681,0.64-1.022
						c0.207-0.346,0.323-0.723,0.492-1.082l0.41,0.561c-0.132,0.024-0.266-0.005-0.402,0.043c-0.137,0.027-0.275,0.067-0.414,0.133
						c-0.279,0.111-0.558,0.284-0.842,0.459c-0.275,0.171-0.606,0.388-0.903,0.53c-0.178,0.104-0.334,0.132-0.503,0.2l-0.496,0.179
						c-0.167,0.053-0.327,0.134-0.498,0.162l-0.509,0.11c-0.34,0.078-0.677,0.149-1.017,0.192
						C174.018,98.309,173.342,98.394,172.662,98.471z"/>
				</g>
				<g>
					<path d="M165.187,106.435c0.573,0.287,1.119,0.625,1.692,0.91c0.285,0.141,0.575,0.279,0.88,0.366
						c0.149,0.057,0.306,0.083,0.461,0.108c0.148,0.037,0.317,0.018,0.474,0.033c0.161,0.016,0.317-0.012,0.474-0.022
						c0.158-0.008,0.313-0.036,0.471-0.065c0.313-0.048,0.623-0.132,0.935-0.203c0.311-0.076,0.624-0.147,0.939-0.211l0.479-0.074
						l0.486-0.031l0.112-0.008l-0.055,0.098c-0.208,0.366-0.454,0.717-0.772,0.991c-0.304,0.29-0.65,0.526-1.006,0.745
						c-0.362,0.207-0.733,0.397-1.12,0.552c-0.385,0.159-0.778,0.301-1.177,0.414c-0.799,0.232-1.619,0.394-2.45,0.451
						c-0.411,0.028-0.842,0.034-1.25-0.014c-0.412-0.039-0.823-0.059-1.234-0.117l-1.23-0.198l-1.21-0.283
						c-0.404-0.094-0.795-0.235-1.192-0.351c-0.399-0.111-0.782-0.27-1.172-0.409c-0.779-0.28-1.537-0.616-2.286-0.967
						c-0.749-0.348-1.484-0.725-2.22-1.1c0.746,0.357,1.49,0.715,2.247,1.043c0.375,0.174,0.76,0.323,1.142,0.479
						c0.381,0.163,0.762,0.317,1.152,0.449c0.39,0.136,0.774,0.291,1.172,0.398c0.396,0.111,0.787,0.248,1.189,0.338l1.205,0.271
						l1.218,0.187c0.408,0.055,0.823,0.068,1.233,0.105c0.414,0.043,0.813,0.034,1.225,0.003c0.409-0.034,0.815-0.089,1.218-0.168
						c0.404-0.075,0.804-0.164,1.199-0.278c0.396-0.108,0.785-0.245,1.165-0.397c0.381-0.15,0.748-0.335,1.104-0.533
						c0.35-0.211,0.692-0.438,0.988-0.719c0.313-0.266,0.548-0.6,0.751-0.948l0.056,0.092l-0.473,0.027l-0.47,0.069
						c-0.313,0.058-0.624,0.127-0.937,0.201c-0.313,0.067-0.625,0.148-0.943,0.196c-0.159,0.027-0.318,0.054-0.482,0.062
						c-0.162,0.01-0.326,0.035-0.484,0.018c-0.162-0.013-0.318,0.002-0.483-0.04c-0.161-0.029-0.32-0.062-0.471-0.121
						c-0.309-0.099-0.596-0.246-0.881-0.393C166.289,107.089,165.754,106.735,165.187,106.435z"/>
				</g>
				<g>
					<path d="M140.552,97.111c0.021,0.039,0.071-0.035,0.098-0.055l0.094-0.104l0.179-0.208l0.349-0.426l0.349-0.426l0.18-0.21
						l0.094-0.101c0.036-0.024,0.058-0.087,0.114-0.068L142,95.512c0.951-1.398,2.42-2.376,3.977-3
						c0.785-0.309,1.604-0.534,2.438-0.664c0.833-0.136,1.688-0.178,2.527,0c1.674,0.323,3.189,1.116,4.683,1.872
						c1.485,0.773,3.026,1.453,4.642,1.876c1.611,0.433,3.295,0.594,4.958,0.445c1.665-0.149,3.294-0.603,4.829-1.266
						c1.539-0.663,2.982-1.53,4.346-2.506c0.682-0.487,1.352-0.993,1.991-1.538c0.638-0.539,1.271-1.117,2.039-1.469
						c-0.76,0.368-1.375,0.955-2.005,1.51c-0.627,0.558-1.288,1.079-1.964,1.581c-1.357,0.992-2.805,1.874-4.349,2.553
						c-1.542,0.677-3.185,1.148-4.87,1.311c-1.683,0.164-3.393,0.013-5.029-0.415c-1.635-0.437-3.183-1.137-4.669-1.923
						c-1.487-0.765-2.988-1.562-4.627-1.89c-0.811-0.179-1.66-0.146-2.482-0.019c-0.826,0.124-1.638,0.342-2.418,0.644
						c-1.551,0.595-3.031,1.528-4.007,2.903H142c-0.023-0.004-0.067,0.047-0.097,0.072l-0.094,0.101L141.63,95.9l-0.352,0.423
						l-0.353,0.425l-0.18,0.209l-0.093,0.101C140.623,97.076,140.574,97.15,140.552,97.111z"/>
				</g>
			</g>
			<g>
				<path d="M155.564,108.913l0.113,0.363c0.039,0.12,0.067,0.245,0.118,0.36c0.104,0.23,0.204,0.464,0.311,0.691l0.381,0.652
					c0.149,0.202,0.307,0.398,0.459,0.6l0.054,0.069l-0.08,0.011l-0.91,0.139c-0.306-0.003-0.614,0.003-0.92-0.008
					c-0.302-0.05-0.608-0.083-0.908-0.147c-0.292-0.09-0.594-0.159-0.88-0.268c-0.28-0.124-0.57-0.227-0.841-0.368
					c-0.266-0.152-0.542-0.286-0.801-0.451c-0.518-0.328-1-0.705-1.465-1.101l-0.674-0.618l-0.641-0.651
					c-0.412-0.45-0.813-0.908-1.193-1.384c-0.767-0.946-1.448-1.957-2.089-2.989c0.682,1.006,1.408,1.98,2.172,2.92
					c0.385,0.469,0.79,0.92,1.206,1.359l0.645,0.641l0.676,0.603l0.711,0.562c0.242,0.18,0.499,0.337,0.745,0.511
					c0.251,0.166,0.521,0.304,0.78,0.455c0.265,0.145,0.549,0.247,0.821,0.374c0.28,0.11,0.573,0.18,0.859,0.273
					c0.292,0.069,0.59,0.103,0.887,0.156c0.3,0.015,0.6,0.014,0.901,0.021l0.895-0.124l-0.026,0.082
					c-0.152-0.206-0.311-0.409-0.461-0.615l-0.362-0.677c-0.098-0.235-0.189-0.473-0.285-0.71c-0.044-0.118-0.068-0.245-0.103-0.365
					L155.564,108.913z"/>
			</g>
		</g>
		<g>
			<path d="M-9.098,164.264V75.685h-6.155V72.04h5.726c6.579,0,4.249-0.357,7.252-1.072v93.297h9.063v3.646h-20.008v-3.646H-9.098
				L-9.098,164.264z"/>
			<path d="M-9.098,85.123c0.12-5.424-4.049-9.408-11.559-11.871l0.031-1.402l11.822,0.257l-0.03,1.403l2.754,2.598
				c2.422,2.884-1.619,5.995-1.686,9.015"/>
		</g>
		<g>
			<path d="M14.801,164.264V75.685H8.646V72.04h5.726c6.578,0,4.248-0.357,7.251-1.072v93.297h9.063v3.646H10.679v-3.646H14.801
				L14.801,164.264z"/>
			<path d="M14.801,85.123c0.12-5.424-4.049-9.408-11.559-11.871l0.03-1.402l11.824,0.257l-0.032,1.403l2.754,2.598
				c2.423,2.884-1.619,5.995-1.685,9.015"/>
		</g>
	</g>
</g>
</svg>
