<?xml version="1.0" encoding="utf-8"?>
<!-- Generator: Adobe Illustrator 16.0.0, SVG Export Plug-In . SVG Version: 6.00 Build 0)  -->
<!DOCTYPE svg PUBLIC "-//W3C//DTD SVG 1.1//EN" "http://www.w3.org/Graphics/SVG/1.1/DTD/svg11.dtd">
<svg version="1.1" id="Layer_1" xmlns="http://www.w3.org/2000/svg" xmlns:xlink="http://www.w3.org/1999/xlink" x="0px" y="0px"
	 width="38.584px" height="36.05px" viewBox="0 0 38.584 36.05" enable-background="new 0 0 38.584 36.05" xml:space="preserve">
<path fill-rule="evenodd" clip-rule="evenodd" fill="#3A495E" d="M19.19,3.094c1.061-0.691,2.005-1.469,3.078-1.975
	c3.754-1.772,7.447-1.379,10.92,0.746c4.121,2.52,6.026,7.05,5.21,11.806c-0.643,3.752-2.426,6.945-4.708,9.9
	c-2.596,3.362-5.7,6.213-9.064,8.782C23,33.595,21.314,34.761,19.64,35.94c-0.149,0.105-0.474,0.152-0.608,0.062
	C14.03,32.671,9.33,28.979,5.481,24.318c-2.295-2.778-4.182-5.809-5.031-9.365c-1.17-4.896-0.123-9.176,3.919-12.376
	c4.334-3.431,10.558-3.533,14.727,0.441C19.139,3.06,19.189,3.093,19.19,3.094z M19.404,33.381c2.188-1.736,4.422-3.413,6.546-5.22
	c3.325-2.828,6.268-6.009,8.347-9.894c1.359-2.541,2.178-5.221,1.777-8.153c-0.752-5.503-6.569-8.863-11.741-7.273
	c-1.371,0.421-2.526,1.206-3.524,2.234c-0.498,0.513-1.024,0.998-1.506,1.464c-0.539-0.517-1.069-1.008-1.579-1.519
	c-2.025-2.03-4.462-2.848-7.297-2.486c-5.414,0.69-8.903,5.622-7.853,10.954c0.616,3.124,2.089,5.803,3.972,8.285
	C10.06,26.407,14.515,30.015,19.404,33.381z"/>
</svg>
