<svg xmlns="http://www.w3.org/2000/svg" width="149.895" height="201.294" viewBox="0 0 149.895 201.294">
  <g id="Groupe_342" data-name="Groupe 342" transform="translate(-881 -4168)">
    <rect id="Rectangle_212" data-name="Rectangle 212" width="94" height="180" rx="16" transform="translate(942.564 4168) rotate(20)" fill="#f0b3a3"/>
    <g id="Groupe_3" data-name="Groupe 3" transform="translate(947.32 4182) rotate(20)">
      <g id="Groupe_2" data-name="Groupe 2">
        <path id="Tracé_1" data-name="Tracé 1" d="M480.377,235.558a11.485,11.485,0,0,1-11.27,11.668H415.576a11.485,11.485,0,0,1-11.27-11.668V102.975a11.467,11.467,0,0,1,11.27-11.645h53.531a11.467,11.467,0,0,1,11.27,11.645Z" transform="translate(-404.306 -91.33)" fill="#fff" stroke="#000" stroke-miterlimit="10" stroke-width="1.664"/>
        <rect id="Rectangle_1" data-name="Rectangle 1" width="65.415" height="114.888" transform="translate(5.337 21.598)" stroke="#000" stroke-miterlimit="10" stroke-width="0.442"/>
        <path id="Tracé_2" data-name="Tracé 2" d="M428.114,146.3a6.418,6.418,0,1,1-6.43-6.428A6.423,6.423,0,0,1,428.114,146.3Z" transform="translate(-383.651 0.048)" fill="none" stroke="#000" stroke-miterlimit="10" stroke-width="1"/>
        <g id="Groupe_1" data-name="Groupe 1" transform="translate(36.171 12.642)">
          <path id="Tracé_3" data-name="Tracé 3" d="M420.611,97.6a1.878,1.878,0,0,1-3.756,0,1.878,1.878,0,1,1,3.756,0Z" transform="translate(-416.855 -95.716)"/>
        </g>
      </g>
    </g>
  </g>
</svg>
