<svg xmlns="http://www.w3.org/2000/svg" width="151.413" height="132.559" viewBox="0 0 151.413 132.559">
  <g id="Groupe_344" data-name="Groupe 344" transform="translate(-1630.941 -4210.941)">
    <g id="Groupe_333" data-name="Groupe 333" transform="translate(644.843 3477.688)">
      <path id="Tracé_8" data-name="Tracé 8" d="M1078.1,809.18a11.352,11.352,0,0,1-15.917,2.2l-50.863-38.4a11.408,11.408,0,0,1-2.222-15.935h0a11.4,11.4,0,0,1,15.931-2.222l50.85,38.433a11.379,11.379,0,0,1,2.222,15.931Z" transform="translate(51.105 46.111)" fill="#f0b3a3" stroke="#f0b3a3" stroke-miterlimit="10" stroke-width="12"/>
      <path id="Tracé_9" data-name="Tracé 9" d="M1031.367,772.106a2.039,2.039,0,0,1-2.9.386l-9.3-6.994a2.079,2.079,0,0,1-.408-2.918h0a2.054,2.054,0,0,1,2.927-.4l9.3,7.012a2.079,2.079,0,0,1,.382,2.909Z" transform="translate(91.342 78.273)" fill="#f0b3a3" stroke="#f0b3a3" stroke-miterlimit="10" stroke-width="12"/>
      <path id="Tracé_10" data-name="Tracé 10" d="M1073.7,749.61a50.871,50.871,0,1,1-71.265,9.907A50.853,50.853,0,0,1,1073.7,749.61Z" transform="translate(0 0)" fill="#f0b3a3" stroke="#f0b3a3" stroke-miterlimit="10" stroke-width="12"/>
      <path id="Tracé_11" data-name="Tracé 11" d="M1007.949,791.624a32.185,32.185,0,0,1-6.285-45.09" transform="translate(10.458 25.197)" fill="#f0b3a3" stroke="#f0b3a3" stroke-linecap="round" stroke-miterlimit="10" stroke-width="12"/>
    </g>
    <g id="Groupe_321" data-name="Groupe 321" transform="translate(649.843 3487.688)">
      <path id="Tracé_8-2" data-name="Tracé 8" d="M1072.178,804.478a10.41,10.41,0,0,1-14.6,2.013l-46.642-35.215a10.461,10.461,0,0,1-2.037-14.613h0a10.451,10.451,0,0,1,14.609-2.037l46.629,35.243a10.435,10.435,0,0,1,2.037,14.609Z" transform="translate(45.647 41.187)" fill="#fff" stroke="#000" stroke-miterlimit="10" stroke-width="5"/>
      <path id="Tracé_9-2" data-name="Tracé 9" d="M1030.286,771.247a1.87,1.87,0,0,1-2.659.354l-8.525-6.413a1.906,1.906,0,0,1-.374-2.676h0a1.884,1.884,0,0,1,2.684-.362l8.525,6.43a1.906,1.906,0,0,1,.35,2.667Z" transform="translate(81.588 69.915)" stroke="#000" stroke-miterlimit="10" stroke-width="5"/>
      <path id="Tracé_10-2" data-name="Tracé 10" d="M1066.936,748.755a46.648,46.648,0,1,1-65.35,9.085A46.632,46.632,0,0,1,1066.936,748.755Z" transform="translate(0 0)" fill="#fff" stroke="#000" stroke-miterlimit="10" stroke-width="5"/>
      <path id="Tracé_11-2" data-name="Tracé 11" d="M1006.887,787.882a29.513,29.513,0,0,1-5.763-41.348" transform="translate(9.341 22.506)" fill="#fff" stroke="#000" stroke-linecap="round" stroke-miterlimit="10" stroke-width="5"/>
    </g>
  </g>
</svg>
