<svg xmlns="http://www.w3.org/2000/svg" xmlns:xlink="http://www.w3.org/1999/xlink" width="158" height="160" viewBox="0 0 158 160">
  <defs>
    <clipPath id="clip-path">
      <circle id="Ellipse_19" data-name="Ellipse 19" cx="65.5" cy="65.5" r="65.5" transform="translate(1223 4222)" stroke="#707070" stroke-width="3"/>
    </clipPath>
  </defs>
  <g id="Groupe_343" data-name="Groupe 343" transform="translate(-1248 -4195)">
    <circle id="Ellipse_24" data-name="Ellipse 24" cx="79" cy="79" r="79" transform="translate(1248 4195)" fill="#f0b3a3"/>
    <g id="Groupe_334" data-name="Groupe 334">
      <g id="Groupe_de_masques_35" data-name="Groupe de masques 35" transform="translate(39)" clip-path="url(#clip-path)">
        <g id="Tracé_201" data-name="Tracé 201" transform="translate(1223 4222)">
          <path d="M 65.5 129.5 C 56.85940170288086 129.5 48.47803497314453 127.8080520629883 40.58876419067383 124.4711837768555 C 36.79683685302734 122.8673248291016 33.13938140869141 120.8821105957031 29.71803665161133 118.5706939697266 C 26.32880020141602 116.2809829711914 23.14167213439941 113.6513442993164 20.24516296386719 110.7548370361328 C 17.34865379333496 107.8583297729492 14.71901798248291 104.6712036132813 12.42930889129639 101.2819671630859 C 10.11789131164551 97.86061859130859 8.132672309875488 94.20316314697266 6.528818130493164 90.41123962402344 C 3.191945552825928 82.52196502685547 1.5 74.14060211181641 1.5 65.5 C 1.5 56.85940170288086 3.191945552825928 48.47803497314453 6.528818130493164 40.58876419067383 C 8.132672309875488 36.79683685302734 10.11789131164551 33.13938140869141 12.42930889129639 29.71803665161133 C 14.71901798248291 26.32880020141602 17.34865379333496 23.14167213439941 20.24516296386719 20.24516296386719 C 23.14167213439941 17.34865379333496 26.32880020141602 14.71901798248291 29.71803665161133 12.42930889129639 C 33.13938140869141 10.11789131164551 36.79683685302734 8.132672309875488 40.58876419067383 6.528818130493164 C 48.47803497314453 3.191945552825928 56.85940170288086 1.5 65.5 1.5 C 74.14060211181641 1.5 82.52196502685547 3.191945552825928 90.41123962402344 6.528818130493164 C 94.20316314697266 8.132672309875488 97.86061859130859 10.11789131164551 101.2819671630859 12.42930889129639 C 104.6712036132813 14.71901798248291 107.8583297729492 17.34865379333496 110.7548370361328 20.24516296386719 C 113.6513442993164 23.14167213439941 116.2809829711914 26.32880020141602 118.5706939697266 29.71803665161133 C 120.8821105957031 33.13938140869141 122.8673248291016 36.79683685302734 124.4711837768555 40.58876419067383 C 127.8080520629883 48.47803497314453 129.5 56.85940170288086 129.5 65.5 C 129.5 74.14060211181641 127.8080520629883 82.52196502685547 124.4711837768555 90.41123962402344 C 122.8673248291016 94.20316314697266 120.8821105957031 97.86061859130859 118.5706939697266 101.2819671630859 C 116.2809829711914 104.6712036132813 113.6513442993164 107.8583297729492 110.7548370361328 110.7548370361328 C 107.8583297729492 113.6513442993164 104.6712036132813 116.2809829711914 101.2819671630859 118.5706939697266 C 97.86061859130859 120.8821105957031 94.20316314697266 122.8673248291016 90.41123962402344 124.4711837768555 C 82.52196502685547 127.8080520629883 74.14060211181641 129.5 65.5 129.5 Z" stroke="none"/>
          <path d="M 65.5 3 C 57.06121826171875 3 48.87648010253906 4.652076721191406 41.17310333251953 7.910316467285156 C 37.47035980224609 9.476463317871094 33.89884185791016 11.4150390625 30.5577392578125 13.6722412109375 C 27.24761962890625 15.90852355957031 24.13481903076172 18.47682189941406 21.30581665039063 21.30581665039063 C 18.47682189941406 24.13481903076172 15.90852355957031 27.24761962890625 13.6722412109375 30.5577392578125 C 11.4150390625 33.89884185791016 9.476463317871094 37.47035980224609 7.910316467285156 41.17310333251953 C 4.652076721191406 48.87648010253906 3 57.06121826171875 3 65.5 C 3 73.93878173828125 4.652076721191406 82.12351989746094 7.910316467285156 89.826904296875 C 9.476463317871094 93.52964019775391 11.4150390625 97.10115814208984 13.6722412109375 100.4422607421875 C 15.90852355957031 103.7523803710938 18.47682189941406 106.8651809692383 21.30581665039063 109.6941833496094 C 24.13481903076172 112.5231781005859 27.24761962890625 115.0914764404297 30.5577392578125 117.3277587890625 C 33.89884185791016 119.5849609375 37.47035980224609 121.5235366821289 41.17310333251953 123.0896835327148 C 48.87648010253906 126.3479232788086 57.06121826171875 128 65.5 128 C 73.93878173828125 128 82.12351989746094 126.3479232788086 89.826904296875 123.0896835327148 C 93.52964019775391 121.5235366821289 97.10115814208984 119.5849609375 100.4422607421875 117.3277587890625 C 103.7523803710938 115.0914764404297 106.8651809692383 112.5231781005859 109.6941833496094 109.6941833496094 C 112.5231781005859 106.8651809692383 115.0914764404297 103.7523803710938 117.3277587890625 100.4422607421875 C 119.5849609375 97.10115814208984 121.5235366821289 93.52964019775391 123.0896835327148 89.826904296875 C 126.3479232788086 82.12351989746094 128 73.93878173828125 128 65.5 C 128 57.06121826171875 126.3479232788086 48.87648010253906 123.0896835327148 41.17310333251953 C 121.5235366821289 37.47035980224609 119.5849609375 33.89884185791016 117.3277587890625 30.5577392578125 C 115.0914764404297 27.24761962890625 112.5231781005859 24.13481903076172 109.6941833496094 21.30581665039063 C 106.8651809692383 18.47682189941406 103.7523803710938 15.90852355957031 100.4422607421875 13.6722412109375 C 97.10115814208984 11.4150390625 93.52964019775391 9.476463317871094 89.826904296875 7.910316467285156 C 82.12351989746094 4.652076721191406 73.93878173828125 3 65.5 3 M 65.5 0 C 101.6746597290039 0 131 29.32534027099609 131 65.5 C 131 101.6746597290039 101.6746597290039 131 65.5 131 C 29.32534027099609 131 0 101.6746597290039 0 65.5 C 0 29.32534027099609 29.32534027099609 0 65.5 0 Z" stroke="none"/>
        </g>
        <g id="Groupe_331" data-name="Groupe 331" transform="translate(688 -9)">
          <g id="Groupe_328" data-name="Groupe 328" transform="translate(-29 2.334)">
            <g id="Ellipse_17" data-name="Ellipse 17" transform="translate(557 4287.666)" fill="#fff" stroke="#000" stroke-width="3">
              <circle cx="35" cy="35" r="35" stroke="none"/>
              <circle cx="35" cy="35" r="33.5" fill="none"/>
            </g>
            <g id="Ellipse_18" data-name="Ellipse 18" transform="translate(573 4250.666)" fill="#fff" stroke="#000" stroke-width="3">
              <circle cx="19" cy="19" r="19" stroke="none"/>
              <circle cx="19" cy="19" r="17.5" fill="none"/>
            </g>
          </g>
          <g id="Groupe_330" data-name="Groupe 330" transform="translate(46 2.334)">
            <g id="Ellipse_17-2" data-name="Ellipse 17" transform="translate(557 4287.666)" fill="#fff" stroke="#000" stroke-width="3">
              <circle cx="35" cy="35" r="35" stroke="none"/>
              <circle cx="35" cy="35" r="33.5" fill="none"/>
            </g>
            <g id="Ellipse_18-2" data-name="Ellipse 18" transform="translate(573 4250.666)" fill="#fff" stroke="#000" stroke-width="3">
              <circle cx="19" cy="19" r="19" stroke="none"/>
              <circle cx="19" cy="19" r="17.5" fill="none"/>
            </g>
          </g>
        </g>
        <g id="Groupe_329" data-name="Groupe 329" transform="translate(697 10.333)">
          <g id="Ellipse_17-3" data-name="Ellipse 17" transform="translate(557 4287.666)" fill="#fff" stroke="#000" stroke-width="3">
            <circle cx="35" cy="35" r="35" stroke="none"/>
            <circle cx="35" cy="35" r="33.5" fill="none"/>
          </g>
          <g id="Ellipse_18-3" data-name="Ellipse 18" transform="translate(573 4250.666)" fill="#fff" stroke="#000" stroke-width="3">
            <circle cx="19" cy="19" r="19" stroke="none"/>
            <circle cx="19" cy="19" r="17.5" fill="none"/>
          </g>
        </g>
      </g>
      <g id="Ellipse_23" data-name="Ellipse 23" transform="translate(1261 4221)" fill="none" stroke="#000" stroke-width="3">
        <circle cx="67" cy="67" r="67" stroke="none"/>
        <circle cx="67" cy="67" r="65.5" fill="none"/>
      </g>
    </g>
  </g>
</svg>
