<?xml version="1.0" encoding="utf-8"?>
<!-- Generator: Adobe Illustrator 16.0.0, SVG Export Plug-In . SVG Version: 6.00 Build 0)  -->
<!DOCTYPE svg PUBLIC "-//W3C//DTD SVG 1.1//EN" "http://www.w3.org/Graphics/SVG/1.1/DTD/svg11.dtd">
<svg version="1.1" id="Layer_1" xmlns="http://www.w3.org/2000/svg" xmlns:xlink="http://www.w3.org/1999/xlink" x="0px" y="0px"
	 width="33.13px" height="30.649px" viewBox="0 0 33.13 30.649" enable-background="new 0 0 33.13 30.649" xml:space="preserve">
<g>
	<path fill="#F0B3A3" stroke="#F0B3A3" stroke-width="2" stroke-miterlimit="10" d="M20.929,23.025
		c-1.201-1.012-1.354-2.805-0.343-4.007l0,0c1.012-1.202,2.806-1.354,4.007-0.343l6.525,5.496c1.201,1.012,1.354,2.806,0.343,4.007
		l0,0c-1.013,1.201-2.806,1.355-4.007,0.343L20.929,23.025z"/>
	<circle fill="#F0B3A3" stroke="#F0B3A3" stroke-width="2" stroke-miterlimit="10" cx="13.462" cy="13.462" r="12.458"/>
	<path fill="#FFFFFF" stroke="#000000" stroke-miterlimit="10" d="M21.216,23.983c-1.2-1.012-1.354-2.806-0.343-4.007l0,0
		c1.012-1.202,2.807-1.355,4.008-0.344l6.524,5.497c1.201,1.012,1.354,2.806,0.343,4.007l0,0c-1.013,1.201-2.806,1.355-4.007,0.343
		L21.216,23.983z"/>
	<path d="M26.308,26.104c-0.491-0.412-0.554-1.145-0.141-1.635l0,0c0.413-0.491,1.146-0.554,1.637-0.141l2.663,2.243
		c0.49,0.414,0.553,1.146,0.14,1.637l0,0c-0.413,0.49-1.145,0.554-1.636,0.14L26.308,26.104z"/>
	<circle fill="#FFFFFF" stroke="#000000" stroke-width="0.9465" stroke-miterlimit="10" cx="13.758" cy="14.446" r="11.792"/>
	<g>
		<path fill="#FFFFFF" d="M3.636,12.611c0,0,0.057,10.336,11.975,12.067"/>
		<path d="M3.686,12.61c0,0,0.012,0.287,0.099,0.784c0.084,0.496,0.229,1.202,0.514,2.014c0.126,0.41,0.313,0.836,0.509,1.283
			c0.212,0.44,0.439,0.903,0.716,1.355c0.288,0.446,0.575,0.911,0.944,1.328c0.328,0.448,0.744,0.829,1.144,1.22
			c0.397,0.394,0.884,0.688,1.309,1.03c0.471,0.28,0.934,0.556,1.383,0.822c0.464,0.239,0.928,0.44,1.351,0.673
			c0.431,0.218,0.872,0.349,1.26,0.523c0.394,0.159,0.749,0.338,1.088,0.421c0.333,0.1,0.623,0.195,0.862,0.285
			c0.479,0.166,0.755,0.279,0.755,0.279l-0.014,0.1c0,0-0.292,0-0.807-0.033c-0.512-0.039-1.262-0.052-2.122-0.288
			c-0.43-0.115-0.913-0.2-1.39-0.393c-0.479-0.19-0.972-0.42-1.484-0.653c-0.47-0.315-0.968-0.62-1.438-0.977
			c-0.434-0.406-0.92-0.764-1.313-1.219c-0.401-0.445-0.813-0.879-1.131-1.375c-0.359-0.466-0.633-0.975-0.901-1.461
			c-0.256-0.492-0.471-0.985-0.646-1.46c-0.163-0.48-0.316-0.933-0.409-1.364c-0.219-0.854-0.304-1.583-0.346-2.091
			c-0.044-0.509-0.03-0.803-0.03-0.803L3.686,12.61z"/>
	</g>
</g>
</svg>
