<?xml version="1.0" encoding="utf-8"?>
<!-- Generator: Adobe Illustrator 16.0.0, SVG Export Plug-In . SVG Version: 6.00 Build 0)  -->
<!DOCTYPE svg PUBLIC "-//W3C//DTD SVG 1.1//EN" "http://www.w3.org/Graphics/SVG/1.1/DTD/svg11.dtd">
<svg version="1.1" id="Layer_1" xmlns="http://www.w3.org/2000/svg" xmlns:xlink="http://www.w3.org/1999/xlink" x="0px" y="0px"
	 width="31.35px" height="31.345px" viewBox="0 0 31.35 31.345" enable-background="new 0 0 31.35 31.345" xml:space="preserve">
<g>
	<path fill="#F0B3A3" stroke="#F0B3A3" stroke-width="2" stroke-miterlimit="10" d="M29.872,19.569
		c0.605,0.6,0.666,1.592,0.005,2.174c-0.49,0.43-0.931,0.916-1.394,1.378c-2.27,2.271-4.548,4.536-6.807,6.819
		c-0.516,0.521-1.447,0.535-1.941,0.06c-0.326-0.313-0.646-0.631-0.967-0.947c-1.205-1.192-2.4-2.396-3.6-3.595
		c-1.057-1.057-2.113-2.113-3.17-3.17c-1.164-1.164-2.329-2.328-3.494-3.494c-1.061-1.063-2.121-2.125-3.182-3.188
		C4,14.277,2.646,12.978,1.361,11.608c-0.494-0.527-0.479-1.35,0.027-1.867c0.379-0.386,0.766-0.765,1.148-1.147
		c1.902-1.902,3.812-3.797,5.7-5.711c0.488-0.494,0.975-0.989,1.476-1.469c0.147-0.142,0.302-0.27,0.499-0.331
		c0.592-0.185,1.1-0.061,1.544,0.384c3.02,3.027,6.044,6.048,9.067,9.071C23.837,13.552,26.841,16.574,29.872,19.569z
		 M18.977,28.764c0.247,0.247,0.247,0.248,0.491,0.004c3.098-3.097,6.193-6.194,9.291-9.29c0.264-0.264,0.264-0.269,0.006-0.526
		c-5.447-5.446-10.894-10.894-16.341-16.34c-0.05-0.049-0.099-0.097-0.149-0.146c-0.08-0.076-0.158-0.075-0.237,0.001
		c-0.05,0.048-0.101,0.097-0.149,0.146C9.823,4.677,7.759,6.742,5.694,8.806c-1.028,1.027-2.056,2.055-3.083,3.083
		c-0.256,0.255-0.254,0.256-0.004,0.505c2.728,2.729,5.456,5.457,8.185,8.186S16.249,26.036,18.977,28.764z M23.563,25.312
		c-0.203,0.207-0.207,0.392-0.012,0.597c0.115,0.121,0.232,0.24,0.354,0.354c0.175,0.162,0.375,0.179,0.539,0.017
		c0.619-0.607,1.232-1.222,1.841-1.839c0.16-0.164,0.148-0.371-0.007-0.545c-0.119-0.135-0.248-0.263-0.382-0.383
		c-0.188-0.169-0.366-0.162-0.551,0.019c-0.308,0.302-0.61,0.607-0.914,0.911C24.142,24.732,23.852,25.021,23.563,25.312z
		 M7.708,5.555c0.08-0.081,0.148-0.167,0.139-0.29c-0.015-0.187-0.2-0.301-0.383-0.234C7.372,5.065,7.3,5.133,7.231,5.202
		C6.554,5.88,5.876,6.557,5.198,7.236C5.159,7.275,5.12,7.315,5.091,7.361C4.997,7.498,4.983,7.636,5.114,7.754
		c0.129,0.118,0.27,0.104,0.395-0.007c0.115-0.102,0.219-0.213,0.326-0.321c0.271-0.269,0.543-0.54,0.813-0.81
		C7.001,6.262,7.354,5.909,7.708,5.555z M9.806,3.466c0.134-0.133,0.139-0.291,0.012-0.423C9.7,2.92,9.517,2.919,9.388,3.041
		C9.264,3.159,9.26,3.346,9.38,3.468C9.5,3.59,9.682,3.589,9.806,3.466z"/>
	<path fill="#FFFFFF" stroke="#000000" stroke-width="0.25" stroke-miterlimit="10" d="M29.872,19.569
		c0.605,0.6,0.666,1.592,0.005,2.174c-0.49,0.43-0.931,0.916-1.394,1.378c-2.27,2.271-4.548,4.536-6.807,6.819
		c-0.516,0.521-1.447,0.535-1.941,0.06c-0.326-0.313-0.646-0.631-0.967-0.947c-1.205-1.192-2.4-2.396-3.6-3.595
		c-1.057-1.057-2.113-2.113-3.17-3.17c-1.164-1.164-2.329-2.328-3.494-3.494c-1.061-1.063-2.121-2.125-3.182-3.188
		C4,14.277,2.646,12.978,1.361,11.608c-0.494-0.527-0.479-1.35,0.027-1.867c0.379-0.386,0.766-0.765,1.148-1.147
		c1.902-1.902,3.812-3.797,5.7-5.711c0.488-0.494,0.975-0.989,1.476-1.469c0.147-0.142,0.302-0.27,0.499-0.331
		c0.592-0.185,1.1-0.061,1.544,0.384c3.02,3.027,6.044,6.048,9.067,9.071C23.837,13.552,26.841,16.574,29.872,19.569z
		 M18.977,28.764c0.247,0.247,0.247,0.248,0.491,0.004c3.098-3.097,6.193-6.194,9.291-9.29c0.264-0.264,0.264-0.269,0.006-0.526
		c-5.447-5.446-10.894-10.894-16.341-16.34c-0.05-0.049-0.099-0.097-0.149-0.146c-0.08-0.076-0.158-0.075-0.237,0.001
		c-0.05,0.048-0.101,0.097-0.149,0.146C9.823,4.677,7.759,6.742,5.694,8.806c-1.028,1.027-2.056,2.055-3.083,3.083
		c-0.256,0.255-0.254,0.256-0.004,0.505c2.728,2.729,5.456,5.457,8.185,8.186S16.249,26.036,18.977,28.764z M23.563,25.312
		c-0.203,0.207-0.207,0.392-0.012,0.597c0.115,0.121,0.232,0.24,0.354,0.354c0.175,0.162,0.375,0.179,0.539,0.017
		c0.619-0.607,1.232-1.222,1.841-1.839c0.16-0.164,0.148-0.371-0.007-0.545c-0.119-0.135-0.248-0.263-0.382-0.383
		c-0.188-0.169-0.366-0.162-0.551,0.019c-0.308,0.302-0.61,0.607-0.914,0.911C24.142,24.732,23.852,25.021,23.563,25.312z
		 M7.708,5.555c0.08-0.081,0.148-0.167,0.139-0.29c-0.015-0.187-0.2-0.301-0.383-0.234C7.372,5.065,7.3,5.133,7.231,5.202
		C6.554,5.88,5.876,6.557,5.198,7.236C5.159,7.275,5.12,7.315,5.091,7.361C4.997,7.498,4.983,7.636,5.114,7.754
		c0.129,0.118,0.27,0.104,0.395-0.007c0.115-0.102,0.219-0.213,0.326-0.321c0.271-0.269,0.543-0.54,0.813-0.81
		C7.001,6.262,7.354,5.909,7.708,5.555z M9.806,3.466c0.134-0.133,0.139-0.291,0.012-0.423C9.7,2.92,9.517,2.919,9.388,3.041
		C9.264,3.159,9.26,3.346,9.38,3.468C9.5,3.59,9.682,3.589,9.806,3.466z"/>
	<path fill-rule="evenodd" clip-rule="evenodd" fill="none" d="M20.073,30.37c-0.479-0.318-0.84-0.762-1.24-1.16
		c-2.201-2.193-4.398-4.391-6.596-6.588c-1.269-1.268-2.535-2.539-3.803-3.807c-2.338-2.342-4.679-4.68-7.019-7.019
		c-0.152-0.152-0.309-0.3-0.408-0.497c0.037,0.17,0.133,0.311,0.252,0.434c0.293,0.297,0.59,0.592,0.883,0.887
		c5.782,5.78,11.563,11.563,17.343,17.344C19.658,30.136,19.833,30.298,20.073,30.37z"/>
	<path fill-rule="evenodd" clip-rule="evenodd" fill="none" d="M30.368,21.302c-0.445,0.661-1.059,1.161-1.609,1.715
		c-2.254,2.268-4.519,4.521-6.777,6.783c-0.205,0.206-0.43,0.388-0.67,0.551c0.205-0.059,0.359-0.189,0.505-0.336
		c0.854-0.854,1.709-1.709,2.563-2.564c1.872-1.871,3.744-3.743,5.616-5.614C30.153,21.679,30.294,21.513,30.368,21.302z"/>
	<path fill-rule="evenodd" clip-rule="evenodd" fill="none" d="M29.226,18.94c-4.026-4.025-8.053-8.051-12.078-12.077
		c-0.006,0.006-0.012,0.012-0.018,0.018c4.021,4.022,8.043,8.045,12.066,12.066C29.206,18.945,29.216,18.942,29.226,18.94z"/>
	<path fill-rule="evenodd" clip-rule="evenodd" d="M2.607,12.394c-0.25-0.249-0.252-0.25,0.004-0.505
		c1.027-1.028,2.055-2.055,3.083-3.083c2.064-2.064,4.129-4.129,6.193-6.194c0.049-0.049,0.1-0.098,0.149-0.146
		c0.079-0.076,0.157-0.077,0.237-0.001c0.051,0.049,0.1,0.097,0.149,0.146c5.447,5.447,10.894,10.894,16.341,16.34
		c0.258,0.258,0.258,0.263-0.006,0.526c-3.098,3.096-6.193,6.193-9.291,9.29c-0.244,0.244-0.244,0.243-0.491-0.004
		c-2.728-2.728-5.456-5.456-8.185-8.185S5.335,15.122,2.607,12.394z M18.98,28.579c0.245,0.245,0.245,0.245,0.482,0.008
		c3.053-3.053,6.105-6.105,9.157-9.158c0.222-0.222,0.223-0.223,0.006-0.438c-5.416-5.418-10.832-10.834-16.25-16.25
		c-0.215-0.216-0.216-0.216-0.438,0.007c-3.058,3.057-6.115,6.114-9.173,9.171c-0.221,0.223-0.221,0.223,0.008,0.453
		c2.704,2.703,5.407,5.408,8.111,8.111C13.583,23.182,16.282,25.88,18.98,28.579z"/>
	<path fill-rule="evenodd" clip-rule="evenodd" d="M25.346,23.531c0.185-0.181,0.363-0.188,0.551-0.019
		c0.134,0.12,0.263,0.248,0.382,0.383c0.155,0.174,0.167,0.381,0.007,0.545c-0.608,0.617-1.222,1.231-1.841,1.839
		c-0.164,0.162-0.364,0.146-0.539-0.017c-0.121-0.114-0.238-0.233-0.354-0.354c-0.195-0.205-0.191-0.39,0.012-0.597
		c0.288-0.291,0.578-0.579,0.868-0.869C24.735,24.139,25.038,23.833,25.346,23.531z M26.044,24.384
		c0.173-0.178,0.172-0.244,0.006-0.418c-0.428-0.45-0.428-0.451-0.865-0.013c-0.473,0.472-0.944,0.942-1.414,1.414
		c-0.197,0.197-0.196,0.289-0.005,0.489c0.396,0.411,0.396,0.411,0.791,0.015c0.221-0.221,0.442-0.441,0.663-0.662
		C25.494,24.935,25.771,24.661,26.044,24.384z"/>
	<path fill-rule="evenodd" clip-rule="evenodd" d="M5.835,7.426c-0.107,0.108-0.211,0.22-0.326,0.321
		c-0.125,0.11-0.266,0.125-0.395,0.007C4.983,7.636,4.997,7.498,5.091,7.361C5.12,7.315,5.159,7.275,5.198,7.236
		C5.876,6.557,6.554,5.88,7.231,5.202C7.3,5.133,7.372,5.065,7.464,5.031c0.183-0.067,0.368,0.047,0.383,0.234
		c0.01,0.123-0.059,0.209-0.139,0.29C7.354,5.909,7.001,6.262,6.646,6.616C6.378,6.886,6.106,7.157,5.835,7.426z M5.304,7.375
		C5.239,7.443,5.138,7.518,5.241,7.618C5.339,7.71,5.405,7.609,5.466,7.549c0.699-0.695,1.396-1.393,2.092-2.092
		c0.066-0.065,0.171-0.146,0.066-0.242C7.521,5.123,7.448,5.234,7.382,5.299C7.036,5.642,6.694,5.986,6.351,6.33
		C6.001,6.678,5.651,7.026,5.304,7.375z"/>
	<path fill-rule="evenodd" clip-rule="evenodd" d="M9.38,3.468C9.5,3.59,9.682,3.589,9.806,3.466
		c0.134-0.133,0.139-0.291,0.012-0.423C9.7,2.92,9.517,2.919,9.388,3.041C9.264,3.159,9.26,3.346,9.38,3.468z"/>
	<path fill-rule="evenodd" clip-rule="evenodd" d="M10.885,20.483c2.698,2.698,5.397,5.396,8.096,8.096
		c0.245,0.245,0.245,0.245,0.482,0.008c3.053-3.053,6.105-6.105,9.157-9.158c0.222-0.222,0.223-0.223,0.006-0.438
		c-5.416-5.418-10.832-10.834-16.25-16.25c-0.215-0.216-0.216-0.216-0.438,0.007c-3.058,3.057-6.115,6.114-9.173,9.171
		c-0.221,0.223-0.221,0.223,0.008,0.453C5.478,15.075,8.181,17.78,10.885,20.483z"/>
	<path fill-rule="evenodd" clip-rule="evenodd" fill="#FFFFFF" d="M25.22,25.209c0.274-0.274,0.551-0.548,0.824-0.825
		c0.173-0.178,0.172-0.244,0.006-0.418c-0.428-0.45-0.428-0.451-0.865-0.013c-0.473,0.472-0.944,0.942-1.414,1.414
		c-0.197,0.197-0.196,0.289-0.005,0.489c0.396,0.411,0.396,0.411,0.791,0.015C24.777,25.65,24.999,25.43,25.22,25.209z"/>
	<path fill-rule="evenodd" clip-rule="evenodd" fill="#FFFFFF" d="M6.351,6.33c-0.35,0.349-0.699,0.696-1.047,1.046
		C5.239,7.443,5.138,7.518,5.241,7.618C5.339,7.71,5.405,7.609,5.466,7.549c0.699-0.695,1.396-1.393,2.092-2.092
		c0.066-0.065,0.171-0.146,0.066-0.242C7.521,5.123,7.448,5.234,7.382,5.299C7.036,5.642,6.694,5.986,6.351,6.33z"/>
</g>
</svg>
