<?xml version="1.0" encoding="utf-8"?>
<!-- Generator: Adobe Illustrator 16.0.0, SVG Export Plug-In . SVG Version: 6.00 Build 0)  -->
<!DOCTYPE svg PUBLIC "-//W3C//DTD SVG 1.1//EN" "http://www.w3.org/Graphics/SVG/1.1/DTD/svg11.dtd">
<svg version="1.1" id="Layer_1" xmlns="http://www.w3.org/2000/svg" xmlns:xlink="http://www.w3.org/1999/xlink" x="0px" y="0px"
	 width="36.86px" height="36.86px" viewBox="0 0 36.86 36.86" enable-background="new 0 0 36.86 36.86" xml:space="preserve">
<g>
	<circle fill-rule="evenodd" clip-rule="evenodd" fill="#F0B3A3" cx="18.43" cy="18.43" r="18.43"/>
	<path fill-rule="evenodd" clip-rule="evenodd" d="M18.473,4.25c9.06,0.016,16.5,7.525,16.401,16.556
		c-0.098,9.008-7.353,16.074-16.484,16.055C9.267,36.842,2.032,29.725,1.985,20.723C1.938,11.693,9.404,4.234,18.473,4.25z
		 M28.788,31.718c4.945-4.304,6.43-11,3.916-16.964c-2.622-6.222-8.897-10.024-15.563-9.432C10.307,5.93,4.674,10.886,3.284,17.514
		c-1.17,5.58,0.94,11.639,4.843,13.908c0.911-6.817,4.438-10.476,10.152-10.529C24.188,20.837,27.764,24.437,28.788,31.718z"/>
	<path fill-rule="evenodd" clip-rule="evenodd" fill="#FFFFFF" d="M28.784,31.718c-1.025-7.281-4.6-10.881-10.51-10.825
		c-5.713,0.054-9.241,3.712-10.152,10.529C4.22,29.153,2.11,23.094,3.28,17.514c1.39-6.628,7.023-11.584,13.857-12.192
		c6.666-0.593,12.94,3.21,15.563,9.432C35.213,20.717,33.729,27.414,28.784,31.718z M24.066,14.469
		c-0.063-2.979-2.658-5.329-5.731-5.19c-2.981,0.134-5.232,2.47-5.188,5.384c0.047,3.085,2.453,5.248,5.698,5.124
		C21.878,19.669,24.128,17.379,24.066,14.469z"/>
	<path fill-rule="evenodd" clip-rule="evenodd" d="M23.89,14.469c0.061,2.91-2.188,5.2-5.222,5.317
		c-3.245,0.125-5.65-2.038-5.698-5.124c-0.045-2.914,2.206-5.25,5.188-5.384C21.232,9.141,23.826,11.49,23.89,14.469z"/>
</g>
</svg>
