<svg xmlns="http://www.w3.org/2000/svg" width="186" height="107" viewBox="0 0 186 107">
  <g id="Groupe_340" data-name="Groupe 340" transform="translate(-110 -4224)">
    <g id="Rectangle_211" data-name="Rectangle 211" transform="translate(110 4224)" fill="#f0b3a3" stroke="#f0b3a3" stroke-width="2">
      <rect width="186" height="107" stroke="none"/>
      <rect x="1" y="1" width="184" height="105" fill="none"/>
    </g>
    <g id="Groupe_325" data-name="Groupe 325" transform="translate(114.777 4229.185)">
      <g id="Rectangle_210" data-name="Rectangle 210" transform="translate(0.223 -0.185)" fill="#fff" stroke="#3a3939" stroke-linecap="round" stroke-width="5">
        <rect width="177" height="98" stroke="none"/>
        <rect x="2.5" y="2.5" width="172" height="93" fill="none"/>
      </g>
      <g id="Groupe_324" data-name="Groupe 324" transform="translate(1.371 0)">
        <g id="Tracé_200" data-name="Tracé 200" transform="translate(174.616 97.521) rotate(180)" fill="#fff" stroke-linecap="round">
          <path d="M 88.68968963623047 76.37124633789063 C 88.68962097167969 76.37124633789063 88.68959045410156 76.37124633789063 88.68952178955078 76.37124633789063 C 88.06814575195313 76.37119293212891 87.20907592773438 75.90921783447266 86.33262634277344 75.10382080078125 L 86.27639770507813 75.05216979980469 L 86.21712493896484 75.00402069091797 L 3.456102848052979 7.789978504180908 C 2.080717325210571 6.480177879333496 2.54408860206604 4.911025047302246 2.720949411392212 4.457196235656738 C 2.899849414825439 3.998046398162842 3.635099411010742 2.499996423721313 5.584174633026123 2.499996423721313 L 169.0316009521484 2.499996423721313 C 170.9806671142578 2.499996423721313 171.7159271240234 3.998071432113647 171.8948516845703 4.457196235656738 C 172.0722045898438 4.91231107711792 172.5377044677734 6.488840579986572 171.1482543945313 7.800825119018555 L 89.78305053710938 75.82276916503906 L 89.73809814453125 75.86034393310547 L 89.6949462890625 75.89997100830078 C 89.23536682128906 76.32231903076172 88.90114593505859 76.37124633789063 88.68968963623047 76.37124633789063 Z" stroke="none"/>
          <path d="M 88.48880004882813 73.64617919921875 L 169.4761505126953 5.940150737762451 C 169.5742950439453 5.838077545166016 169.6835021972656 5.66783332824707 169.5654754638672 5.36494255065918 C 169.4232635498047 4.999995231628418 169.1684722900391 4.999995231628418 169.0316162109375 4.999995231628418 L 5.584188938140869 4.999995231628418 C 5.447320461273193 4.999995231628418 5.192531108856201 4.999995231628418 5.050320625305176 5.364916324615479 C 4.937708377838135 5.653886318206787 5.031905174255371 5.822109222412109 5.126029491424561 5.925601482391357 L 87.79315948486328 73.06341552734375 L 87.91168975830078 73.15967559814453 L 88.02413940429688 73.26299285888672 C 88.20523834228516 73.42941284179688 88.36072540283203 73.55382537841797 88.48880004882813 73.64617919921875 M 88.68927001953125 78.87123870849609 C 87.31465148925781 78.87110900878906 85.91531372070313 78.1156005859375 84.64102935791016 76.94465637207031 L 1.813373208045959 9.676468849182129 C -1.926626801490784 6.239731788635254 0.5049257874488831 -4.953484676661901e-06 5.584188938140869 -4.953484676661901e-06 L 169.0316162109375 -4.953484676661901e-06 C 174.11083984375 -4.953484676661901e-06 176.5424194335938 6.239731788635254 172.8024291992188 9.676468849182129 L 91.38650512695313 77.74078369140625 C 90.52866363525391 78.52908325195313 89.61466979980469 78.87133026123047 88.68927001953125 78.87123870849609 Z" stroke="none" fill="#3a3939"/>
        </g>
        <g id="Tracé_199" data-name="Tracé 199" transform="translate(174.616 79.21) rotate(180)" fill="#fff" stroke-linecap="round">
          <path d="M 169.0315856933594 76.71038055419922 L 5.584184169769287 76.71038055419922 C 3.635109186172485 76.71038055419922 2.899859189987183 75.21233367919922 2.720959186553955 74.75320434570313 C 2.543726921081543 74.29840087890625 2.078670263290405 72.72370910644531 3.464714288711548 71.4122314453125 L 85.44126129150391 3.393382787704468 L 85.48990631103516 3.353032827377319 L 85.53646087646484 3.310257911682129 C 86.10505676269531 2.787757873535156 86.84348297119141 2.50000786781311 87.61570739746094 2.50000786781311 C 88.38790893554688 2.50000786781311 89.12633514404297 2.787757873535156 89.69493103027344 3.310257911682129 L 89.73808288574219 3.349882841110229 L 89.78301239013672 3.387457847595215 L 171.148193359375 71.40953063964844 C 172.5376892089844 72.72154235839844 172.0721588134766 74.298095703125 171.8948059082031 74.75320434570313 C 171.7159118652344 75.21233367919922 170.9806518554688 76.71038055419922 169.0315856933594 76.71038055419922 Z" stroke="none"/>
          <path d="M 87.61569976806641 4.999992370605469 C 87.46754455566406 4.999992370605469 87.33712005615234 5.050811767578125 87.22804260253906 5.151046752929688 L 87.13493347167969 5.236595153808594 L 87.03762054443359 5.317337036132813 L 5.136062622070313 73.27394104003906 C 5.038864135742188 73.37643432617188 4.9337158203125 73.54620361328125 5.050338745117188 73.84546661376953 C 5.192535400390625 74.21038818359375 5.447311401367188 74.21038818359375 5.58416748046875 74.21038818359375 L 169.0315704345703 74.21038818359375 C 169.1684417724609 74.21038818359375 169.4232330322266 74.21038818359375 169.5654296875 73.84546661376953 C 169.6834564208984 73.5426025390625 169.5743103027344 73.37233734130859 169.4761657714844 73.27024841308594 L 88.17954254150391 5.305496215820313 L 88.08967590332031 5.230361938476563 L 88.00341033935547 5.151100158691406 C 87.89430236816406 5.050834655761719 87.76385498046875 4.999992370605469 87.61569976806641 4.999992370605469 M 87.61569976806641 -7.62939453125e-06 C 88.96807861328125 -7.62939453125e-06 90.32044982910156 0.48980712890625 91.38651275634766 1.469444274902344 L 172.8023834228516 69.53388977050781 C 176.5423889160156 72.97064971923828 174.1108245849609 79.21038818359375 169.0315704345703 79.21038818359375 L 5.58416748046875 79.21038818359375 C 0.50494384765625 79.21038818359375 -1.926620483398438 72.97064971923828 1.8133544921875 69.53388977050781 L 83.84488677978516 1.469444274902344 C 84.91094970703125 0.48980712890625 86.26332855224609 -7.62939453125e-06 87.61569976806641 -7.62939453125e-06 Z" stroke="none" fill="#3a3939"/>
        </g>
      </g>
    </g>
  </g>
</svg>
