<?xml version="1.0" encoding="utf-8"?>
<!-- Generator: Adobe Illustrator 16.0.0, SVG Export Plug-In . SVG Version: 6.00 Build 0)  -->
<!DOCTYPE svg PUBLIC "-//W3C//DTD SVG 1.1//EN" "http://www.w3.org/Graphics/SVG/1.1/DTD/svg11.dtd">
<svg version="1.1" id="Layer_1" xmlns="http://www.w3.org/2000/svg" xmlns:xlink="http://www.w3.org/1999/xlink" x="0px" y="0px"
	 width="31.35px" height="31.345px" viewBox="0 0 31.35 31.345" enable-background="new 0 0 31.35 31.345" xml:space="preserve">
<g>
	<path fill="#F0B3A3" stroke="#F0B3A3" stroke-width="2" stroke-miterlimit="10" d="M10.526,10.538
		c3.023-3.023,6.048-6.044,9.067-9.071c0.445-0.445,0.952-0.569,1.544-0.384c0.198,0.062,0.351,0.189,0.499,0.331
		c0.501,0.48,0.987,0.976,1.475,1.469c1.89,1.914,3.798,3.809,5.701,5.711c0.383,0.382,0.77,0.761,1.148,1.147
		c0.506,0.518,0.521,1.34,0.027,1.868c-1.285,1.369-2.639,2.668-3.962,3.997c-1.061,1.063-2.121,2.126-3.182,3.189
		c-1.165,1.165-2.33,2.329-3.494,3.494c-1.057,1.057-2.113,2.113-3.169,3.17c-1.2,1.199-2.394,2.402-3.6,3.595
		c-0.32,0.316-0.641,0.635-0.966,0.947c-0.495,0.476-1.426,0.462-1.942-0.06c-2.259-2.283-4.537-4.548-6.807-6.819
		c-0.462-0.462-0.903-0.948-1.393-1.378c-0.661-0.582-0.601-1.573,0.005-2.173C4.509,16.574,7.513,13.551,10.526,10.538z
		 M20.558,20.579c2.729-2.729,5.457-5.457,8.185-8.185c0.25-0.25,0.252-0.25-0.004-0.505c-1.027-1.028-2.055-2.055-3.083-3.083
		c-2.064-2.064-4.129-4.129-6.194-6.194c-0.049-0.049-0.1-0.098-0.149-0.146c-0.079-0.076-0.158-0.077-0.237-0.001
		c-0.05,0.049-0.1,0.097-0.149,0.146c-5.447,5.447-10.894,10.894-16.34,16.34c-0.258,0.258-0.258,0.262,0.005,0.526
		c3.097,3.097,6.194,6.194,9.291,9.291c0.244,0.244,0.245,0.243,0.492-0.004C15.101,26.036,17.83,23.308,20.558,20.579z
		 M6.918,24.442c-0.304-0.304-0.606-0.61-0.914-0.911c-0.184-0.181-0.363-0.188-0.551-0.019c-0.133,0.12-0.262,0.249-0.382,0.383
		c-0.155,0.174-0.167,0.38-0.007,0.544c0.608,0.618,1.222,1.232,1.841,1.839c0.165,0.162,0.364,0.146,0.539-0.017
		c0.122-0.114,0.239-0.233,0.354-0.354c0.195-0.205,0.191-0.39-0.012-0.597C7.498,25.02,7.208,24.732,6.918,24.442z M24.703,6.616
		c0.27,0.27,0.54,0.541,0.812,0.81c0.107,0.108,0.212,0.22,0.326,0.321c0.125,0.11,0.266,0.125,0.395,0.007
		c0.132-0.118,0.117-0.257,0.024-0.394c-0.03-0.045-0.069-0.086-0.108-0.125c-0.677-0.679-1.355-1.356-2.032-2.034
		c-0.069-0.069-0.142-0.137-0.233-0.171c-0.182-0.067-0.368,0.047-0.383,0.234c-0.009,0.123,0.059,0.209,0.14,0.29
		C23.996,5.909,24.349,6.262,24.703,6.616z M21.97,3.468c0.12-0.122,0.116-0.309-0.008-0.427c-0.128-0.122-0.312-0.121-0.429,0.002
		c-0.127,0.132-0.123,0.29,0.011,0.423C21.668,3.589,21.85,3.59,21.97,3.468z"/>
	<path fill="#FFFFFF" stroke="#000000" stroke-width="0.25" stroke-miterlimit="10" d="M10.526,10.538
		c3.023-3.023,6.048-6.044,9.067-9.071c0.445-0.445,0.952-0.569,1.544-0.384c0.198,0.062,0.351,0.189,0.499,0.331
		c0.501,0.48,0.987,0.976,1.475,1.469c1.89,1.914,3.798,3.809,5.701,5.711c0.383,0.382,0.77,0.761,1.148,1.147
		c0.506,0.518,0.521,1.34,0.027,1.868c-1.285,1.369-2.639,2.668-3.962,3.997c-1.061,1.063-2.121,2.126-3.182,3.189
		c-1.165,1.165-2.33,2.329-3.494,3.494c-1.057,1.057-2.113,2.113-3.169,3.17c-1.2,1.199-2.394,2.402-3.6,3.595
		c-0.32,0.316-0.641,0.635-0.966,0.947c-0.495,0.476-1.426,0.462-1.942-0.06c-2.259-2.283-4.537-4.548-6.807-6.819
		c-0.462-0.462-0.903-0.948-1.393-1.378c-0.661-0.582-0.601-1.573,0.005-2.173C4.509,16.574,7.513,13.551,10.526,10.538z
		 M20.558,20.579c2.729-2.729,5.457-5.457,8.185-8.185c0.25-0.25,0.252-0.25-0.004-0.505c-1.027-1.028-2.055-2.055-3.083-3.083
		c-2.064-2.064-4.129-4.129-6.194-6.194c-0.049-0.049-0.1-0.098-0.149-0.146c-0.079-0.076-0.158-0.077-0.237-0.001
		c-0.05,0.049-0.1,0.097-0.149,0.146c-5.447,5.447-10.894,10.894-16.34,16.34c-0.258,0.258-0.258,0.262,0.005,0.526
		c3.097,3.097,6.194,6.194,9.291,9.291c0.244,0.244,0.245,0.243,0.492-0.004C15.101,26.036,17.83,23.308,20.558,20.579z
		 M6.918,24.442c-0.304-0.304-0.606-0.61-0.914-0.911c-0.184-0.181-0.363-0.188-0.551-0.019c-0.133,0.12-0.262,0.249-0.382,0.383
		c-0.155,0.174-0.167,0.38-0.007,0.544c0.608,0.618,1.222,1.232,1.841,1.839c0.165,0.162,0.364,0.146,0.539-0.017
		c0.122-0.114,0.239-0.233,0.354-0.354c0.195-0.205,0.191-0.39-0.012-0.597C7.498,25.02,7.208,24.732,6.918,24.442z M24.703,6.616
		c0.27,0.27,0.54,0.541,0.812,0.81c0.107,0.108,0.212,0.22,0.326,0.321c0.125,0.11,0.266,0.125,0.395,0.007
		c0.132-0.118,0.117-0.257,0.024-0.394c-0.03-0.045-0.069-0.086-0.108-0.125c-0.677-0.679-1.355-1.356-2.032-2.034
		c-0.069-0.069-0.142-0.137-0.233-0.171c-0.182-0.067-0.368,0.047-0.383,0.234c-0.009,0.123,0.059,0.209,0.14,0.29
		C23.996,5.909,24.349,6.262,24.703,6.616z M21.97,3.468c0.12-0.122,0.116-0.309-0.008-0.427c-0.128-0.122-0.312-0.121-0.429,0.002
		c-0.127,0.132-0.123,0.29,0.011,0.423C21.668,3.589,21.85,3.59,21.97,3.468z"/>
	<path fill-rule="evenodd" clip-rule="evenodd" fill="none" d="M11.276,30.37c0.479-0.318,0.84-0.762,1.24-1.16
		c2.202-2.193,4.398-4.391,6.596-6.588c1.268-1.268,2.534-2.539,3.803-3.807c2.338-2.341,4.678-4.679,7.018-7.018
		c0.152-0.152,0.309-0.3,0.408-0.498c-0.037,0.171-0.133,0.311-0.252,0.434c-0.293,0.297-0.59,0.592-0.883,0.887
		C23.425,18.4,17.644,24.182,11.864,29.964C11.691,30.136,11.516,30.298,11.276,30.37z"/>
	<path fill-rule="evenodd" clip-rule="evenodd" fill="none" d="M0.981,21.302c0.445,0.661,1.059,1.161,1.61,1.715
		c2.254,2.267,4.518,4.521,6.776,6.783c0.206,0.206,0.43,0.388,0.671,0.551c-0.205-0.059-0.359-0.189-0.505-0.336
		c-0.854-0.854-1.709-1.709-2.564-2.564c-1.872-1.871-3.744-3.743-5.616-5.614C1.196,21.679,1.055,21.513,0.981,21.302z"/>
	<path fill-rule="evenodd" clip-rule="evenodd" fill="none" d="M2.125,18.941c4.026-4.026,8.052-8.052,12.077-12.077
		c0.006,0.006,0.012,0.012,0.018,0.018c-4.022,4.022-8.043,8.044-12.066,12.066C2.144,18.945,2.134,18.943,2.125,18.941z"/>
	<path fill-rule="evenodd" clip-rule="evenodd" d="M20.558,20.579c-2.728,2.729-5.457,5.457-8.185,8.185
		c-0.247,0.247-0.248,0.248-0.492,0.004c-3.097-3.097-6.193-6.194-9.291-9.291c-0.264-0.264-0.263-0.268-0.005-0.526
		c5.447-5.446,10.893-10.894,16.34-16.34c0.049-0.049,0.099-0.097,0.149-0.146c0.08-0.076,0.159-0.075,0.237,0.001
		c0.05,0.048,0.1,0.097,0.149,0.146c2.065,2.064,4.129,4.129,6.194,6.194c1.028,1.027,2.055,2.055,3.083,3.083
		c0.256,0.255,0.254,0.256,0.004,0.505C26.014,15.123,23.286,17.851,20.558,20.579z M20.465,20.483
		c2.704-2.703,5.408-5.407,8.111-8.11c0.229-0.23,0.229-0.231,0.008-0.453c-3.057-3.058-6.115-6.115-9.172-9.172
		c-0.222-0.223-0.223-0.223-0.438-0.007C13.556,8.157,8.14,13.574,2.723,18.991c-0.216,0.216-0.215,0.216,0.006,0.438
		c3.052,3.053,6.104,6.105,9.157,9.158c0.238,0.237,0.238,0.237,0.482-0.008C15.068,25.88,17.766,23.182,20.465,20.483z"/>
	<path fill-rule="evenodd" clip-rule="evenodd" d="M6.918,24.442c0.29,0.29,0.58,0.578,0.868,0.869
		c0.204,0.207,0.207,0.392,0.012,0.597c-0.115,0.121-0.232,0.24-0.354,0.354c-0.175,0.162-0.375,0.179-0.539,0.017
		c-0.619-0.607-1.233-1.221-1.841-1.839c-0.16-0.164-0.148-0.37,0.007-0.544c0.12-0.134,0.249-0.263,0.382-0.383
		c0.188-0.169,0.367-0.162,0.551,0.019C6.312,23.833,6.614,24.139,6.918,24.442z M6.13,25.209c0.221,0.221,0.442,0.441,0.663,0.662
		c0.396,0.396,0.396,0.396,0.791-0.015c0.191-0.2,0.193-0.292-0.004-0.489c-0.47-0.472-0.942-0.942-1.414-1.414
		c-0.438-0.438-0.438-0.438-0.866,0.012c-0.166,0.175-0.167,0.241,0.006,0.418C5.579,24.661,5.855,24.934,6.13,25.209z"/>
	<path fill-rule="evenodd" clip-rule="evenodd" d="M24.704,6.616c-0.354-0.354-0.708-0.708-1.062-1.061
		c-0.081-0.081-0.149-0.167-0.14-0.29c0.015-0.187,0.201-0.301,0.383-0.234c0.092,0.034,0.164,0.102,0.233,0.171
		c0.677,0.678,1.355,1.355,2.032,2.034c0.039,0.039,0.078,0.08,0.108,0.125c0.093,0.137,0.107,0.275-0.024,0.394
		c-0.129,0.118-0.27,0.104-0.395-0.007c-0.114-0.102-0.219-0.213-0.326-0.321C25.243,7.157,24.972,6.886,24.704,6.616z M25,6.33
		c-0.345-0.343-0.687-0.688-1.032-1.03c-0.065-0.065-0.139-0.177-0.242-0.084c-0.104,0.096,0,0.177,0.066,0.242
		c0.696,0.699,1.393,1.396,2.092,2.092c0.061,0.06,0.128,0.161,0.225,0.069c0.104-0.101,0.003-0.175-0.063-0.243
		C25.698,7.026,25.348,6.678,25,6.33z"/>
	<path fill-rule="evenodd" clip-rule="evenodd" d="M21.97,3.468c-0.12,0.122-0.302,0.121-0.426-0.001
		c-0.133-0.133-0.138-0.291-0.011-0.423c0.117-0.123,0.301-0.124,0.429-0.002C22.086,3.159,22.09,3.346,21.97,3.468z"/>
	<path fill-rule="evenodd" clip-rule="evenodd" d="M20.465,20.483c-2.699,2.699-5.397,5.397-8.096,8.096
		c-0.245,0.245-0.245,0.245-0.482,0.008c-3.053-3.052-6.105-6.105-9.157-9.158c-0.222-0.222-0.223-0.223-0.006-0.438
		c5.417-5.417,10.833-10.833,16.25-16.25c0.215-0.216,0.216-0.216,0.438,0.007c3.057,3.057,6.115,6.114,9.172,9.172
		c0.221,0.222,0.221,0.223-0.008,0.453C25.873,15.076,23.168,17.78,20.465,20.483z"/>
	<path fill-rule="evenodd" clip-rule="evenodd" fill="#FFFFFF" d="M6.13,25.209c-0.275-0.275-0.552-0.548-0.824-0.826
		C5.133,24.207,5.134,24.14,5.3,23.965c0.428-0.45,0.428-0.45,0.866-0.012c0.472,0.472,0.944,0.942,1.414,1.414
		c0.197,0.197,0.196,0.289,0.004,0.489c-0.395,0.411-0.395,0.411-0.791,0.015C6.572,25.65,6.351,25.43,6.13,25.209z"/>
	<path fill-rule="evenodd" clip-rule="evenodd" fill="#FFFFFF" d="M25,6.33c0.349,0.349,0.698,0.696,1.046,1.046
		c0.065,0.067,0.166,0.142,0.063,0.243c-0.097,0.092-0.164-0.009-0.225-0.069c-0.699-0.695-1.396-1.393-2.092-2.092
		c-0.066-0.065-0.17-0.146-0.066-0.242c0.103-0.093,0.176,0.019,0.242,0.084C24.313,5.642,24.655,5.986,25,6.33z"/>
</g>
</svg>
