<?xml version="1.0" encoding="utf-8"?>
<!-- Generator: Adobe Illustrator 16.0.0, SVG Export Plug-In . SVG Version: 6.00 Build 0)  -->
<!DOCTYPE svg PUBLIC "-//W3C//DTD SVG 1.1//EN" "http://www.w3.org/Graphics/SVG/1.1/DTD/svg11.dtd">
<svg version="1.1" id="Layer_1" xmlns="http://www.w3.org/2000/svg" xmlns:xlink="http://www.w3.org/1999/xlink" x="0px" y="0px"
	 width="40.992px" height="40.323px" viewBox="0 0 40.992 40.323" enable-background="new 0 0 40.992 40.323" xml:space="preserve">
<g>
	<circle fill-rule="evenodd" clip-rule="evenodd" fill="#F0B3A3" cx="20.538" cy="19.474" r="18.43"/>
	<g>
		<defs>
			<circle id="SVGID_1_" cx="20.538" cy="21.224" r="16.68"/>
		</defs>
		<clipPath id="SVGID_2_">
			<use xlink:href="#SVGID_1_"  overflow="visible"/>
		</clipPath>
		
			<ellipse clip-path="url(#SVGID_2_)" fill-rule="evenodd" clip-rule="evenodd" fill="#FFFFFF" cx="20.496" cy="20.162" rx="20.496" ry="20.161"/>
		<g clip-path="url(#SVGID_2_)">
			<g>
				<path fill-rule="evenodd" clip-rule="evenodd" stroke="#FFFFFF" stroke-width="0.7287" stroke-miterlimit="10" d="
					M15.659,17.613c0.045,2.12-1.595,3.789-3.806,3.874c-2.363,0.091-4.117-1.485-4.151-3.732c-0.033-2.124,1.607-3.826,3.78-3.926
					C13.723,13.729,15.613,15.441,15.659,17.613z"/>
				
					<circle fill-rule="evenodd" clip-rule="evenodd" stroke="#FFFFFF" stroke-width="0.7287" stroke-miterlimit="10" cx="11.681" cy="29.644" r="7.287"/>
			</g>
			<g>
				<path fill-rule="evenodd" clip-rule="evenodd" stroke="#FFFFFF" stroke-width="0.7287" stroke-miterlimit="10" d="
					M33.372,17.613c0.044,2.12-1.595,3.789-3.806,3.874c-2.365,0.091-4.117-1.485-4.151-3.732c-0.033-2.124,1.606-3.826,3.78-3.926
					C31.436,13.729,33.326,15.441,33.372,17.613z"/>
				
					<circle fill-rule="evenodd" clip-rule="evenodd" stroke="#FFFFFF" stroke-width="0.7287" stroke-miterlimit="10" cx="29.394" cy="29.644" r="7.288"/>
			</g>
		</g>
		<g clip-path="url(#SVGID_2_)">
			<path fill-rule="evenodd" clip-rule="evenodd" stroke="#FFFFFF" stroke-width="0.7287" stroke-miterlimit="10" d="M24.689,20.635
				c0.045,2.119-1.596,3.789-3.806,3.875c-2.365,0.091-4.118-1.486-4.151-3.734c-0.034-2.123,1.605-3.826,3.779-3.924
				C22.752,16.75,24.643,18.463,24.689,20.635z"/>
			
				<circle fill-rule="evenodd" clip-rule="evenodd" stroke="#FFFFFF" stroke-width="0.7287" stroke-miterlimit="10" cx="20.71" cy="32.667" r="7.288"/>
		</g>
	</g>
</g>
</svg>
