<?xml version="1.0" encoding="utf-8"?>
<!-- Generator: Adobe Illustrator 16.0.0, SVG Export Plug-In . SVG Version: 6.00 Build 0)  -->
<!DOCTYPE svg PUBLIC "-//W3C//DTD SVG 1.1//EN" "http://www.w3.org/Graphics/SVG/1.1/DTD/svg11.dtd">
<svg version="1.1" id="Layer_1" xmlns="http://www.w3.org/2000/svg" xmlns:xlink="http://www.w3.org/1999/xlink" x="0px" y="0px"
	 width="33.323px" height="30.846px" viewBox="3.836 29.532 33.323 30.846" enable-background="new 3.836 29.532 33.323 30.846"
	 xml:space="preserve">
<g>
	<path fill="#F0B3A3" stroke="#F0B3A3" stroke-width="2" stroke-miterlimit="10" d="M24.764,52.557
		c-1.201-1.012-1.354-2.805-0.343-4.007l0,0c1.012-1.202,2.806-1.354,4.007-0.343l6.525,5.496c1.201,1.012,1.354,2.806,0.343,4.007
		l0,0c-1.013,1.201-2.806,1.355-4.007,0.343L24.764,52.557z"/>
	<circle fill="#F0B3A3" stroke="#F0B3A3" stroke-width="2" stroke-miterlimit="10" cx="17.298" cy="42.994" r="12.458"/>
	<path stroke="#FFFFFF" stroke-miterlimit="10" d="M25.051,53.515c-1.2-1.012-1.354-2.806-0.343-4.007l0,0
		c1.012-1.202,2.807-1.355,4.008-0.344l6.524,5.497c1.201,1.012,1.354,2.806,0.343,4.007l0,0c-1.013,1.201-2.806,1.355-4.007,0.343
		L25.051,53.515z"/>
	<path fill="#FFFFFF" d="M30.143,55.636c-0.491-0.412-0.554-1.145-0.141-1.635l0,0c0.413-0.491,1.146-0.554,1.637-0.141l2.663,2.243
		c0.49,0.414,0.553,1.146,0.14,1.637l0,0c-0.413,0.49-1.145,0.554-1.636,0.14L30.143,55.636z"/>
	<circle stroke="#FFFFFF" stroke-width="0.9465" stroke-miterlimit="10" cx="17.593" cy="43.978" r="11.792"/>
	<g>
		<path d="M7.471,42.143c0,0,0.057,10.336,11.975,12.067"/>
		<path fill="#FFFFFF" d="M7.521,42.142c0,0,0.012,0.287,0.099,0.784c0.084,0.496,0.229,1.202,0.513,2.014
			c0.126,0.41,0.314,0.836,0.509,1.283c0.212,0.44,0.439,0.903,0.716,1.355c0.287,0.446,0.575,0.911,0.944,1.328
			c0.328,0.448,0.744,0.829,1.144,1.22c0.397,0.394,0.883,0.688,1.309,1.03c0.471,0.28,0.934,0.556,1.382,0.822
			c0.464,0.239,0.929,0.44,1.352,0.673c0.43,0.218,0.872,0.349,1.259,0.523c0.394,0.159,0.749,0.338,1.087,0.421
			c0.333,0.1,0.624,0.195,0.863,0.285c0.479,0.166,0.755,0.279,0.755,0.279l-0.014,0.1c0,0-0.292,0-0.807-0.033
			c-0.512-0.039-1.261-0.052-2.123-0.288c-0.43-0.115-0.913-0.2-1.389-0.393c-0.478-0.19-0.972-0.42-1.484-0.653
			c-0.47-0.315-0.969-0.62-1.439-0.977c-0.434-0.406-0.92-0.764-1.313-1.219c-0.401-0.445-0.813-0.879-1.131-1.375
			c-0.359-0.466-0.632-0.975-0.901-1.461c-0.255-0.492-0.471-0.985-0.646-1.46c-0.163-0.48-0.315-0.933-0.409-1.364
			c-0.218-0.854-0.303-1.583-0.345-2.091c-0.043-0.509-0.031-0.803-0.03-0.803L7.521,42.142z"/>
	</g>
</g>
</svg>
