<?xml version="1.0" encoding="utf-8"?>
<!-- Generator: Adobe Illustrator 16.0.0, SVG Export Plug-In . SVG Version: 6.00 Build 0)  -->
<!DOCTYPE svg PUBLIC "-//W3C//DTD SVG 1.1//EN" "http://www.w3.org/Graphics/SVG/1.1/DTD/svg11.dtd">
<svg version="1.1" id="Layer_1" xmlns="http://www.w3.org/2000/svg" xmlns:xlink="http://www.w3.org/1999/xlink" x="0px" y="0px"
	 width="398.217px" height="208.811px" viewBox="0 0 398.217 208.811" enable-background="new 0 0 398.217 208.811"
	 xml:space="preserve">
<g>
	<g>
		<path fill="#FFFFFF" d="M82.315,118.446l-67.226-0.402c-2.61,25.098,4.819,47.986,29.964,48.004
			c15.957,0.011,29.443-9.258,35.088-27.777h2.173c-2.485,11.217-7.19,19.498-14.114,24.842c-6.927,5.345-14.643,8.018-23.147,8.018
			c-12.121,0-22.658-4.497-31.617-13.494C4.479,148.642,0,137.331,0,123.705c0-13.249,4.384-24.389,13.154-33.422
			c8.769-9.034,18.95-13.55,30.543-13.55c10.086,0,18.913,3.576,26.478,10.727C77.741,94.612,81.786,105.8,82.315,118.446z
			 M15.959,112.153l55.147,0.27c0.601-5.345-5.02-31.121-28.538-30.608C17.817,82.354,15.959,112.153,15.959,112.153z"/>
		<path fill="#FFFFFF" d="M240.706,118.446l-67.226-0.402c-2.61,25.098,4.819,47.986,29.964,48.004
			c15.957,0.011,29.443-9.258,35.088-27.777h2.174c-2.484,11.217-7.191,19.498-14.114,24.842
			c-6.927,5.345-14.644,8.018-23.147,8.018c-12.121,0-22.659-4.497-31.617-13.494c-8.958-8.994-13.437-20.305-13.437-33.931
			c0-13.249,4.384-24.389,13.154-33.422c8.769-9.034,18.95-13.55,30.544-13.55c10.086,0,18.912,3.576,26.478,10.727
			C236.132,94.612,240.177,105.8,240.706,118.446z M174.351,112.153l55.146,0.27c0.602-5.345-5.02-31.121-28.538-30.608
			C176.208,82.354,174.351,112.153,174.351,112.153z"/>
		<path fill="#FFFFFF" d="M333.34,52.008l-7.021,23.565l-2.218-0.723c-0.387-15.927-8.554-24.748-22.405-27.663
			c-5.993-1.259-11.322-0.737-15.992,1.571c-4.672,2.31-7.434,5.487-8.283,9.531c-0.722,3.426,0.129,8.125,2.553,10.707
			c2.422,2.582,8.777,5.686,19.066,9.312c22.658,7.778,32.065,20.808,28.217,39.093c-1.914,9.105-6.527,16.059-13.834,20.859
			c-7.309,4.799-15.438,6.258-24.386,4.373c-8.792-1.848-16.552-7.264-23.276-16.232l-9.645,5.283l-4.084-0.857l7.244-34.435
			l2.389,0.861c2.059,23.425,12.682,38.499,28.479,41.825c5.99,1.258,13.537,0.502,19.241-2.281
			c5.706-2.779,9.097-8.438,10.179-13.571c0.9-4.28-1.578-7.816-4.037-10.61c-2.459-2.79-9.912-6.472-22.357-11.044
			c-21.195-7.79-30.082-19.815-26.659-36.079c1.687-8.014,6.035-14.107,13.05-18.279c7.013-4.172,14.76-5.365,23.242-3.58
			c8.946,1.882,15.836,6.418,20.66,13.609c1.9-1.307,3.986-3.305,6.261-5.996L333.34,52.008z"/>
		<g>
			<path fill="#FFFFFF" d="M254.011,179.245c0,0,0.758-0.436,2.085-1.197c1.331-0.751,3.233-1.824,5.515-3.112
				c1.137-0.646,2.369-1.347,3.672-2.087c1.306-0.734,2.64-1.587,4.063-2.389c1.411-0.823,2.883-1.652,4.328-2.575
				c1.457-0.904,2.937-1.824,4.416-2.742c1.461-0.947,2.922-1.894,4.361-2.825c1.455-0.909,2.822-1.895,4.151-2.841
				c1.315-0.965,2.653-1.811,3.845-2.713c1.192-0.906,2.318-1.762,3.359-2.553c0.521-0.395,1.021-0.771,1.496-1.131
				c0.459-0.379,0.895-0.738,1.305-1.076c0.818-0.68,1.531-1.271,2.119-1.759c1.188-0.966,1.865-1.518,1.865-1.518
				s-0.621,0.614-1.707,1.69c-0.55,0.533-1.217,1.182-1.982,1.924c-0.385,0.371-0.795,0.766-1.226,1.182
				c-0.458,0.385-0.938,0.79-1.441,1.213c-1.007,0.844-2.099,1.758-3.253,2.725c-1.157,0.965-2.449,1.889-3.771,2.864
				c-1.322,0.974-2.686,1.988-4.133,2.926c-1.434,0.959-2.889,1.934-4.345,2.908c-1.502,0.9-3.004,1.801-4.481,2.688
				c-1.468,0.905-2.959,1.714-4.389,2.519c-1.431,0.803-2.816,1.573-4.16,2.25c-1.341,0.682-2.608,1.325-3.779,1.919
				c-1.162,0.608-2.248,1.122-3.219,1.562c-0.967,0.447-1.809,0.838-2.502,1.16C254.808,178.885,254.011,179.245,254.011,179.245z"
				/>
		</g>
		<g>
			<path fill="#FFFFFF" d="M290.954,170.144c0,0,0.475-0.082,1.308-0.196c0.423-0.029,0.907-0.188,1.465-0.317
				c0.56-0.112,1.169-0.355,1.841-0.571c0.676-0.201,1.36-0.567,2.111-0.854c0.719-0.379,1.499-0.718,2.257-1.176
				c0.382-0.221,0.771-0.445,1.163-0.672c0.381-0.248,0.768-0.498,1.157-0.75c0.782-0.497,1.542-1.062,2.3-1.621
				c0.752-0.572,1.508-1.141,2.212-1.751c0.722-0.589,1.405-1.201,2.073-1.788c0.645-0.611,1.289-1.183,1.87-1.756
				c0.574-0.58,1.14-1.109,1.628-1.631c0.996-1.023,1.815-1.896,2.363-2.529c0.551-0.632,0.881-0.985,0.881-0.985
				s-0.242,0.415-0.693,1.127c-0.221,0.36-0.52,0.774-0.854,1.258c-0.328,0.489-0.724,1.021-1.177,1.585
				c-0.884,1.147-2.013,2.41-3.288,3.701c-0.66,0.621-1.311,1.3-2.05,1.904c-0.712,0.635-1.478,1.231-2.243,1.828
				c-0.789,0.565-1.578,1.134-2.395,1.637c-0.41,0.247-0.816,0.492-1.219,0.735c-0.416,0.217-0.828,0.432-1.233,0.643
				c-0.797,0.446-1.644,0.733-2.407,1.067c-0.803,0.253-1.537,0.55-2.26,0.687c-0.715,0.164-1.363,0.317-1.966,0.353
				c-0.595,0.052-1.104,0.14-1.523,0.11C291.435,170.168,290.954,170.144,290.954,170.144z"/>
		</g>
		<g>
			<g>
				<g>
					<path fill="#FFFFFF" d="M280.74,47.015c-0.056,0.16-0.11,0.321-0.142,0.487l-0.066,0.248c-0.02,0.083-0.08,0.156-0.121,0.236
						l-0.048,0.095l-0.013-0.118c-0.17-1.551-0.468-3.081-1.066-4.512l-0.438-1.073c-0.168-0.347-0.366-0.681-0.547-1.021
						c-0.193-0.334-0.352-0.687-0.572-1.003l-0.662-0.947c-0.878-1.266-1.971-2.355-3.104-3.373c-0.286-0.25-0.608-0.456-0.91-0.687
						c-0.299-0.202-0.629-0.5-0.9-0.623l-1.05-0.521c-0.349-0.184-0.7-0.353-1.057-0.441c-0.715-0.216-1.392-0.488-2.16-0.61
						c-0.746-0.162-1.493-0.318-2.263-0.398c-1.52-0.23-3.072-0.32-4.631-0.455c-1.559-0.115-3.139-0.274-4.723-0.556l-2.305-0.463
						c-0.77-0.175-1.554-0.43-2.33-0.643c-0.773-0.234-1.508-0.551-2.264-0.824c-0.742-0.301-1.457-0.674-2.185-1.015
						c-0.708-0.38-1.39-0.809-2.085-1.212c-0.658-0.463-1.322-0.919-1.965-1.401c-0.608-0.524-1.25-1.015-1.83-1.569
						c-0.561-0.574-1.176-1.1-1.689-1.715c-1.076-1.189-2.075-2.449-2.945-3.788c-0.443-0.665-0.88-1.334-1.262-2.034
						c-0.406-0.686-0.79-1.383-1.135-2.1c-0.369-0.705-0.71-1.422-1.02-2.152c-0.334-0.722-0.637-1.453-0.916-2.194
						c-0.299-0.734-0.574-1.477-0.816-2.229c-0.26-0.737-0.514-1.513-0.721-2.259c-0.445-1.498-0.843-2.994-1.568-4.189l1.23-0.105
						l-0.779,1.946l-0.641,1.999l-0.49,2.043l-0.332,2.077l-0.171,2.099c-0.001,0.702-0.026,1.406-0.01,2.109
						c0.053,0.701,0.075,1.406,0.151,2.105c0.105,0.696,0.176,1.4,0.31,2.092c0.157,0.688,0.276,1.386,0.466,2.066
						c0.211,0.673,0.373,1.364,0.605,2.032c0.251,0.661,0.461,1.341,0.746,1.99c0.297,0.644,0.558,1.307,0.887,1.937
						c0.343,0.621,0.654,1.264,1.024,1.872c0.386,0.598,0.747,1.214,1.153,1.8l1.267,1.73l1.377,1.649l-1.493-1.553
						c-0.473-0.54-0.926-1.099-1.384-1.655c-0.44-0.57-0.838-1.172-1.261-1.758c-0.406-0.596-0.756-1.229-1.137-1.844
						c-0.368-0.622-0.669-1.281-1.007-1.922c-0.325-0.648-0.576-1.33-0.868-1.995c-0.277-0.671-0.479-1.37-0.713-2.059
						c-0.217-0.694-0.363-1.407-0.547-2.112c-0.16-0.71-0.258-1.433-0.39-2.15c-0.101-0.721-0.149-1.449-0.226-2.176
						c-0.041-0.729-0.04-1.459-0.061-2.19c0.021-0.729,0.072-1.46,0.107-2.191l0.277-2.179l0.445-2.154l0.617-2.113l0.786-2.059
						L229.668,0l0.739,1.182c0.928,1.482,1.335,3.046,1.811,4.524c0.225,0.755,0.469,1.461,0.74,2.194
						c0.252,0.729,0.523,1.451,0.817,2.163c0.274,0.721,0.574,1.43,0.901,2.126c0.304,0.707,0.637,1.399,0.997,2.076
						c0.337,0.691,0.71,1.359,1.104,2.016c0.369,0.672,0.791,1.31,1.219,1.942c0.844,1.272,1.785,2.474,2.797,3.608
						c0.484,0.588,1.064,1.083,1.59,1.631c0.545,0.527,1.148,0.99,1.719,1.49c0.604,0.457,1.227,0.89,1.844,1.33
						c0.654,0.382,1.294,0.791,1.96,1.153c0.687,0.321,1.351,0.693,2.052,0.987c0.709,0.268,1.408,0.584,2.127,0.814
						c0.727,0.21,1.426,0.457,2.176,0.642l2.283,0.497c1.49,0.28,3.018,0.477,4.57,0.648c1.549,0.184,3.117,0.324,4.682,0.611
						c0.783,0.107,1.561,0.294,2.336,0.488c0.776,0.148,1.552,0.475,2.321,0.744c0.399,0.124,0.746,0.306,1.085,0.497l1.031,0.555
						c0.427,0.229,0.664,0.489,1.005,0.733c0.312,0.252,0.643,0.482,0.936,0.754c1.159,1.103,2.212,2.313,3.056,3.657l0.629,1.01
						c0.209,0.337,0.354,0.709,0.534,1.061c0.168,0.358,0.353,0.709,0.505,1.072l0.391,1.12c0.3,0.732,0.416,1.521,0.588,2.288
						c0.165,0.77,0.134,1.569,0.209,2.345l-0.061-0.023c0.037-0.069,0.098-0.127,0.123-0.207l0.08-0.238
						C280.608,47.326,280.674,47.171,280.74,47.015z"/>
				</g>
				<g>
					<path fill="#FFFFFF" d="M232.388,30.663c-0.92-0.567-1.827-1.148-2.731-1.744c-0.457-0.288-0.888-0.622-1.32-0.959
						l-0.653-0.503c-0.227-0.157-0.398-0.38-0.602-0.567l-0.587-0.591c-0.193-0.213-0.397-0.359-0.583-0.629
						c-0.327-0.404-0.652-0.935-0.928-1.367c-0.287-0.441-0.57-0.876-0.893-1.224c-0.154-0.187-0.325-0.337-0.5-0.47
						c-0.164-0.16-0.372-0.212-0.545-0.334l0.964-0.524c-0.001,0.63-0.091,1.245-0.029,1.879c0.071,0.633,0.068,1.265,0.22,1.894
						c0.129,0.628,0.199,1.264,0.391,1.884c0.171,0.622,0.305,1.252,0.536,1.86c0.22,0.609,0.396,1.232,0.657,1.828
						c0.25,0.6,0.463,1.214,0.744,1.801l0.842,1.762l0.926,1.722l1.012,1.672c0.338,0.56,0.739,1.072,1.096,1.62
						c0.35,0.554,0.783,1.039,1.176,1.561c0.389,0.527,0.842,0.992,1.271,1.483c0.419,0.505,0.9,0.938,1.378,1.384
						c0.458,0.473,0.979,0.855,1.497,1.257c0.499,0.434,1.086,0.716,1.643,1.072c0.563,0.343,1.195,0.534,1.808,0.815l-0.977-0.225
						c-0.328-0.077-0.667-0.138-0.968-0.291c-0.611-0.275-1.275-0.485-1.832-0.871c-0.579-0.352-1.182-0.684-1.699-1.121
						c-0.537-0.414-1.084-0.824-1.564-1.303c-0.496-0.462-1.008-0.917-1.441-1.436c-0.445-0.512-0.932-0.993-1.332-1.539
						c-0.412-0.537-0.849-1.061-1.223-1.625l-1.122-1.696L226,35.376l-0.903-1.825c-0.301-0.608-0.535-1.249-0.805-1.873
						c-0.283-0.619-0.449-1.287-0.675-1.929c-0.232-0.641-0.37-1.315-0.542-1.978c-0.186-0.658-0.275-1.347-0.379-2.026
						c-0.131-0.675-0.109-1.383-0.155-2.073c-0.037-0.693,0.083-1.405,0.121-2.103l0.063-1.126l0.901,0.603
						c0.27,0.18,0.58,0.326,0.797,0.554c0.241,0.211,0.455,0.434,0.631,0.676c0.377,0.471,0.648,0.966,0.916,1.442
						c0.277,0.49,0.473,0.905,0.777,1.372c0.097,0.192,0.313,0.397,0.463,0.596l0.498,0.604c0.174,0.195,0.316,0.419,0.518,0.594
						l0.566,0.553c0.376,0.373,0.756,0.746,1.174,1.086L232.388,30.663z"/>
				</g>
				<g>
					<path fill="#FFFFFF" d="M237.667,47.091c-1.012,0.044-2.014,0.185-3.027,0.229c-0.506,0.021-1.017,0.034-1.523-0.034
						c-0.256-0.016-0.504-0.078-0.754-0.144c-0.264-0.051-0.475-0.181-0.715-0.269c-0.238-0.085-0.454-0.231-0.679-0.354
						c-0.228-0.121-0.437-0.268-0.644-0.414c-0.425-0.283-0.815-0.607-1.216-0.917c-0.396-0.315-0.793-0.626-1.2-0.921l-0.624-0.419
						l-0.656-0.357l0.142-0.092c0.053,0.634,0.164,1.271,0.431,1.86c0.234,0.6,0.567,1.156,0.924,1.693
						c0.374,0.527,0.774,1.036,1.217,1.509c0.438,0.477,0.901,0.933,1.393,1.354c0.483,0.432,0.998,0.827,1.521,1.209
						c0.523,0.383,1.066,0.738,1.625,1.062c0.568,0.325,1.129,0.606,1.75,0.825c0.611,0.226,1.213,0.486,1.832,0.684l1.865,0.558
						l1.902,0.429c0.635,0.145,1.284,0.211,1.926,0.32c0.641,0.117,1.292,0.156,1.939,0.225c0.647,0.074,1.297,0.115,1.949,0.141
						c0.65,0.034,1.301,0.082,1.953,0.086c1.303,0.044,2.607,0.036,3.913,0.032c-1.304,0.037-2.608,0.078-3.915,0.067
						c-1.305-0.004-2.613-0.038-3.914-0.166c-0.65-0.063-1.305-0.097-1.95-0.208c-0.646-0.104-1.298-0.166-1.938-0.306l-1.918-0.415
						l-1.891-0.548c-0.627-0.193-1.227-0.447-1.842-0.668c-0.613-0.209-1.226-0.506-1.792-0.826
						c-1.148-0.643-2.212-1.428-3.192-2.301c-0.494-0.432-0.959-0.898-1.4-1.386c-0.445-0.483-0.848-1.006-1.225-1.546
						c-0.359-0.552-0.695-1.124-0.932-1.744c-0.268-0.607-0.381-1.273-0.43-1.936l-0.012-0.178l0.154,0.085l0.672,0.374l0.633,0.432
						c0.408,0.303,0.807,0.618,1.197,0.938c0.398,0.313,0.783,0.639,1.199,0.921c0.205,0.147,0.409,0.293,0.627,0.411
						c0.218,0.122,0.422,0.266,0.662,0.354c0.232,0.088,0.463,0.226,0.697,0.274c0.239,0.068,0.479,0.136,0.73,0.157
						c0.494,0.08,1.002,0.079,1.506,0.072C235.646,47.225,236.655,47.109,237.667,47.091z"/>
				</g>
				<g>
					<path fill="#FFFFFF" d="M279.136,50.44c-0.059,0.042-0.078-0.097-0.104-0.144l-0.066-0.207l-0.116-0.419l-0.216-0.844
						l-0.215-0.844l-0.116-0.419l-0.064-0.207c-0.023-0.059-0.054-0.158-0.088-0.172l-0.017-0.004
						c-0.464-2.625-1.943-4.958-3.757-6.855c-0.91-0.956-1.922-1.815-3.016-2.551c-1.088-0.737-2.279-1.36-3.555-1.654
						c-2.563-0.641-5.242-0.519-7.883-0.432c-2.652,0.117-5.334,0.068-7.965-0.414c-2.623-0.496-5.168-1.438-7.46-2.809
						c-2.292-1.372-4.321-3.154-6.062-5.166c-1.744-2.014-3.215-4.249-4.482-6.584c-0.622-1.174-1.213-2.364-1.732-3.586
						c-0.522-1.215-1.004-2.47-1.842-3.509c0.859,1.021,1.371,2.273,1.918,3.475c0.543,1.208,1.156,2.385,1.801,3.541
						c1.284,2.314,2.76,4.53,4.506,6.516c1.743,1.984,3.764,3.732,6.037,5.072c2.273,1.337,4.787,2.247,7.379,2.718
						c2.592,0.488,5.25,0.562,7.893,0.463c2.643-0.068,5.344-0.176,7.95,0.494c1.318,0.317,2.509,0.954,3.608,1.709
						c1.104,0.752,2.118,1.627,3.029,2.599c1.801,1.944,3.236,4.332,3.649,6.972l-0.017-0.004c0.094,0.015,0.084,0.118,0.119,0.176
						l0.064,0.208l0.113,0.421l0.211,0.845l0.211,0.845l0.114,0.42l0.065,0.207C279.058,50.344,279.078,50.482,279.136,50.44z"/>
				</g>
			</g>
			<g>
				<path fill="#FFFFFF" d="M249.727,57.131l-0.388,0.459c-0.133,0.15-0.252,0.313-0.396,0.452
					c-0.295,0.272-0.587,0.551-0.888,0.819l-0.973,0.72c-0.353,0.196-0.716,0.379-1.074,0.569l0.02-0.135l1.193,0.779
					c0.435,0.193,0.862,0.399,1.3,0.581c0.459,0.124,0.91,0.276,1.372,0.379c0.471,0.061,0.938,0.157,1.411,0.188
					c0.475,0.006,0.949,0.047,1.424,0.022c0.475-0.042,0.951-0.053,1.422-0.12c0.469-0.084,0.942-0.134,1.409-0.227l1.394-0.32
					l1.375-0.403l1.352-0.476c0.892-0.348,1.774-0.718,2.641-1.125c1.729-0.823,3.423-1.724,5.076-2.698
					c-1.611,1.04-3.268,2.021-5.002,2.853c-0.865,0.421-1.746,0.805-2.639,1.166l-1.355,0.499l-1.381,0.426
					c-0.933,0.247-1.875,0.462-2.836,0.579c-0.479,0.062-0.965,0.066-1.447,0.102c-0.482,0.019-0.967-0.029-1.451-0.042
					c-0.481-0.039-0.957-0.144-1.436-0.212c-0.472-0.111-0.932-0.271-1.396-0.406c-0.443-0.191-0.879-0.407-1.318-0.61l-1.203-0.811
					l-0.105-0.071l0.124-0.064c0.352-0.182,0.708-0.355,1.058-0.543l0.988-0.674c0.307-0.253,0.607-0.518,0.912-0.776
					c0.15-0.133,0.274-0.292,0.413-0.437L249.727,57.131z"/>
			</g>
		</g>
		<g>
			<g>
				<g>
					<path fill="#FFFFFF" d="M331.931,55.526c-0.006,0.169-0.014,0.338-0.045,0.507l-0.029,0.25c-0.01,0.083,0.018,0.16,0.023,0.238
						l-0.066-0.004c0.4-0.669,0.715-1.405,1.193-2.029c0.484-0.619,0.928-1.282,1.512-1.816l0.832-0.845
						c0.295-0.263,0.611-0.501,0.916-0.753c0.313-0.24,0.604-0.515,0.938-0.729l1-0.644c1.339-0.854,2.808-1.497,4.328-1.996
						c0.381-0.121,0.778-0.187,1.168-0.282c0.412-0.074,0.738-0.207,1.221-0.232l1.172-0.059c0.387-0.028,0.777-0.044,1.191,0.016
						c0.811,0.086,1.652,0.123,2.416,0.321c0.785,0.157,1.567,0.32,2.322,0.559c1.535,0.411,3.013,0.956,4.49,1.452
						c1.479,0.511,2.941,0.986,4.409,1.373l2.274,0.527c0.758,0.155,1.496,0.23,2.242,0.353c0.748,0.1,1.516,0.112,2.271,0.175
						c0.758,0.035,1.518-0.018,2.275-0.014c0.757-0.042,1.51-0.138,2.266-0.202c0.746-0.135,1.494-0.259,2.235-0.413
						c0.729-0.207,1.473-0.367,2.191-0.611c0.71-0.27,1.445-0.469,2.135-0.793c1.399-0.592,2.766-1.273,4.073-2.063
						c0.657-0.389,1.311-0.783,1.934-1.232c0.637-0.424,1.261-0.868,1.86-1.349c0.616-0.458,1.213-0.94,1.791-1.449
						c0.593-0.489,1.167-1.002,1.724-1.535c0.57-0.518,1.125-1.054,1.666-1.605c0.559-0.546,1.082-1.079,1.607-1.665
						c1.063-1.133,2.102-2.371,3.574-3.313l1.175-0.75l-0.106,1.373l-0.172,2.196l-0.347,2.174l-0.521,2.138l-0.684,2.088
						c-0.28,0.676-0.547,1.357-0.84,2.026c-0.332,0.651-0.645,1.313-0.992,1.953c-0.381,0.623-0.736,1.261-1.137,1.87
						c-0.426,0.592-0.824,1.203-1.273,1.775c-0.468,0.558-0.906,1.14-1.398,1.674c-0.506,0.522-0.988,1.068-1.525,1.556
						c-0.549,0.476-1.068,0.983-1.639,1.431c-0.58,0.435-1.135,0.901-1.733,1.307c-0.608,0.392-1.194,0.814-1.817,1.179
						c-0.633,0.349-1.25,0.722-1.892,1.048c-0.651,0.307-1.302,0.618-1.96,0.903l-2.014,0.764l1.951-0.901l1.885-1.021
						c0.618-0.355,1.209-0.757,1.813-1.133c0.595-0.391,1.151-0.838,1.728-1.253c0.566-0.428,1.086-0.916,1.631-1.369
						c0.535-0.466,1.016-0.99,1.525-1.48c0.497-0.503,0.939-1.059,1.418-1.576c0.463-0.534,0.869-1.114,1.306-1.668
						c0.417-0.568,0.782-1.174,1.176-1.757c0.368-0.601,0.69-1.228,1.038-1.839c0.316-0.629,0.596-1.274,0.895-1.91l0.745-1.97
						l0.59-2.019l0.431-2.057l0.278-2.08l0.128-2.094l1.067,0.623c-1.168,0.769-2.167,1.951-3.21,3.113
						c-0.509,0.586-1.069,1.179-1.619,1.733c-0.542,0.575-1.107,1.128-1.693,1.663c-0.568,0.551-1.156,1.082-1.766,1.591
						c-0.594,0.527-1.209,1.03-1.844,1.509c-0.619,0.5-1.265,0.966-1.926,1.411c-0.645,0.47-1.324,0.888-2.011,1.298
						c-1.36,0.838-2.802,1.547-4.283,2.162c-0.729,0.336-1.509,0.548-2.262,0.826c-0.762,0.253-1.552,0.421-2.325,0.635
						c-0.788,0.16-1.584,0.288-2.375,0.425c-0.802,0.066-1.602,0.161-2.404,0.202c-0.803-0.004-1.608,0.027-2.409-0.02
						c-0.8-0.076-1.599-0.104-2.397-0.225c-0.793-0.139-1.611-0.244-2.381-0.416l-2.281-0.568c-1.552-0.426-3.047-0.958-4.505-1.521
						c-1.466-0.545-2.908-1.129-4.38-1.572c-0.73-0.257-1.472-0.436-2.215-0.608c-0.748-0.22-1.476-0.263-2.214-0.374
						c-0.36-0.072-0.75-0.07-1.144-0.054l-1.172,0.021c-0.299-0.004-0.725,0.124-1.081,0.179c-0.371,0.078-0.751,0.127-1.116,0.23
						c-1.46,0.435-2.914,0.951-4.25,1.719l-1.003,0.573c-0.335,0.191-0.629,0.442-0.946,0.661c-0.31,0.229-0.632,0.445-0.932,0.688
						l-0.855,0.781c-1.153,1.037-2.078,2.293-2.895,3.621l-0.063,0.102l-0.004-0.106c-0.002-0.089-0.025-0.181-0.008-0.266
						l0.047-0.251C331.894,55.863,331.913,55.695,331.931,55.526z"/>
				</g>
				<g>
					<path fill="#FFFFFF" d="M382.628,61.456l3.105-0.897c0.523-0.129,1.026-0.303,1.525-0.479l0.75-0.258
						c0.256-0.072,0.48-0.213,0.721-0.314l0.709-0.332c0.221-0.115,0.503-0.208,0.674-0.341c0.477-0.292,0.829-0.583,1.289-0.906
						c0.446-0.316,0.904-0.647,1.446-0.912c0.262-0.144,0.551-0.253,0.858-0.34c0.293-0.113,0.637-0.113,0.957-0.16l1.074-0.158
						l-0.427,1.044c-0.264,0.647-0.46,1.342-0.79,1.952c-0.338,0.604-0.621,1.254-1.029,1.807c-0.385,0.57-0.76,1.154-1.21,1.669
						c-0.438,0.525-0.853,1.076-1.337,1.555c-0.479,0.484-0.914,1.016-1.436,1.455c-0.512,0.447-0.997,0.926-1.529,1.348
						l-1.598,1.262l-1.674,1.156l-1.74,1.053c-0.58,0.35-1.199,0.637-1.801,0.945c-0.596,0.322-1.242,0.549-1.862,0.82
						c-0.615,0.283-1.271,0.475-1.918,0.68c-0.639,0.228-1.309,0.363-1.972,0.508c-0.656,0.174-1.342,0.216-2.016,0.285
						c-0.668,0.109-1.359,0.016-2.029,0.003c-0.336,0.009-0.669-0.081-0.998-0.152l-0.979-0.215
						c0.674,0.008,1.326,0.106,1.982,0.038c0.656-0.084,1.307-0.088,1.943-0.266c0.639-0.142,1.275-0.264,1.891-0.495
						c0.622-0.198,1.243-0.384,1.838-0.661c0.6-0.26,1.207-0.485,1.784-0.796c0.579-0.302,1.179-0.556,1.731-0.906
						c0.557-0.343,1.139-0.635,1.684-0.995l1.631-1.078l1.572-1.159l1.516-1.23c0.506-0.41,0.961-0.874,1.444-1.309
						c0.491-0.428,0.917-0.915,1.376-1.372c0.47-0.449,0.861-0.962,1.281-1.451c0.439-0.478,0.775-1.021,1.16-1.535
						c0.406-0.503,0.674-1.075,1.01-1.616c0.326-0.546,0.51-1.141,0.777-1.71l0.647,0.886c-0.209,0.036-0.419-0.006-0.636,0.069
						c-0.215,0.045-0.434,0.107-0.652,0.21c-0.441,0.177-0.882,0.448-1.332,0.725c-0.434,0.271-0.955,0.612-1.424,0.837
						c-0.281,0.164-0.529,0.209-0.796,0.319l-0.784,0.282c-0.263,0.082-0.514,0.21-0.786,0.255l-0.805,0.175
						c-0.536,0.12-1.067,0.236-1.604,0.302C384.771,61.201,383.702,61.337,382.628,61.456z"/>
				</g>
				<g>
					<path fill="#FFFFFF" d="M370.823,74.038c0.905,0.451,1.768,0.987,2.671,1.438c0.452,0.222,0.91,0.44,1.392,0.579
						c0.236,0.088,0.482,0.13,0.727,0.17c0.233,0.057,0.5,0.031,0.749,0.051c0.255,0.024,0.5-0.019,0.749-0.035
						c0.248-0.014,0.495-0.058,0.742-0.104c0.497-0.076,0.985-0.207,1.479-0.318c0.49-0.121,0.985-0.236,1.484-0.334l0.756-0.119
						l0.768-0.049l0.177-0.012l-0.088,0.155c-0.327,0.578-0.716,1.131-1.218,1.565c-0.479,0.459-1.027,0.832-1.588,1.177
						c-0.572,0.327-1.16,0.626-1.77,0.872c-0.607,0.252-1.227,0.475-1.859,0.652c-1.26,0.369-2.556,0.623-3.869,0.713
						c-0.648,0.047-1.33,0.053-1.974-0.021c-0.649-0.063-1.302-0.091-1.95-0.185l-1.942-0.314l-1.911-0.447
						c-0.639-0.147-1.255-0.371-1.883-0.554c-0.631-0.176-1.236-0.425-1.852-0.646c-1.229-0.442-2.427-0.972-3.607-1.526
						c-1.186-0.55-2.347-1.146-3.51-1.737c1.178,0.563,2.354,1.128,3.551,1.646c0.591,0.275,1.199,0.511,1.802,0.759
						c0.6,0.255,1.204,0.497,1.821,0.707c0.614,0.215,1.219,0.459,1.849,0.629c0.626,0.175,1.241,0.393,1.877,0.533l1.903,0.428
						l1.924,0.295c0.644,0.087,1.299,0.109,1.948,0.167c0.655,0.068,1.282,0.054,1.935,0.004c0.645-0.054,1.287-0.142,1.924-0.265
						c0.636-0.121,1.27-0.258,1.892-0.441c0.626-0.17,1.238-0.384,1.839-0.627c0.602-0.237,1.182-0.525,1.745-0.842
						c0.553-0.332,1.092-0.693,1.56-1.135c0.493-0.418,0.867-0.946,1.188-1.496l0.088,0.143l-0.746,0.042l-0.744,0.11
						c-0.494,0.093-0.986,0.203-1.479,0.319c-0.494,0.107-0.986,0.234-1.49,0.308c-0.251,0.044-0.502,0.086-0.76,0.098
						c-0.256,0.016-0.514,0.057-0.766,0.03c-0.254-0.023-0.501,0.004-0.762-0.063c-0.253-0.048-0.505-0.098-0.742-0.193
						c-0.488-0.154-0.943-0.386-1.392-0.62C372.563,75.068,371.718,74.512,370.823,74.038z"/>
				</g>
				<g>
					<path fill="#FFFFFF" d="M331.913,59.308c0.035,0.062,0.112-0.054,0.155-0.085l0.147-0.16l0.283-0.33l0.553-0.673l0.553-0.673
						l0.282-0.331l0.147-0.16c0.057-0.037,0.092-0.135,0.183-0.108l-0.017-0.003c1.503-2.208,3.823-3.752,6.283-4.738
						c1.239-0.487,2.531-0.844,3.85-1.051c1.317-0.212,2.666-0.278,3.993,0.001c2.642,0.51,5.038,1.766,7.396,2.957
						c2.346,1.223,4.78,2.295,7.332,2.963c2.543,0.685,5.205,0.938,7.832,0.703c2.627-0.236,5.202-0.951,7.627-1.998
						c2.429-1.047,4.711-2.416,6.862-3.958c1.077-0.769,2.137-1.569,3.146-2.429c1.008-0.851,2.006-1.764,3.219-2.319
						c-1.201,0.581-2.173,1.509-3.166,2.382c-0.992,0.883-2.036,1.706-3.102,2.5c-2.145,1.567-4.431,2.957-6.869,4.03
						c-2.436,1.072-5.031,1.813-7.691,2.072c-2.658,0.257-5.36,0.019-7.943-0.656c-2.584-0.69-5.028-1.796-7.375-3.036
						c-2.35-1.211-4.719-2.469-7.309-2.987c-1.279-0.281-2.621-0.228-3.921-0.026c-1.304,0.195-2.586,0.539-3.817,1.014
						c-2.451,0.938-4.787,2.412-6.33,4.587l-0.017-0.003c-0.037-0.004-0.106,0.073-0.153,0.116l-0.147,0.159l-0.284,0.329
						l-0.556,0.67l-0.556,0.67l-0.285,0.329l-0.148,0.158C332.026,59.254,331.948,59.37,331.913,59.308z"/>
				</g>
			</g>
			<g>
				<path fill="#FFFFFF" d="M355.624,77.948l0.178,0.575c0.063,0.189,0.107,0.387,0.187,0.57c0.165,0.365,0.321,0.732,0.491,1.092
					l0.604,1.031c0.235,0.319,0.483,0.629,0.724,0.943l0.086,0.111l-0.127,0.02l-1.436,0.217c-0.482-0.004-0.969,0.006-1.452-0.012
					c-0.478-0.078-0.962-0.13-1.435-0.23c-0.462-0.144-0.938-0.252-1.39-0.424c-0.442-0.195-0.9-0.359-1.329-0.583
					c-0.42-0.238-0.857-0.451-1.264-0.712c-0.818-0.518-1.578-1.115-2.314-1.737l-1.066-0.977l-1.012-1.031
					c-0.65-0.709-1.283-1.434-1.885-2.184c-1.209-1.495-2.286-3.091-3.297-4.721c1.076,1.589,2.221,3.128,3.43,4.612
					c0.609,0.739,1.248,1.451,1.905,2.146l1.018,1.01l1.069,0.953l1.123,0.887c0.383,0.283,0.789,0.531,1.177,0.809
					c0.396,0.262,0.822,0.476,1.232,0.717c0.419,0.226,0.865,0.391,1.297,0.59c0.441,0.174,0.904,0.287,1.356,0.434
					c0.461,0.105,0.934,0.161,1.401,0.245c0.474,0.022,0.948,0.02,1.424,0.032l1.412-0.195l-0.04,0.131
					c-0.242-0.325-0.492-0.646-0.728-0.974l-0.571-1.066c-0.156-0.372-0.301-0.748-0.451-1.12c-0.071-0.188-0.107-0.386-0.164-0.578
					L355.624,77.948z"/>
			</g>
		</g>
		<g>
			<path fill="#FFFFFF" d="M95.555,165.372V25.47h-9.722v-5.758h9.044c10.389,0,6.709-0.564,11.452-1.693v147.354h14.315v5.758
				H89.045v-5.758H95.555z"/>
			<path fill="#FFFFFF" d="M95.555,40.375c0.188-8.565-6.397-14.857-18.257-18.747l0.047-2.215l18.673,0.407l-0.048,2.215
				l4.35,4.103c3.826,4.557-2.557,9.469-2.662,14.237"/>
		</g>
		<g>
			<path fill="#FFFFFF" d="M133.301,165.372V25.47h-9.722v-5.758h9.044c10.389,0,6.709-0.564,11.452-1.693v147.354h14.315v5.758
				h-31.599v-5.758H133.301z"/>
			<path fill="#FFFFFF" d="M133.301,40.375c0.188-8.565-6.397-14.857-18.257-18.747l0.047-2.215l18.673,0.407l-0.048,2.215
				l4.35,4.103c3.826,4.557-2.557,9.469-2.662,14.237"/>
		</g>
	</g>
</g>
</svg>
