<?xml version="1.0" encoding="utf-8"?>
<!-- Generator: Adobe Illustrator 16.0.0, SVG Export Plug-In . SVG Version: 6.00 Build 0)  -->
<!DOCTYPE svg PUBLIC "-//W3C//DTD SVG 1.1//EN" "http://www.w3.org/Graphics/SVG/1.1/DTD/svg11.dtd">
<svg version="1.1" id="Layer_1" xmlns="http://www.w3.org/2000/svg" xmlns:xlink="http://www.w3.org/1999/xlink" x="0px" y="0px"
	 width="398.218px" height="179.245px" viewBox="0 0 398.218 179.245" enable-background="new 0 0 398.218 179.245"
	 xml:space="preserve">
<g>
	<g>
		<path d="M82.315,118.446l-67.226-0.402c-2.61,25.098,4.818,47.986,29.964,48.004c15.957,0.011,29.442-9.258,35.089-27.777h2.173
			c-2.485,11.217-7.19,19.498-14.114,24.842c-6.927,5.345-14.643,8.018-23.147,8.018c-12.12,0-22.658-4.497-31.616-13.494
			C4.479,148.642,0,137.331,0,123.705c0-13.249,4.385-24.389,13.154-33.422c8.77-9.034,18.951-13.55,30.544-13.55
			c10.086,0,18.913,3.576,26.478,10.727C77.741,94.612,81.787,105.8,82.315,118.446z M15.96,112.153l55.147,0.27
			c0.601-5.345-5.02-31.121-28.539-30.608C17.817,82.354,15.96,112.153,15.96,112.153z"/>
		<path d="M240.706,118.446l-67.226-0.402c-2.61,25.098,4.818,47.986,29.964,48.004c15.958,0.011,29.443-9.258,35.089-27.777h2.173
			c-2.484,11.217-7.19,19.498-14.114,24.842c-6.927,5.345-14.643,8.018-23.147,8.018c-12.12,0-22.658-4.497-31.616-13.494
			c-8.959-8.994-13.438-20.305-13.438-33.931c0-13.249,4.385-24.389,13.154-33.422c8.77-9.034,18.951-13.55,30.545-13.55
			c10.086,0,18.912,3.576,26.477,10.727C236.133,94.612,240.178,105.8,240.706,118.446z M174.352,112.153l55.146,0.27
			c0.601-5.345-5.02-31.121-28.538-30.608C176.208,82.354,174.352,112.153,174.352,112.153z"/>
		<path d="M333.34,52.008l-7.02,23.565l-2.219-0.723c-0.387-15.927-8.554-24.748-22.405-27.663
			c-5.993-1.259-11.322-0.737-15.991,1.571c-4.673,2.31-7.434,5.487-8.284,9.531c-0.722,3.426,0.13,8.125,2.554,10.707
			c2.422,2.582,8.777,5.686,19.066,9.312c22.658,7.778,32.064,20.808,28.217,39.093c-1.915,9.105-6.527,16.059-13.835,20.859
			c-7.309,4.799-15.438,6.258-24.386,4.373c-8.791-1.848-16.552-7.264-23.276-16.232l-9.644,5.283l-4.085-0.857l7.245-34.435
			l2.388,0.861c2.06,23.425,12.683,38.499,28.479,41.825c5.991,1.258,13.537,0.502,19.241-2.281
			c5.707-2.779,9.098-8.438,10.179-13.571c0.9-4.28-1.577-7.816-4.036-10.61c-2.459-2.79-9.912-6.472-22.357-11.044
			c-21.196-7.79-30.082-19.815-26.66-36.079c1.688-8.014,6.035-14.107,13.051-18.279c7.012-4.172,14.76-5.365,23.242-3.58
			c8.945,1.882,15.835,6.418,20.659,13.609c1.901-1.307,3.987-3.305,6.261-5.996L333.34,52.008z"/>
		<g>
			<path fill="#1B0B3D" d="M254.012,179.245c0,0,0.758-0.436,2.085-1.197c1.331-0.751,3.232-1.824,5.515-3.112
				c1.138-0.646,2.369-1.347,3.672-2.087c1.306-0.734,2.64-1.587,4.063-2.389c1.411-0.823,2.883-1.652,4.328-2.575
				c1.456-0.905,2.937-1.824,4.416-2.743c1.461-0.946,2.922-1.893,4.36-2.824c1.455-0.909,2.822-1.895,4.152-2.841
				c1.314-0.965,2.652-1.811,3.845-2.713c1.192-0.906,2.318-1.762,3.358-2.553c0.521-0.394,1.021-0.771,1.496-1.132
				c0.46-0.378,0.896-0.737,1.305-1.075c0.818-0.68,1.532-1.271,2.119-1.759c1.188-0.966,1.866-1.518,1.866-1.518
				s-0.621,0.614-1.708,1.69c-0.549,0.533-1.217,1.182-1.982,1.924c-0.385,0.371-0.794,0.766-1.225,1.182
				c-0.458,0.385-0.939,0.79-1.441,1.213c-1.008,0.844-2.1,1.758-3.254,2.725c-1.157,0.965-2.448,1.889-3.771,2.864
				c-1.323,0.974-2.686,1.988-4.134,2.926c-1.433,0.959-2.889,1.934-4.344,2.908c-1.502,0.9-3.004,1.801-4.482,2.688
				c-1.467,0.905-2.957,1.714-4.388,2.519c-1.431,0.803-2.816,1.573-4.16,2.25c-1.341,0.682-2.608,1.325-3.778,1.919
				c-1.164,0.607-2.25,1.122-3.22,1.562c-0.966,0.448-1.809,0.838-2.502,1.16C254.809,178.886,254.012,179.245,254.012,179.245z"/>
		</g>
		<g>
			<path fill="#1B0B3D" d="M290.955,170.144c0,0,0.475-0.082,1.308-0.196c0.422-0.029,0.906-0.188,1.465-0.317
				c0.559-0.112,1.169-0.355,1.84-0.571c0.677-0.201,1.361-0.567,2.113-0.854c0.717-0.379,1.498-0.718,2.256-1.176
				c0.381-0.221,0.77-0.445,1.162-0.672c0.383-0.248,0.769-0.498,1.158-0.75c0.782-0.497,1.541-1.062,2.3-1.622
				c0.751-0.572,1.507-1.14,2.212-1.75c0.722-0.589,1.404-1.201,2.073-1.788c0.645-0.611,1.288-1.183,1.87-1.756
				c0.574-0.58,1.14-1.109,1.627-1.631c0.997-1.023,1.816-1.896,2.364-2.529c0.55-0.632,0.88-0.985,0.88-0.985
				s-0.242,0.415-0.693,1.127c-0.221,0.36-0.519,0.774-0.854,1.258c-0.327,0.489-0.723,1.021-1.176,1.585
				c-0.885,1.147-2.013,2.41-3.288,3.701c-0.66,0.621-1.311,1.3-2.05,1.904c-0.713,0.635-1.479,1.231-2.244,1.828
				c-0.789,0.565-1.578,1.134-2.394,1.636c-0.41,0.248-0.816,0.493-1.219,0.736c-0.417,0.217-0.829,0.432-1.233,0.643
				c-0.797,0.446-1.644,0.733-2.408,1.068c-0.802,0.252-1.536,0.549-2.26,0.686c-0.713,0.164-1.362,0.317-1.965,0.353
				c-0.594,0.052-1.104,0.14-1.523,0.11C291.437,170.167,290.955,170.144,290.955,170.144z"/>
		</g>
		<g>
			<g>
				<g>
					<path d="M280.74,47.015c-0.056,0.16-0.11,0.321-0.142,0.487l-0.065,0.248c-0.02,0.083-0.08,0.156-0.121,0.236l-0.048,0.095
						l-0.013-0.118c-0.17-1.551-0.468-3.081-1.066-4.512l-0.438-1.073c-0.168-0.347-0.366-0.681-0.548-1.021
						c-0.193-0.333-0.352-0.687-0.572-1.003l-0.661-0.947c-0.878-1.266-1.971-2.355-3.104-3.373c-0.286-0.25-0.608-0.456-0.91-0.687
						c-0.299-0.202-0.63-0.5-0.9-0.624l-1.05-0.521c-0.35-0.184-0.7-0.352-1.057-0.44c-0.715-0.216-1.392-0.489-2.16-0.611
						c-0.746-0.161-1.493-0.317-2.263-0.397c-1.52-0.23-3.073-0.32-4.632-0.455c-1.559-0.115-3.138-0.275-4.722-0.556l-2.306-0.463
						c-0.77-0.175-1.553-0.43-2.33-0.643c-0.772-0.234-1.507-0.551-2.263-0.824c-0.743-0.301-1.458-0.674-2.185-1.015
						c-0.708-0.38-1.391-0.809-2.086-1.212c-0.657-0.463-1.321-0.919-1.964-1.401c-0.608-0.524-1.25-1.015-1.83-1.569
						c-0.561-0.574-1.176-1.1-1.69-1.715c-1.075-1.189-2.074-2.449-2.944-3.789c-0.444-0.664-0.88-1.333-1.262-2.033
						c-0.406-0.686-0.79-1.383-1.135-2.1c-0.37-0.705-0.71-1.423-1.021-2.153c-0.333-0.721-0.637-1.452-0.915-2.194
						c-0.3-0.733-0.574-1.476-0.817-2.228c-0.26-0.737-0.512-1.513-0.721-2.259c-0.445-1.498-0.843-2.994-1.568-4.189l1.231-0.105
						l-0.78,1.946l-0.641,1.999l-0.49,2.043l-0.332,2.077l-0.171,2.099c-0.001,0.702-0.025,1.406-0.01,2.109
						c0.053,0.701,0.076,1.406,0.151,2.105c0.105,0.696,0.177,1.399,0.31,2.092c0.158,0.688,0.277,1.386,0.466,2.066
						c0.211,0.673,0.373,1.364,0.606,2.032c0.25,0.661,0.461,1.341,0.744,1.99c0.298,0.643,0.559,1.307,0.888,1.937
						c0.343,0.621,0.654,1.264,1.024,1.872c0.386,0.598,0.747,1.214,1.153,1.8l1.267,1.73l1.377,1.649l-1.493-1.553
						c-0.473-0.54-0.926-1.099-1.384-1.656c-0.44-0.569-0.838-1.171-1.261-1.757c-0.406-0.596-0.756-1.229-1.137-1.843
						c-0.368-0.623-0.669-1.282-1.007-1.923c-0.324-0.648-0.576-1.33-0.868-1.995c-0.277-0.671-0.479-1.37-0.712-2.059
						c-0.217-0.694-0.363-1.408-0.548-2.112c-0.16-0.71-0.258-1.433-0.39-2.15c-0.101-0.721-0.149-1.449-0.226-2.176
						c-0.041-0.729-0.039-1.459-0.061-2.19c0.021-0.729,0.072-1.46,0.108-2.191l0.276-2.179l0.445-2.154l0.617-2.113l0.786-2.058
						L229.668,0l0.739,1.182c0.928,1.482,1.335,3.046,1.811,4.523c0.225,0.756,0.47,1.461,0.74,2.194
						c0.253,0.73,0.524,1.452,0.818,2.164c0.275,0.721,0.574,1.43,0.9,2.126c0.305,0.707,0.638,1.398,0.998,2.076
						c0.336,0.691,0.709,1.359,1.104,2.016c0.37,0.672,0.791,1.31,1.219,1.942c0.844,1.272,1.786,2.474,2.798,3.607
						c0.484,0.589,1.063,1.084,1.59,1.632c0.545,0.527,1.147,0.99,1.718,1.49c0.604,0.457,1.228,0.89,1.844,1.33
						c0.655,0.382,1.295,0.791,1.961,1.153c0.687,0.321,1.351,0.693,2.051,0.987c0.709,0.268,1.408,0.584,2.127,0.814
						c0.727,0.21,1.426,0.457,2.177,0.642l2.282,0.497c1.491,0.28,3.018,0.477,4.571,0.648c1.549,0.184,3.117,0.324,4.681,0.611
						c0.783,0.107,1.562,0.294,2.337,0.488c0.776,0.148,1.552,0.475,2.321,0.744c0.399,0.124,0.746,0.306,1.084,0.497l1.032,0.555
						c0.427,0.229,0.664,0.489,1.005,0.732c0.311,0.253,0.643,0.483,0.936,0.755c1.159,1.103,2.211,2.312,3.056,3.657l0.628,1.01
						c0.209,0.337,0.355,0.709,0.535,1.061c0.168,0.358,0.352,0.709,0.505,1.072l0.391,1.12c0.3,0.732,0.416,1.521,0.588,2.288
						c0.165,0.77,0.134,1.569,0.209,2.345l-0.061-0.023c0.038-0.069,0.097-0.126,0.122-0.207l0.081-0.238
						C280.608,47.326,280.674,47.171,280.74,47.015z"/>
				</g>
				<g>
					<path d="M232.389,30.663c-0.92-0.567-1.827-1.148-2.732-1.744c-0.456-0.288-0.888-0.622-1.32-0.959l-0.652-0.503
						c-0.227-0.157-0.398-0.38-0.602-0.568l-0.587-0.59c-0.193-0.213-0.398-0.36-0.583-0.629c-0.327-0.404-0.652-0.936-0.929-1.367
						c-0.287-0.442-0.57-0.876-0.893-1.224c-0.154-0.187-0.325-0.337-0.5-0.47c-0.164-0.16-0.372-0.212-0.545-0.335l0.964-0.523
						c-0.002,0.63-0.091,1.245-0.029,1.879c0.071,0.633,0.068,1.264,0.22,1.894c0.129,0.628,0.199,1.264,0.391,1.884
						c0.171,0.622,0.305,1.252,0.537,1.859c0.22,0.61,0.396,1.233,0.656,1.829c0.25,0.6,0.464,1.214,0.744,1.801l0.843,1.762
						l0.925,1.721l1.013,1.673c0.337,0.559,0.739,1.072,1.095,1.62c0.35,0.554,0.783,1.039,1.176,1.561
						c0.389,0.527,0.842,0.991,1.271,1.482c0.419,0.506,0.901,0.939,1.378,1.385c0.458,0.473,0.979,0.855,1.497,1.257
						c0.499,0.434,1.085,0.716,1.643,1.072c0.563,0.343,1.195,0.534,1.808,0.815l-0.977-0.225c-0.328-0.077-0.667-0.138-0.968-0.291
						c-0.61-0.275-1.274-0.485-1.832-0.871c-0.579-0.352-1.181-0.684-1.699-1.121c-0.537-0.414-1.084-0.824-1.564-1.303
						c-0.496-0.462-1.007-0.917-1.441-1.437c-0.444-0.511-0.932-0.992-1.332-1.538c-0.412-0.537-0.849-1.061-1.222-1.626
						l-1.123-1.695L226,35.376l-0.903-1.825c-0.301-0.608-0.534-1.249-0.805-1.873c-0.282-0.619-0.448-1.287-0.675-1.929
						c-0.232-0.641-0.37-1.315-0.541-1.978c-0.187-0.658-0.275-1.347-0.38-2.026c-0.131-0.675-0.109-1.383-0.155-2.073
						c-0.037-0.693,0.083-1.405,0.121-2.103l0.063-1.126l0.901,0.603c0.27,0.18,0.58,0.326,0.797,0.554
						c0.241,0.211,0.455,0.434,0.631,0.675c0.377,0.472,0.648,0.966,0.916,1.443c0.277,0.49,0.473,0.904,0.777,1.372
						c0.098,0.192,0.313,0.396,0.463,0.596l0.499,0.604c0.173,0.195,0.316,0.419,0.517,0.593l0.566,0.554
						c0.376,0.373,0.757,0.746,1.175,1.086L232.389,30.663z"/>
				</g>
				<g>
					<path d="M237.667,47.091c-1.012,0.044-2.014,0.185-3.027,0.229c-0.505,0.021-1.016,0.034-1.522-0.034
						c-0.256-0.016-0.505-0.078-0.754-0.144c-0.265-0.05-0.476-0.181-0.716-0.269c-0.237-0.084-0.453-0.23-0.678-0.354
						c-0.229-0.121-0.438-0.268-0.645-0.414c-0.424-0.282-0.814-0.607-1.215-0.916c-0.396-0.316-0.793-0.627-1.199-0.922
						l-0.625-0.419l-0.656-0.357l0.141-0.092c0.054,0.634,0.166,1.271,0.432,1.861c0.234,0.599,0.566,1.155,0.924,1.692
						c0.373,0.527,0.773,1.036,1.217,1.51c0.438,0.476,0.9,0.932,1.392,1.354c0.483,0.432,0.998,0.827,1.521,1.209
						c0.522,0.383,1.065,0.738,1.625,1.063c0.567,0.324,1.129,0.606,1.749,0.824c0.611,0.226,1.214,0.486,1.832,0.683l1.865,0.559
						l1.903,0.428c0.634,0.146,1.283,0.212,1.925,0.321c0.641,0.117,1.292,0.156,1.939,0.225c0.647,0.074,1.298,0.115,1.949,0.141
						c0.65,0.034,1.301,0.082,1.953,0.086c1.303,0.044,2.607,0.036,3.913,0.032c-1.305,0.037-2.609,0.078-3.915,0.067
						c-1.305-0.004-2.613-0.038-3.914-0.166c-0.65-0.063-1.305-0.097-1.95-0.208c-0.646-0.104-1.298-0.166-1.938-0.306l-1.919-0.415
						l-1.891-0.548c-0.626-0.193-1.227-0.447-1.841-0.668c-0.614-0.209-1.226-0.506-1.793-0.826
						c-1.148-0.643-2.211-1.428-3.191-2.301c-0.495-0.432-0.96-0.898-1.4-1.386c-0.445-0.483-0.849-1.006-1.225-1.546
						c-0.36-0.552-0.695-1.124-0.932-1.744c-0.268-0.607-0.381-1.273-0.429-1.936l-0.014-0.178l0.154,0.085l0.673,0.374l0.632,0.432
						c0.409,0.303,0.807,0.619,1.198,0.938c0.397,0.313,0.783,0.639,1.199,0.921c0.204,0.147,0.409,0.293,0.627,0.411
						c0.218,0.122,0.421,0.266,0.661,0.354c0.233,0.088,0.463,0.227,0.698,0.274c0.239,0.068,0.479,0.136,0.729,0.157
						c0.495,0.08,1.002,0.079,1.506,0.072C235.646,47.225,236.655,47.109,237.667,47.091z"/>
				</g>
				<g>
					<path d="M279.137,50.44c-0.059,0.042-0.079-0.097-0.104-0.144l-0.067-0.207l-0.116-0.419l-0.215-0.844l-0.215-0.844
						l-0.116-0.419l-0.065-0.207c-0.022-0.059-0.053-0.158-0.088-0.172l-0.016-0.004c-0.464-2.625-1.943-4.958-3.757-6.855
						c-0.91-0.956-1.922-1.815-3.017-2.551c-1.088-0.737-2.278-1.36-3.555-1.654c-2.563-0.641-5.241-0.519-7.883-0.432
						c-2.652,0.117-5.334,0.068-7.965-0.414c-2.623-0.496-5.167-1.438-7.459-2.809c-2.293-1.373-4.321-3.154-6.063-5.166
						c-1.744-2.014-3.215-4.249-4.48-6.584c-0.623-1.174-1.213-2.364-1.733-3.587c-0.522-1.215-1.004-2.469-1.842-3.508
						c0.859,1.021,1.37,2.273,1.917,3.475c0.544,1.208,1.157,2.385,1.802,3.541c1.284,2.314,2.76,4.53,4.507,6.516
						c1.742,1.984,3.763,3.732,6.036,5.072c2.273,1.337,4.787,2.247,7.378,2.718c2.592,0.488,5.251,0.562,7.894,0.463
						c2.642-0.068,5.344-0.176,7.95,0.495c1.318,0.316,2.509,0.954,3.608,1.709c1.103,0.751,2.118,1.626,3.029,2.598
						c1.801,1.944,3.236,4.332,3.649,6.972l-0.016-0.004c0.093,0.015,0.083,0.118,0.117,0.176l0.065,0.208l0.113,0.421l0.211,0.845
						l0.21,0.845l0.115,0.42l0.065,0.207C279.059,50.344,279.078,50.482,279.137,50.44z"/>
				</g>
			</g>
			<g>
				<path d="M249.727,57.131l-0.388,0.459c-0.133,0.15-0.252,0.313-0.396,0.452c-0.295,0.272-0.587,0.551-0.888,0.819l-0.973,0.72
					c-0.353,0.196-0.716,0.379-1.074,0.569l0.02-0.136l1.193,0.78c0.435,0.193,0.862,0.399,1.3,0.581
					c0.459,0.124,0.91,0.276,1.372,0.379c0.472,0.061,0.938,0.157,1.411,0.188c0.475,0.005,0.95,0.047,1.425,0.022
					c0.474-0.042,0.95-0.053,1.421-0.12c0.469-0.084,0.942-0.134,1.41-0.227l1.394-0.32l1.374-0.403l1.353-0.477
					c0.892-0.347,1.774-0.717,2.641-1.124c1.729-0.823,3.423-1.724,5.076-2.698c-1.612,1.04-3.269,2.021-5.002,2.853
					c-0.865,0.421-1.747,0.805-2.639,1.166l-1.355,0.499l-1.382,0.426c-0.932,0.247-1.875,0.462-2.836,0.579
					c-0.479,0.062-0.965,0.066-1.447,0.102c-0.482,0.019-0.967-0.029-1.45-0.042c-0.482-0.039-0.958-0.144-1.437-0.212
					c-0.472-0.111-0.931-0.272-1.396-0.406c-0.444-0.191-0.88-0.407-1.318-0.61l-1.205-0.811l-0.105-0.071l0.125-0.064
					c0.352-0.182,0.709-0.355,1.058-0.543l0.989-0.674c0.307-0.253,0.606-0.517,0.911-0.776c0.15-0.133,0.274-0.292,0.413-0.437
					L249.727,57.131z"/>
			</g>
		</g>
		<g>
			<g>
				<g>
					<path d="M331.932,55.526c-0.007,0.169-0.014,0.338-0.045,0.506l-0.029,0.251c-0.011,0.083,0.018,0.16,0.022,0.239l-0.066-0.005
						c0.4-0.669,0.715-1.405,1.193-2.029c0.484-0.619,0.928-1.282,1.512-1.816l0.832-0.845c0.295-0.263,0.611-0.5,0.916-0.752
						c0.313-0.241,0.604-0.516,0.938-0.729l1-0.644c1.339-0.854,2.808-1.497,4.328-1.996c0.381-0.121,0.778-0.187,1.168-0.282
						c0.412-0.074,0.738-0.207,1.222-0.232l1.171-0.059c0.387-0.028,0.778-0.044,1.192,0.016c0.811,0.086,1.651,0.123,2.416,0.321
						c0.784,0.157,1.567,0.32,2.321,0.559c1.535,0.411,3.013,0.956,4.491,1.452c1.478,0.511,2.94,0.986,4.408,1.373l2.275,0.527
						c0.757,0.155,1.495,0.23,2.242,0.353c0.747,0.1,1.515,0.112,2.271,0.175c0.759,0.035,1.518-0.018,2.276-0.014
						c0.757-0.042,1.51-0.138,2.265-0.202c0.746-0.135,1.494-0.259,2.236-0.413c0.729-0.207,1.473-0.367,2.191-0.611
						c0.709-0.27,1.445-0.469,2.135-0.793c1.399-0.592,2.766-1.273,4.073-2.063c0.657-0.389,1.311-0.783,1.933-1.232
						c0.637-0.424,1.262-0.868,1.861-1.349c0.615-0.458,1.213-0.94,1.791-1.449c0.593-0.489,1.167-1.002,1.724-1.535
						c0.571-0.518,1.125-1.054,1.666-1.605c0.56-0.546,1.082-1.079,1.607-1.665c1.063-1.133,2.102-2.372,3.575-3.313l1.174-0.75
						l-0.107,1.373l-0.171,2.196l-0.347,2.174l-0.521,2.138l-0.683,2.088c-0.281,0.676-0.549,1.357-0.842,2.026
						c-0.331,0.651-0.644,1.313-0.992,1.953c-0.38,0.623-0.735,1.261-1.136,1.87c-0.427,0.591-0.824,1.203-1.272,1.775
						c-0.469,0.558-0.907,1.14-1.4,1.674c-0.505,0.522-0.987,1.068-1.525,1.556c-0.549,0.477-1.067,0.984-1.638,1.431
						c-0.58,0.435-1.134,0.901-1.733,1.307c-0.607,0.392-1.195,0.814-1.817,1.179c-0.633,0.349-1.25,0.722-1.892,1.048
						c-0.651,0.307-1.301,0.618-1.96,0.903l-2.014,0.764l1.951-0.901l1.885-1.021c0.618-0.355,1.209-0.757,1.813-1.133
						c0.595-0.391,1.151-0.838,1.728-1.253c0.567-0.428,1.087-0.916,1.631-1.369c0.535-0.466,1.017-0.99,1.525-1.48
						c0.497-0.503,0.939-1.059,1.418-1.577c0.462-0.533,0.869-1.113,1.306-1.667c0.417-0.568,0.782-1.174,1.176-1.757
						c0.368-0.601,0.691-1.228,1.039-1.839c0.315-0.628,0.595-1.274,0.895-1.91l0.744-1.97l0.59-2.019l0.432-2.057l0.277-2.08
						l0.129-2.094l1.066,0.623c-1.168,0.769-2.167,1.95-3.211,3.113c-0.508,0.586-1.068,1.179-1.618,1.733
						c-0.542,0.575-1.108,1.128-1.692,1.663c-0.569,0.551-1.158,1.082-1.768,1.591c-0.593,0.527-1.208,1.03-1.844,1.509
						c-0.618,0.5-1.264,0.965-1.925,1.411c-0.645,0.47-1.325,0.888-2.011,1.298c-1.359,0.838-2.803,1.547-4.283,2.162
						c-0.729,0.336-1.51,0.548-2.262,0.826c-0.762,0.253-1.552,0.421-2.326,0.634c-0.787,0.161-1.583,0.289-2.375,0.426
						c-0.801,0.066-1.602,0.161-2.403,0.202c-0.804-0.004-1.608,0.027-2.409-0.02c-0.8-0.076-1.6-0.104-2.398-0.225
						c-0.793-0.139-1.61-0.245-2.381-0.416l-2.281-0.569c-1.551-0.425-3.047-0.957-4.504-1.521
						c-1.467-0.545-2.909-1.129-4.381-1.572c-0.729-0.257-1.472-0.436-2.215-0.608c-0.747-0.22-1.476-0.262-2.214-0.374
						c-0.36-0.072-0.75-0.07-1.144-0.054l-1.172,0.021c-0.298-0.004-0.725,0.124-1.08,0.179c-0.372,0.079-0.752,0.127-1.117,0.23
						c-1.459,0.435-2.914,0.951-4.249,1.719l-1.003,0.573c-0.336,0.191-0.63,0.442-0.947,0.661c-0.31,0.229-0.631,0.445-0.932,0.688
						l-0.855,0.782c-1.153,1.036-2.078,2.292-2.895,3.62l-0.063,0.102l-0.004-0.106c-0.002-0.089-0.024-0.182-0.007-0.266
						l0.047-0.251C331.894,55.863,331.913,55.694,331.932,55.526z"/>
				</g>
				<g>
					<path d="M382.628,61.456l3.105-0.897c0.523-0.129,1.027-0.303,1.526-0.479l0.749-0.258c0.256-0.072,0.48-0.213,0.722-0.314
						l0.708-0.332c0.222-0.115,0.504-0.208,0.674-0.341c0.477-0.292,0.83-0.583,1.29-0.907c0.446-0.316,0.904-0.647,1.446-0.912
						c0.262-0.143,0.551-0.252,0.859-0.34c0.293-0.112,0.637-0.112,0.957-0.159l1.072-0.158l-0.426,1.044
						c-0.264,0.647-0.461,1.342-0.791,1.952c-0.337,0.604-0.62,1.254-1.028,1.807c-0.385,0.57-0.761,1.154-1.21,1.669
						c-0.439,0.525-0.853,1.076-1.337,1.555c-0.479,0.484-0.915,1.016-1.436,1.454c-0.512,0.448-0.997,0.927-1.529,1.349
						l-1.598,1.262l-1.674,1.156l-1.741,1.053c-0.579,0.35-1.198,0.637-1.801,0.945c-0.596,0.321-1.242,0.549-1.861,0.82
						c-0.615,0.282-1.271,0.475-1.919,0.68c-0.638,0.228-1.308,0.363-1.972,0.508c-0.655,0.173-1.342,0.216-2.015,0.285
						c-0.669,0.109-1.359,0.016-2.029,0.003c-0.337,0.009-0.669-0.081-0.999-0.152l-0.979-0.215
						c0.674,0.008,1.327,0.106,1.983,0.038c0.655-0.084,1.306-0.088,1.942-0.266c0.64-0.142,1.275-0.264,1.892-0.495
						c0.622-0.198,1.243-0.384,1.838-0.661c0.599-0.26,1.207-0.485,1.784-0.796c0.578-0.302,1.178-0.556,1.731-0.906
						c0.556-0.343,1.138-0.635,1.683-0.995l1.631-1.078l1.573-1.159l1.516-1.23c0.505-0.41,0.961-0.875,1.444-1.309
						c0.49-0.428,0.916-0.915,1.376-1.372c0.47-0.45,0.86-0.962,1.281-1.451c0.438-0.479,0.774-1.021,1.159-1.535
						c0.407-0.504,0.675-1.075,1.011-1.616c0.327-0.546,0.51-1.141,0.778-1.71l0.646,0.886c-0.209,0.037-0.419-0.006-0.635,0.069
						c-0.216,0.045-0.435,0.107-0.654,0.21c-0.44,0.177-0.881,0.447-1.33,0.724c-0.435,0.272-0.956,0.613-1.425,0.838
						c-0.282,0.164-0.53,0.209-0.796,0.319l-0.783,0.281c-0.264,0.083-0.515,0.211-0.787,0.256l-0.805,0.175
						c-0.536,0.12-1.068,0.236-1.604,0.302C384.771,61.201,383.702,61.337,382.628,61.456z"/>
				</g>
				<g>
					<path d="M370.823,74.038c0.905,0.451,1.768,0.987,2.672,1.438c0.451,0.222,0.909,0.44,1.391,0.579
						c0.236,0.088,0.482,0.13,0.728,0.17c0.233,0.057,0.5,0.03,0.749,0.051c0.254,0.024,0.5-0.019,0.748-0.035
						c0.248-0.014,0.495-0.058,0.743-0.104c0.496-0.076,0.985-0.207,1.478-0.318c0.491-0.121,0.986-0.235,1.484-0.334l0.757-0.119
						l0.768-0.049l0.177-0.012l-0.088,0.155c-0.328,0.578-0.716,1.131-1.218,1.565c-0.479,0.458-1.027,0.832-1.589,1.177
						c-0.571,0.327-1.159,0.626-1.769,0.872c-0.607,0.252-1.228,0.475-1.859,0.652c-1.26,0.369-2.556,0.623-3.869,0.713
						c-0.649,0.047-1.33,0.053-1.974-0.021c-0.65-0.063-1.302-0.091-1.95-0.185l-1.942-0.314l-1.912-0.447
						c-0.638-0.147-1.254-0.371-1.882-0.553c-0.631-0.177-1.236-0.426-1.851-0.647c-1.23-0.442-2.428-0.972-3.609-1.526
						c-1.185-0.55-2.346-1.146-3.509-1.737c1.178,0.563,2.354,1.128,3.55,1.646c0.592,0.275,1.2,0.511,1.803,0.759
						c0.6,0.255,1.204,0.497,1.82,0.707c0.615,0.216,1.221,0.459,1.85,0.629c0.626,0.175,1.241,0.393,1.877,0.533l1.903,0.428
						l1.924,0.295c0.644,0.087,1.299,0.109,1.948,0.167c0.654,0.068,1.282,0.054,1.934,0.004c0.646-0.054,1.288-0.142,1.924-0.265
						c0.637-0.121,1.271-0.258,1.893-0.441c0.625-0.17,1.238-0.384,1.838-0.627c0.603-0.237,1.183-0.526,1.746-0.842
						c0.553-0.332,1.092-0.693,1.56-1.135c0.493-0.418,0.866-0.946,1.187-1.496l0.088,0.143l-0.746,0.042l-0.743,0.11
						c-0.494,0.093-0.986,0.203-1.479,0.319c-0.494,0.107-0.986,0.234-1.49,0.308c-0.25,0.044-0.502,0.086-0.76,0.099
						c-0.256,0.016-0.514,0.055-0.765,0.029c-0.255-0.023-0.501,0.004-0.762-0.063c-0.254-0.048-0.505-0.098-0.743-0.193
						c-0.487-0.154-0.942-0.386-1.391-0.62C372.563,75.068,371.718,74.512,370.823,74.038z"/>
				</g>
				<g>
					<path d="M331.914,59.308c0.035,0.062,0.112-0.054,0.155-0.086l0.147-0.159l0.283-0.33l0.553-0.673l0.552-0.673l0.283-0.331
						l0.147-0.16c0.057-0.037,0.093-0.136,0.183-0.108l-0.016-0.003c1.502-2.209,3.822-3.752,6.281-4.738
						c1.24-0.487,2.533-0.844,3.851-1.051c1.317-0.212,2.666-0.278,3.993,0.001c2.643,0.511,5.037,1.766,7.396,2.957
						c2.346,1.223,4.78,2.295,7.331,2.963c2.544,0.685,5.205,0.938,7.832,0.703c2.628-0.236,5.203-0.951,7.627-1.998
						c2.429-1.047,4.711-2.416,6.863-3.958c1.077-0.769,2.136-1.569,3.145-2.428c1.008-0.852,2.006-1.765,3.22-2.32
						c-1.202,0.581-2.173,1.509-3.166,2.383c-0.993,0.882-2.036,1.705-3.103,2.499c-2.144,1.567-4.43,2.957-6.869,4.03
						c-2.436,1.072-5.031,1.813-7.69,2.072c-2.659,0.257-5.36,0.019-7.944-0.656c-2.583-0.69-5.027-1.796-7.375-3.037
						c-2.349-1.21-4.718-2.468-7.309-2.986c-1.278-0.281-2.621-0.228-3.92-0.026c-1.304,0.195-2.586,0.539-3.818,1.014
						c-2.451,0.938-4.787,2.412-6.329,4.587l-0.017-0.003c-0.037-0.004-0.107,0.073-0.152,0.116l-0.148,0.159l-0.284,0.329
						l-0.556,0.669l-0.556,0.671l-0.285,0.329l-0.148,0.158C332.026,59.254,331.949,59.37,331.914,59.308z"/>
				</g>
			</g>
			<g>
				<path d="M355.625,77.948l0.177,0.575c0.063,0.189,0.107,0.387,0.187,0.57c0.165,0.365,0.322,0.732,0.491,1.092l0.604,1.031
					c0.235,0.319,0.483,0.629,0.724,0.943l0.086,0.111l-0.126,0.02l-1.436,0.218c-0.484-0.005-0.97,0.005-1.453-0.013
					c-0.478-0.078-0.962-0.13-1.435-0.231c-0.462-0.143-0.938-0.252-1.39-0.423c-0.441-0.196-0.9-0.359-1.329-0.583
					c-0.42-0.239-0.857-0.451-1.264-0.712c-0.818-0.518-1.578-1.115-2.314-1.737l-1.066-0.977l-1.011-1.031
					c-0.651-0.709-1.283-1.434-1.885-2.184c-1.21-1.495-2.287-3.091-3.298-4.721c1.076,1.589,2.222,3.128,3.431,4.612
					c0.608,0.739,1.248,1.451,1.904,2.146l1.019,1.01l1.068,0.953l1.123,0.886c0.383,0.284,0.789,0.532,1.177,0.81
					c0.396,0.262,0.822,0.476,1.232,0.717c0.419,0.226,0.865,0.391,1.297,0.59c0.441,0.174,0.904,0.286,1.356,0.434
					c0.461,0.105,0.934,0.161,1.401,0.245c0.474,0.023,0.948,0.02,1.424,0.031l1.412-0.194l-0.04,0.131
					c-0.242-0.325-0.492-0.646-0.728-0.974l-0.571-1.066c-0.156-0.372-0.301-0.748-0.451-1.12c-0.07-0.188-0.107-0.386-0.163-0.578
					L355.625,77.948z"/>
			</g>
		</g>
		<g>
			<path d="M95.555,165.372V25.47h-9.722v-5.758h9.044c10.389,0,6.709-0.564,11.453-1.693v147.354h14.314v5.758h-31.6v-5.758H95.555
				z"/>
			<path d="M95.555,40.375c0.188-8.565-6.396-14.857-18.256-18.747l0.047-2.215l18.673,0.407l-0.048,2.215l4.35,4.103
				c3.826,4.557-2.557,9.469-2.662,14.237"/>
		</g>
		<g>
			<path d="M133.302,165.372V25.47h-9.722v-5.758h9.044c10.389,0,6.709-0.564,11.452-1.693v147.354h14.314v5.758h-31.599v-5.758
				H133.302z"/>
			<path d="M133.302,40.375c0.188-8.565-6.397-14.857-18.257-18.747l0.047-2.215l18.674,0.407l-0.049,2.215l4.35,4.103
				c3.826,4.557-2.557,9.469-2.661,14.237"/>
		</g>
	</g>
</g>
</svg>
